<svg width="52" height="53" viewBox="0 0 52 53" fill="none" xmlns="http://www.w3.org/2000/svg">
<g clip-path="url(#clip0)">
<path d="M51.7024 9.62623L42.4602 0.385367C42.2698 0.194937 42.0115 0.0878906 41.7422 0.0878906H11.5781C9.89808 0.0878906 8.53125 1.45472 8.53125 3.13477V5.07095C3.54199 7.02806 0 11.891 0 17.5659C0 18.1267 0.454797 18.5815 1.01562 18.5815H13.4155C13.9763 18.5815 14.4311 18.1267 14.4311 17.5659V5.16602C14.4311 4.60519 13.9763 4.15039 13.4155 4.15039C12.4366 4.15039 11.4824 4.25673 10.5625 4.4568V3.13477C10.5625 2.57475 11.0181 2.11914 11.5781 2.11914H40.7266V8.31445C40.7266 9.9945 42.0934 11.3613 43.7734 11.3613H49.9688V49.041C49.9688 49.601 49.5131 50.0566 48.9531 50.0566H11.5781C11.0181 50.0566 10.5625 49.601 10.5625 49.041V40.3405C10.5625 39.7796 10.1077 39.3248 9.54688 39.3248C8.98605 39.3248 8.53125 39.7796 8.53125 40.3405V49.041C8.53125 50.7211 9.89808 52.0879 11.5781 52.0879H48.9531C50.6332 52.0879 52 50.7211 52 49.041V10.3444C52 10.075 51.893 9.81666 51.7024 9.62623ZM12.3998 6.22663V16.5503H2.07614C2.56171 11.0813 6.93093 6.7122 12.3998 6.22663ZM43.7734 9.33008C43.2134 9.33008 42.7578 8.87447 42.7578 8.31445V3.55523L48.5335 9.33008H43.7734Z" fill="black"/>
<path d="M10.2648 35.9323C10.076 35.7433 9.81398 35.6348 9.54688 35.6348C9.27977 35.6348 9.01773 35.7433 8.82883 35.9323C8.63992 36.1212 8.53125 36.3833 8.53125 36.6504C8.53125 36.9175 8.63982 37.1795 8.82883 37.3683C9.01773 37.5573 9.27977 37.666 9.54688 37.666C9.81398 37.666 10.076 37.5573 10.2648 37.3683C10.4538 37.1795 10.5625 36.9175 10.5625 36.6504C10.5625 36.3833 10.4538 36.1212 10.2648 35.9323Z" fill="black"/>
<path d="M17.0521 7.78809C16.4913 7.78809 16.0365 8.24288 16.0365 8.80371V20.1878H4.65234C4.09152 20.1878 3.63672 20.6426 3.63672 21.2035C3.63672 28.6008 9.6548 34.619 17.0521 34.619C24.4494 34.619 30.4676 28.6008 30.4676 21.2035C30.4676 13.8062 24.4494 7.78809 17.0521 7.78809ZM18.0677 9.86433C20.4453 10.0754 22.6148 11.0209 24.348 12.4714L18.0677 18.7516V9.86433ZM17.0521 32.5877C11.1171 32.5877 6.22819 28.0226 5.71296 22.2191H17.0521C17.3324 22.2191 17.5861 22.1056 17.77 21.9219C17.7701 21.9218 17.7702 21.9218 17.7704 21.9216L25.7846 13.9075C27.4391 15.8846 28.4364 18.4298 28.4364 21.2035C28.4364 27.4807 23.3294 32.5877 17.0521 32.5877Z" fill="black"/>
<path d="M44.4897 32.1416C42.8097 32.1416 41.4428 33.5084 41.4428 35.1885C41.4428 35.6096 41.5288 36.0108 41.6839 36.3759L35.8325 42.2273C35.4304 42.0314 34.9791 41.9212 34.5026 41.9212C34.0373 41.9212 33.5963 42.0264 33.2016 42.2136L29.316 38.328C29.4507 37.9843 29.5254 37.6106 29.5254 37.2196C29.5254 35.5396 28.1586 34.1727 26.4785 34.1727C24.7985 34.1727 23.4316 35.5396 23.4316 37.2196C23.4316 37.6748 23.5327 38.1067 23.7125 38.4949L19.9856 42.2218C19.5886 42.0319 19.1444 41.9253 18.6758 41.9253C16.9957 41.9253 15.6289 43.2921 15.6289 44.9722C15.6289 46.6522 16.9957 48.0191 18.6758 48.0191C20.3558 48.0191 21.7227 46.6522 21.7227 44.9722C21.7227 44.5012 21.6152 44.055 21.4237 43.6566L25.1297 39.9505C25.5366 40.1524 25.9945 40.2665 26.4787 40.2665C27.0256 40.2665 27.5388 40.121 27.983 39.8677L31.759 43.6437C31.5648 44.0443 31.4557 44.4936 31.4557 44.968C31.4557 46.6481 32.8225 48.0149 34.5026 48.0149C36.1826 48.0149 37.5494 46.6481 37.5494 44.968C37.5494 44.5051 37.4452 44.0662 37.2597 43.6729L43.0564 37.8762C43.4838 38.1051 43.9719 38.2354 44.4897 38.2354C46.1698 38.2354 47.5366 36.8685 47.5366 35.1885C47.5366 33.5084 46.1698 32.1416 44.4897 32.1416ZM18.6757 45.9879C18.1157 45.9879 17.6601 45.5323 17.6601 44.9723C17.6601 44.4123 18.1157 43.9567 18.6757 43.9567C18.9484 43.9567 19.1957 44.0652 19.3783 44.2407C19.3824 44.245 19.3859 44.2496 19.3901 44.2537C19.3949 44.2586 19.4002 44.2627 19.4052 44.2674C19.5819 44.4502 19.6913 44.6986 19.6913 44.9723C19.6913 45.5322 19.2357 45.9879 18.6757 45.9879ZM26.4785 38.2352C25.9185 38.2352 25.4629 37.7796 25.4629 37.2196C25.4629 36.6596 25.9185 36.204 26.4785 36.204C27.0385 36.204 27.4941 36.6596 27.4941 37.2196C27.4941 37.7796 27.0385 38.2352 26.4785 38.2352ZM34.5024 45.9837C33.9424 45.9837 33.4867 45.528 33.4867 44.968C33.4867 44.408 33.9424 43.9524 34.5024 43.9524C35.0624 43.9524 35.518 44.408 35.518 44.968C35.518 45.528 35.0624 45.9837 34.5024 45.9837ZM44.4895 36.204C43.9295 36.204 43.4739 35.7484 43.4739 35.1884C43.4739 34.6284 43.9296 34.1727 44.4895 34.1727C45.0495 34.1727 45.5051 34.6284 45.5051 35.1884C45.5051 35.7484 45.0495 36.204 44.4895 36.204Z" fill="black"/>
<path d="M39.4151 23.9551H34.0547C33.4939 23.9551 33.0391 24.4099 33.0391 24.9707C33.0391 25.5315 33.4938 25.9863 34.0547 25.9863H39.4151C39.9759 25.9863 40.4307 25.5315 40.4307 24.9707C40.4307 24.4099 39.9759 23.9551 39.4151 23.9551Z" fill="black"/>
<path d="M44.757 24.2527C44.5682 24.0637 44.3062 23.9551 44.0391 23.9551C43.772 23.9551 43.5099 24.0636 43.321 24.2527C43.1321 24.4416 43.0234 24.7036 43.0234 24.9707C43.0234 25.2378 43.132 25.4998 43.321 25.6886C43.5099 25.8776 43.7709 25.9863 44.0391 25.9863C44.3062 25.9863 44.5682 25.8777 44.757 25.6886C44.9459 25.4998 45.0547 25.2378 45.0547 24.9707C45.0547 24.7036 44.946 24.4416 44.757 24.2527Z" fill="black"/>
<path d="M46.461 14.2051H34.0547C33.4939 14.2051 33.0391 14.6599 33.0391 15.2207C33.0391 15.7815 33.4938 16.2363 34.0547 16.2363H46.461C47.0218 16.2363 47.4766 15.7815 47.4766 15.2207C47.4766 14.6599 47.0218 14.2051 46.461 14.2051Z" fill="black"/>
<path d="M46.461 19.0801H34.0547C33.4939 19.0801 33.0391 19.5349 33.0391 20.0957C33.0391 20.6565 33.4938 21.1113 34.0547 21.1113H46.461C47.0218 21.1113 47.4766 20.6565 47.4766 20.0957C47.4766 19.5349 47.0218 19.0801 46.461 19.0801Z" fill="black"/>
</g>
<defs>
<clipPath id="clip0">
<rect width="52" height="52" fill="white" transform="translate(0 0.0878906)"/>
</clipPath>
</defs>
</svg>
