<svg width="63" height="61" viewBox="0 0 63 61" fill="none" xmlns="http://www.w3.org/2000/svg">
<path d="M31.9023 12.3531C31.584 12.3531 31.2713 12.2228 31.0462 11.995C30.9904 11.9394 30.9397 11.8771 30.8962 11.81C30.8522 11.7444 30.8149 11.674 30.7846 11.6008C30.7543 11.5276 30.7302 11.451 30.7155 11.373C30.6999 11.2941 30.6914 11.2147 30.6914 11.1348C30.6914 11.0554 30.6999 10.975 30.7155 10.8971C30.7302 10.8191 30.7543 10.7425 30.7846 10.6698C30.8149 10.5951 30.8522 10.5247 30.8962 10.4591C30.9397 10.3921 30.9904 10.3298 31.0462 10.2741C31.102 10.218 31.1635 10.1667 31.2302 10.1229C31.2955 10.0792 31.3659 10.0416 31.4397 10.0112C31.5126 9.98075 31.5887 9.95745 31.6663 9.94176C31.8224 9.9099 31.9823 9.9099 32.1384 9.94176C32.216 9.95745 32.2921 9.98075 32.365 10.0112C32.4388 10.0416 32.5088 10.0792 32.5745 10.1229C32.6407 10.1667 32.7027 10.218 32.7585 10.2741C32.8143 10.3298 32.8649 10.3921 32.9085 10.4591C32.952 10.5247 32.9898 10.5951 33.0201 10.6698C33.0504 10.7425 33.0745 10.8191 33.0892 10.8971C33.1048 10.975 33.1133 11.0554 33.1133 11.1348C33.1133 11.2147 33.1048 11.2941 33.0892 11.373C33.0745 11.451 33.0504 11.5276 33.0201 11.6008C32.9898 11.674 32.952 11.7444 32.9085 11.81C32.8649 11.8771 32.8143 11.9389 32.7585 11.995C32.7027 12.0525 32.6407 12.1025 32.5745 12.1472C32.5088 12.1914 32.4388 12.229 32.365 12.2594C32.2921 12.2898 32.216 12.3131 32.1384 12.3288C32.0608 12.3445 31.9809 12.3531 31.9023 12.3531Z" fill="#FF9927"/>
<path d="M54.0407 45.0947C58.4678 40.5436 61.4705 34.4376 62.496 27.9027C62.4965 27.9013 62.4965 27.8998 62.4965 27.8984C62.7656 26.1818 62.9023 24.4229 62.9023 22.6702C62.9023 21.9978 62.3603 21.4529 61.6914 21.4529H58.2005C57.411 21.4529 56.6268 21.49 55.8486 21.5637C55.395 17.2228 54.0204 12.9589 51.8436 9.16382L50.8469 7.42726C50.6861 7.14766 50.4216 6.94319 50.1113 6.85998C49.8015 6.77582 49.4709 6.82004 49.1927 6.98124L44.0108 9.98836C42.9465 10.606 42.0619 11.2789 41.1816 11.9888C40.7124 11.2014 40.2157 10.413 39.6916 9.62412C36.8147 5.2927 34.1449 2.56946 34.1199 2.54426L32.7642 1.16385C32.5367 0.931803 32.2264 0.801514 31.9023 0.801514C31.5783 0.801514 31.268 0.931803 31.0405 1.16385L29.6867 2.54235C29.6597 2.56946 26.991 5.29175 24.1131 9.62412C23.5885 10.4135 23.0918 11.2023 22.6226 11.9903C21.7428 11.2817 20.8577 10.6094 19.7897 9.98836L14.6101 6.98124C14.3324 6.82004 14.0018 6.77582 13.6915 6.8595C13.3811 6.94319 13.1163 7.14719 12.9559 7.42679L11.9588 9.16335C9.77956 12.9593 8.40495 17.2237 7.95322 21.5632C7.17604 21.49 6.39272 21.4529 5.60419 21.4529H2.11328C1.44443 21.4529 0.902344 21.9978 0.902344 22.6702C0.902344 24.4229 1.03905 26.1818 1.3082 27.8984C1.3082 27.8998 1.3082 27.9008 1.30867 27.9022C2.33418 34.4376 5.33693 40.5436 9.76395 45.0947C10.6234 45.9782 11.5312 46.7975 12.4796 47.5489C6.83783 48.8437 3.98219 50.682 3.98219 53.0267C3.98219 55.3748 6.84966 57.1689 12.7487 58.5112C17.8786 59.6786 24.6807 60.3215 31.9023 60.3215C39.124 60.3215 45.926 59.6786 51.056 58.5112C56.9546 57.1694 59.8225 55.3748 59.8225 53.0267C59.8225 50.6825 56.9669 48.8437 51.3251 47.5489C52.2735 46.7975 53.1813 45.9787 54.0407 45.0947ZM60.4568 23.8875C60.4218 24.8 60.3466 25.7101 60.2331 26.6112C54.5535 27.3834 49.1407 30.1728 44.9001 34.5323C40.6892 38.8613 37.7673 44.5969 36.6094 50.7714C36.204 50.7933 35.7972 50.8047 35.3932 50.8047H33.1365C33.7069 35.8542 44.7312 23.8875 58.2005 23.8875H60.4568ZM45.2217 12.0968L49.3545 9.69877L49.7457 10.3802C51.7693 13.9075 53.0412 17.8737 53.4495 21.9084C50.9666 22.3901 48.5702 23.2489 46.3149 24.4591C45.5604 21.0677 44.2478 17.6132 42.3926 14.1348C43.331 13.3702 44.1848 12.6988 45.2217 12.0968ZM31.4085 4.25466L31.9023 3.75157L32.3981 4.25657C32.4936 4.35309 41.789 13.8904 44.1163 25.7805C42.1788 27.0753 40.3699 28.6478 38.729 30.479C36.3492 33.1352 34.4604 36.1847 33.1133 39.4909V15.6512C33.1133 14.9788 32.5712 14.4339 31.9023 14.4339C31.2335 14.4339 30.6914 14.9788 30.6914 15.6512V39.4909C29.3442 36.1847 27.4555 33.1352 25.0757 30.479C23.4348 28.6478 21.6259 27.0758 19.6884 25.7805C22.0157 13.889 31.3111 4.35309 31.4085 4.25466ZM14.0566 10.3807L14.4483 9.69877L18.5778 12.0958C19.6198 12.7021 20.4741 13.373 21.4112 14.1358C19.5565 17.6141 18.2438 21.0677 17.4898 24.4591C15.2335 23.2484 12.8362 22.3896 10.3524 21.908C10.7592 17.8747 12.0311 13.9089 14.0566 10.3807ZM5.60419 23.8875C19.0735 23.8875 30.0978 35.8542 30.6682 50.8047H28.4114C28.007 50.8047 27.6007 50.7933 27.1953 50.7714C26.0373 44.5969 23.115 38.8613 18.9042 34.5323C14.664 30.1728 9.25119 27.3834 3.57161 26.6112C3.45808 25.7101 3.38287 24.8 3.34787 23.8875H5.60419ZM3.99733 29.1371C14.1011 30.8437 22.3123 39.3173 24.6703 50.4904C14.567 48.7833 6.35582 40.3102 3.99733 29.1371ZM57.4006 53.0267C57.4006 53.4271 56.1367 54.8589 50.521 56.137C45.5618 57.2654 38.9494 57.8869 31.9023 57.8869C24.8553 57.8869 18.2429 57.2654 13.2837 56.137C7.66798 54.8589 6.40407 53.4271 6.40407 53.0267C6.40407 52.5151 8.03505 50.7776 15.2354 49.4699C18.5678 51.5013 22.2603 52.7638 26.0477 53.1266H26.0482C26.8297 53.2012 27.6248 53.2393 28.4114 53.2393H35.3932C36.1799 53.2393 36.975 53.2012 37.7565 53.1266C41.544 52.7638 45.2368 51.5013 48.5693 49.4704C55.7696 50.7776 57.4006 52.5151 57.4006 53.0267ZM39.1344 50.4904C41.4924 39.3173 49.7036 30.8437 59.8074 29.1371C57.4489 40.3102 49.2377 48.7833 39.1344 50.4904Z" fill="#FF9927"/>
</svg>
