<svg width="45" height="59" viewBox="0 0 45 59" fill="none" xmlns="http://www.w3.org/2000/svg">
<path d="M39.4336 0.986816H6.27623C3.2368 0.986816 0.75 3.45962 0.75 6.48194V46.0468C0.75 47.7503 1.68946 49.179 3.01575 50.1682C3.01575 50.2231 2.96049 50.333 2.96049 50.4429V54.2895C2.96049 56.4326 4.67362 58.1361 6.82885 58.1361H7.93409C10.0893 58.1361 11.8025 56.4326 11.8025 54.2895V51.5419H33.9074V54.2895C33.9074 56.4326 35.6205 58.1361 37.7757 58.1361H38.881C41.0362 58.1361 42.7493 56.4326 42.7493 54.2895V50.4429C44.0756 49.4538 44.9598 47.8602 44.9598 46.0468V6.48194C44.9598 3.45962 42.473 0.986816 39.4336 0.986816ZM9.59196 54.2895C9.59196 55.2237 8.87355 55.938 7.93409 55.938H6.82885C5.88939 55.938 5.17098 55.2237 5.17098 54.2895V51.2672C5.7236 51.432 6.27623 51.5419 6.82885 51.5419H9.59196V54.2895ZM40.5388 54.2895C40.5388 55.2237 39.8204 55.938 38.881 55.938H37.7757C36.8363 55.938 36.1178 55.2237 36.1178 54.2895V51.5419H39.4336C39.8204 51.5419 40.2073 51.487 40.5388 51.432V54.2895ZM42.7493 46.0468C42.7493 47.8602 41.2572 49.3439 39.4336 49.3439H6.82885C5.06046 49.3439 2.96049 47.8602 2.96049 46.0468V36.1556H42.7493V46.0468ZM42.7493 33.9576H2.96049V11.9771H42.7493V33.9576ZM42.7493 9.77901H2.96049V6.48194C2.96049 4.66855 4.45257 3.18487 6.27623 3.18487H39.4336C41.2572 3.18487 42.7493 4.66855 42.7493 6.48194V9.77901Z" fill="#FF9927"/>
<path d="M20.6444 5.38291H13.4603C12.8524 5.38291 12.3551 5.87747 12.3551 6.48194C12.3551 7.0864 12.8524 7.58096 13.4603 7.58096H20.6444C21.2523 7.58096 21.7497 7.0864 21.7497 6.48194C21.7497 5.87747 21.2523 5.38291 20.6444 5.38291Z" fill="#FF9927"/>
<path d="M27.2759 5.38291H25.618C25.0101 5.38291 24.5128 5.87747 24.5128 6.48194C24.5128 7.0864 25.0101 7.58096 25.618 7.58096H27.2759C27.8838 7.58096 28.3811 7.0864 28.3811 6.48194C28.3811 5.87747 27.8838 5.38291 27.2759 5.38291Z" fill="#FF9927"/>
<path d="M9.03934 45.4973C10.863 45.4973 12.3551 44.0136 12.3551 42.2002C12.3551 40.3868 10.863 38.9032 9.03934 38.9032C7.21569 38.9032 5.7236 40.3868 5.7236 42.2002C5.7236 44.0136 7.21569 45.4973 9.03934 45.4973ZM9.03934 41.1012C9.64723 41.1012 10.1446 41.5958 10.1446 42.2002C10.1446 42.8047 9.64723 43.2993 9.03934 43.2993C8.43146 43.2993 7.9341 42.8047 7.9341 42.2002C7.9341 41.5958 8.43146 41.1012 9.03934 41.1012Z" fill="#FF9927"/>
<path d="M36.6705 45.4973C38.4941 45.4973 39.9862 44.0136 39.9862 42.2002C39.9862 40.3868 38.4941 38.9032 36.6705 38.9032C34.8468 38.9032 33.3547 40.3868 33.3547 42.2002C33.3547 44.0136 34.8468 45.4973 36.6705 45.4973ZM36.6705 41.1012C37.2784 41.1012 37.7757 41.5958 37.7757 42.2002C37.7757 42.8047 37.2784 43.2993 36.6705 43.2993C36.0626 43.2993 35.5652 42.8047 35.5652 42.2002C35.5652 41.5958 36.0626 41.1012 36.6705 41.1012Z" fill="#FF9927"/>
</svg>
