<?xml version="1.0" encoding="utf-8"?>
<!-- Generator: Adobe Illustrator 22.1.0, SVG Export Plug-In . SVG Version: 6.00 Build 0)  -->
<svg version="1.1" id="Слой_1" xmlns="http://www.w3.org/2000/svg" xmlns:xlink="http://www.w3.org/1999/xlink" x="0px" y="0px"
	 viewBox="0 0 300 300" style="enable-background:new 0 0 300 300;" xml:space="preserve">
<style type="text/css">
	.st0{fill:none;}
	.st1{fill:#FFFFFF;}
</style>
<g>
	<g>
		<g>
			<path class="st0" d="M124.3,171.8c0,1.1,0.9,1.9,2.1,1.9h5.5c1.1,0,2.1-0.9,2.1-1.9v-3.1h-9.6V171.8z"/>
			<path class="st0" d="M119.9,143.4l0.4-0.9l0.2-0.4h0c0.3-0.7,0.7-1.4,1-2h-3.1c-1.1,0-2.1,0.9-2.1,1.9v1.4c0,1.1,0.9,1.9,2.1,1.9
				h0.7C119.4,144.7,119.6,144,119.9,143.4L119.9,143.4L119.9,143.4z"/>
			<path class="st0" d="M166.1,168.7v3.1c0,1.1,0.9,1.9,2.1,1.9h5.5c1.1,0,2.1-0.9,2.1-1.9v-3.1H166.1z"/>
			<path class="st0" d="M178,142.1c-2.7-5.5-6.6-10.3-9.4-13.3c-1.5-1.6-3.5-2.5-5.7-2.5h-25.9c-2.1,0-4.2,0.9-5.7,2.5
				c-2.8,3-6.7,7.8-9.4,13.3H178z"/>
			<path class="st0" d="M132.2,149.2c-0.4-0.3-0.8-0.4-1.3-0.4H125c-0.4,0-0.7,0.3-0.7,0.6v2.6c0,0.4,0.3,0.6,0.7,0.6h9.8
				c0.5,0,0.6-0.3,0.6-0.4c0-0.1,0.1-0.5-0.2-0.7L132.2,149.2z"/>
			<path class="st0" d="M118.8,162.8c0,2.5,2.2,4.5,4.8,4.5h52.7c2.6,0,4.8-2,4.8-4.5v-3.5h-62.4V162.8z"/>
			<path class="st0" d="M178.6,143.4h-57.2c-1.7,3.8-2.6,7.5-2.6,10.9v3.8h62.4v-3.8C181.2,150.9,180.3,147.2,178.6,143.4z
				 M136.8,152.6c-0.3,0.8-1.1,1.3-1.9,1.3H125c-1.1,0-2.1-0.9-2.1-1.9v-2.6c0-1.1,0.9-1.9,2.1-1.9h5.9c0.8,0,1.5,0.3,2.1,0.7
				l3.1,2.3C136.8,151,137.1,151.9,136.8,152.6z M156.9,152.6h-13.7c-0.4,0-0.7-0.3-0.7-0.6c0-0.4,0.3-0.6,0.7-0.6h13.7
				c0.4,0,0.7,0.3,0.7,0.6C157.6,152.4,157.2,152.6,156.9,152.6z M160.3,150.1h-20.6c-0.4,0-0.7-0.3-0.7-0.6c0-0.4,0.3-0.6,0.7-0.6
				h20.6c0.4,0,0.7,0.3,0.7,0.6C161,149.8,160.7,150.1,160.3,150.1z M177.1,152c0,1.1-0.9,1.9-2.1,1.9h-9.8c-0.9,0-1.6-0.5-1.9-1.3
				c-0.3-0.8,0-1.6,0.7-2.2l3.1-2.3c0.6-0.5,1.4-0.7,2.1-0.7h5.9c1.1,0,2.1,0.9,2.1,1.9V152z"/>
			<path class="st0" d="M175,148.8h-5.9c-0.5,0-0.9,0.2-1.3,0.4l-3.1,2.3c-0.4,0.3-0.3,0.6-0.2,0.7c0,0.1,0.2,0.4,0.6,0.4h9.8
				c0.4,0,0.7-0.3,0.7-0.6v-2.6C175.7,149,175.4,148.8,175,148.8z"/>
			<path class="st0" d="M181.6,140h-3.1c0.4,0.7,0.7,1.3,1,2h0l0.2,0.4l0.4,0.9h0c0.3,0.7,0.6,1.4,0.8,2h0.7c1.1,0,2.1-0.9,2.1-1.9
				V142C183.6,140.9,182.7,140,181.6,140z"/>
			<path class="st1" d="M181.6,138.7h-3.8c-2.6-4.5-5.7-8.3-8.1-10.8c-1.7-1.8-4.2-2.9-6.7-2.9h-25.9c-2.5,0-5,1.1-6.7,2.9
				c-2.4,2.6-5.5,6.4-8.1,10.8h-3.8c-1.9,0-3.4,1.5-3.4,3.2v1.4c0,1.8,1.5,3.2,3.4,3.2h0.3c-0.8,2.6-1.2,5.2-1.2,7.6v3.8v1.3v3.5
				c0,3,2.4,5.5,5.5,5.8v3.1c0,1.8,1.5,3.2,3.4,3.2h5.5c1.9,0,3.4-1.5,3.4-3.2v-3.1h29.4v3.1c0,1.8,1.5,3.2,3.4,3.2h5.5
				c1.9,0,3.4-1.5,3.4-3.2v-3.1c3.1-0.3,5.5-2.8,5.5-5.8v-3.5V158v-3.8c0-2.4-0.4-5-1.2-7.6h0.3c1.9,0,3.4-1.5,3.4-3.2V142
				C185,140.2,183.5,138.7,181.6,138.7z M131.4,128.8c1.5-1.6,3.5-2.5,5.7-2.5H163c2.1,0,4.2,0.9,5.7,2.5c2.8,3,6.7,7.8,9.4,13.3
				h-56C124.7,136.5,128.6,131.8,131.4,128.8z M118.4,145.4c-1.1,0-2.1-0.9-2.1-1.9V142c0-1.1,0.9-1.9,2.1-1.9h3.1
				c-0.4,0.7-0.7,1.3-1,2h0l-0.2,0.4l-0.4,0.9h0c-0.3,0.7-0.6,1.4-0.8,2L118.4,145.4L118.4,145.4z M133.9,171.8
				c0,1.1-0.9,1.9-2.1,1.9h-5.5c-1.1,0-2.1-0.9-2.1-1.9v-3.1h9.6V171.8z M173.6,173.7h-5.5c-1.1,0-2.1-0.9-2.1-1.9v-3.1h9.6v3.1
				C175.7,172.8,174.8,173.7,173.6,173.7z M181.2,162.8c0,2.5-2.2,4.5-4.8,4.5h-52.7c-2.6,0-4.8-2-4.8-4.5v-3.5h62.4V162.8z
				 M118.8,158v-3.8c0-3.4,0.9-7.1,2.6-10.9h57.2c1.7,3.8,2.6,7.5,2.6,10.9v3.8H118.8z M183.6,143.4c0,1.1-0.9,1.9-2.1,1.9h-0.7
				c-0.2-0.7-0.5-1.3-0.8-2h0l-0.4-0.9l-0.2-0.4h0c-0.3-0.7-0.7-1.4-1-2h3.1c1.1,0,2.1,0.9,2.1,1.9L183.6,143.4L183.6,143.4z"/>
			<path class="st1" d="M136.1,150.5l-3.1-2.3c-0.6-0.5-1.4-0.7-2.1-0.7H125c-1.1,0-2.1,0.9-2.1,1.9v2.6c0,1.1,0.9,1.9,2.1,1.9h9.8
				c0.9,0,1.6-0.5,1.9-1.3C137.1,151.9,136.8,151,136.1,150.5z M135.5,152.2c0,0.1-0.2,0.4-0.6,0.4H125c-0.4,0-0.7-0.3-0.7-0.6v-2.6
				c0-0.4,0.3-0.6,0.7-0.6h5.9c0.5,0,0.9,0.2,1.3,0.4l3.1,2.3C135.6,151.8,135.5,152.1,135.5,152.2z"/>
			<path class="st1" d="M175,147.5h-5.9c-0.8,0-1.5,0.3-2.1,0.7l-3.1,2.3c-0.7,0.5-0.9,1.4-0.7,2.2c0.3,0.8,1.1,1.3,1.9,1.3h9.8
				c1.1,0,2.1-0.9,2.1-1.9v-2.6C177.1,148.3,176.1,147.5,175,147.5z M175.7,152c0,0.4-0.3,0.6-0.7,0.6h-9.8c-0.5,0-0.6-0.3-0.6-0.4
				c0-0.1-0.1-0.5,0.2-0.7l3.1-2.3c0.4-0.3,0.8-0.4,1.3-0.4h5.9c0.4,0,0.7,0.3,0.7,0.6L175.7,152L175.7,152z"/>
			<path class="st1" d="M160.3,148.8h-20.6c-0.4,0-0.7,0.3-0.7,0.6c0,0.4,0.3,0.6,0.7,0.6h20.6c0.4,0,0.7-0.3,0.7-0.6
				C161,149,160.7,148.8,160.3,148.8z"/>
			<path class="st1" d="M156.9,151.3h-13.7c-0.4,0-0.7,0.3-0.7,0.6c0,0.4,0.3,0.6,0.7,0.6h13.7c0.4,0,0.7-0.3,0.7-0.6
				C157.6,151.6,157.2,151.3,156.9,151.3z"/>
		</g>
	</g>
</g>
</svg>
