<svg width="63" height="49" viewBox="0 0 63 49" fill="none" xmlns="http://www.w3.org/2000/svg">
<path d="M44.8138 17.9731H42.595C42.0205 17.9731 41.5547 18.4389 41.5547 19.0135C41.5547 19.5879 42.0204 20.0538 42.595 20.0538H44.8138C45.3883 20.0538 45.8541 19.5881 45.8541 19.0135C45.854 18.4389 45.3883 17.9731 44.8138 17.9731Z" fill="#FF9927"/>
<path d="M45.0871 26.568C44.6769 26.0426 44.0591 25.7412 43.3925 25.7412H19.604C18.9374 25.7412 18.3198 26.0426 17.9094 26.568C17.4992 27.0936 17.3565 27.7658 17.5183 28.4125L18.0732 30.6319C18.3129 31.5906 19.1706 32.2603 20.1589 32.2603H42.8378C43.826 32.2603 44.6836 31.5906 44.9235 30.6318L45.4784 28.4125C45.64 27.7657 45.4974 27.0935 45.0871 26.568ZM43.4599 27.9081L42.905 30.1272C42.8973 30.1583 42.8696 30.1798 42.8378 30.1798H20.1589C20.127 30.1798 20.0992 30.1581 20.0916 30.1273L19.5367 27.9081C19.5342 27.8983 19.5285 27.8752 19.5493 27.8486C19.5701 27.822 19.5939 27.822 19.6039 27.822H43.3925C43.4027 27.822 43.4263 27.822 43.4471 27.8486C43.468 27.8752 43.4624 27.8981 43.4599 27.9081Z" fill="#FF9927"/>
<path d="M59.2405 20.0535C61.0378 20.0535 62.5 18.5913 62.5 16.7941C62.5 14.9968 61.0378 13.5346 59.2405 13.5346H58.1309C56.5103 13.5346 55.1626 14.7237 54.9131 16.2751L52.138 8.64337C51.5126 6.92299 49.8624 5.76727 48.032 5.76727H40.1201L39.5345 2.83959C39.231 1.32119 37.8866 0.219238 36.3383 0.219238H26.6615C25.1132 0.219238 23.769 1.32119 23.4653 2.83959L22.8798 5.76727H14.9679C13.1375 5.76727 11.4873 6.92311 10.8619 8.64325L8.08689 16.2749C7.83755 14.7237 6.48978 13.5346 4.86918 13.5346H3.7596C1.96221 13.5346 0.5 14.9968 0.5 16.7941C0.5 18.5913 1.96221 20.0535 3.75948 20.0535H4.86906C5.38141 20.0535 5.86627 19.9344 6.29809 19.7228L3.91981 22.6958C3.14553 23.6636 2.71916 24.879 2.71916 26.1183V46.7537C2.71916 47.9393 3.68355 48.9036 4.86906 48.9036H8.19793C9.38344 48.9036 10.3478 47.9393 10.3478 46.7537V42.2459H52.6521V46.7537C52.6521 47.9393 53.6164 48.9036 54.8019 48.9036H58.1308C59.3163 48.9036 60.2807 47.9393 60.2807 46.7537V26.1183C60.2807 24.879 59.8543 23.6635 59.0801 22.6958L56.7018 19.7228C57.1336 19.9344 57.6185 20.0535 58.1308 20.0535H59.2405ZM4.86918 17.973H3.7596C3.10945 17.973 2.58063 17.4442 2.58063 16.7941C2.58063 16.1439 3.10945 15.6151 3.7596 15.6151H4.86918C5.51934 15.6151 6.04815 16.1439 6.04815 16.7941C6.04815 17.4441 5.51922 17.973 4.86918 17.973ZM25.5055 3.24743C25.6153 2.69827 26.1015 2.29963 26.6615 2.29963H36.3383C36.8984 2.29963 37.3846 2.69827 37.4943 3.24743L37.9983 5.76727H25.0015L25.5055 3.24743ZM8.26732 46.7537C8.26732 46.792 8.2362 46.8231 8.19793 46.8231H4.86906C4.8308 46.8231 4.79968 46.792 4.79968 46.7537V41.5966C5.46569 42.0078 6.24965 42.2459 7.08823 42.2459H8.2672V46.7537H8.26732ZM43.7752 40.1654H19.2248V37.8769C19.2248 37.8386 19.256 37.8075 19.2942 37.8075H43.7059C43.7442 37.8075 43.7753 37.8386 43.7753 37.8769V40.1654H43.7752ZM58.2002 46.7537C58.2002 46.792 58.1691 46.8231 58.1308 46.8231H54.8019C54.7637 46.8231 54.7326 46.792 54.7326 46.7537V42.2459H55.9115C56.7501 42.2459 57.5341 42.0078 58.2001 41.5966V46.7537H58.2002ZM57.4557 23.9955C57.9357 24.5958 58.2003 25.3497 58.2003 26.1184V37.8769C58.2003 39.1388 57.1737 40.1654 55.9118 40.1654H45.8557V37.8769C45.8557 36.6913 44.8913 35.727 43.7058 35.727H19.2942C18.1087 35.727 17.1443 36.6913 17.1443 37.8769V40.1654H7.08835C5.82643 40.1654 4.7998 39.1388 4.7998 37.8769V26.1184C4.7998 25.3497 5.06427 24.5958 5.54452 23.9955L8.69793 20.0535H38.1577C38.7322 20.0535 39.1981 19.5878 39.1981 19.0132C39.1981 18.4388 38.7323 17.9729 38.1577 17.9729H9.68327L12.8174 9.35407C13.145 8.45301 14.0093 7.84766 14.9682 7.84766H48.0321C48.9909 7.84766 49.8551 8.45313 50.1828 9.35407L53.317 17.9729H49.2542C48.6797 17.9729 48.2138 18.4386 48.2138 19.0132C48.2138 19.5877 48.6796 20.0535 49.2542 20.0535H54.3023L57.4557 23.9955ZM56.9519 16.7941C56.9519 16.1439 57.4807 15.6151 58.1308 15.6151H59.2404C59.8906 15.6151 60.4194 16.1439 60.4194 16.7941C60.4194 17.4442 59.8906 17.973 59.2404 17.973H58.1308C57.4808 17.973 56.9519 17.4441 56.9519 16.7941Z" fill="#FF9927"/>
<path d="M11.5249 33.5083C10.3394 33.5083 9.375 34.4727 9.375 35.6582C9.375 36.8437 10.3394 37.8081 11.5249 37.8081C12.7104 37.8081 13.6748 36.8437 13.6748 35.6582C13.6748 34.4727 12.7104 33.5083 11.5249 33.5083Z" fill="#FF9927"/>
<path d="M51.4741 33.5083C50.2886 33.5083 49.3242 34.4727 49.3242 35.6582C49.3242 36.8437 50.2886 37.8081 51.4741 37.8081C52.6596 37.8081 53.624 36.8437 53.624 35.6582C53.624 34.4727 52.6595 33.5083 51.4741 33.5083Z" fill="#FF9927"/>
<path d="M10.9706 24.6309C8.8673 24.6309 7.15625 26.3419 7.15625 28.4452C7.15625 30.5485 8.8673 32.2595 10.9706 32.2595C13.0739 32.2595 14.7849 30.5485 14.7849 28.4452C14.7849 26.3419 13.0739 24.6309 10.9706 24.6309ZM10.9706 30.1789C10.0145 30.1789 9.23676 29.4012 9.23676 28.4451C9.23676 27.4889 10.0144 26.7113 10.9706 26.7113C11.9267 26.7113 12.7044 27.4889 12.7044 28.4451C12.7044 29.4012 11.9266 30.1789 10.9706 30.1789Z" fill="#FF9927"/>
<path d="M52.0253 24.6309C49.922 24.6309 48.2109 26.3419 48.2109 28.4452C48.2109 30.5485 49.922 32.2595 52.0253 32.2595C54.1285 32.2595 55.8396 30.5485 55.8396 28.4452C55.8396 26.3419 54.1285 24.6309 52.0253 24.6309ZM52.0253 30.1789C51.0692 30.1789 50.2914 29.4012 50.2914 28.4451C50.2914 27.4889 51.0691 26.7113 52.0253 26.7113C52.9813 26.7113 53.7591 27.4889 53.7591 28.4451C53.7591 29.4012 52.9814 30.1789 52.0253 30.1789Z" fill="#FF9927"/>
<path d="M59.2405 20.0535C61.0378 20.0535 62.5 18.5913 62.5 16.7941C62.5 14.9968 61.0378 13.5346 59.2405 13.5346H58.1309C56.5103 13.5346 55.1626 14.7237 54.9131 16.2751L52.138 8.64337C51.5126 6.92299 49.8624 5.76727 48.032 5.76727H40.1201L39.5345 2.83959C39.231 1.32119 37.8866 0.219238 36.3383 0.219238H26.6615C25.1132 0.219238 23.769 1.32119 23.4653 2.83959L22.8798 5.76727H14.9679C13.1375 5.76727 11.4873 6.92311 10.8619 8.64325L8.08689 16.2749C7.83755 14.7237 6.48978 13.5346 4.86918 13.5346H3.7596C1.96221 13.5346 0.5 14.9968 0.5 16.7941C0.5 18.5913 1.96221 20.0535 3.75948 20.0535H4.86906C5.38141 20.0535 5.86627 19.9344 6.29809 19.7228L3.91981 22.6958C3.14553 23.6636 2.71916 24.879 2.71916 26.1183V46.7537C2.71916 47.9393 3.68355 48.9036 4.86906 48.9036H8.19793C9.38344 48.9036 10.3478 47.9393 10.3478 46.7537V42.2459H52.6521V46.7537C52.6521 47.9393 53.6164 48.9036 54.8019 48.9036H58.1308C59.3163 48.9036 60.2807 47.9393 60.2807 46.7537V26.1183C60.2807 24.879 59.8543 23.6635 59.0801 22.6958L56.7018 19.7228C57.1336 19.9344 57.6185 20.0535 58.1308 20.0535H59.2405ZM4.86918 17.973H3.7596C3.10945 17.973 2.58063 17.4442 2.58063 16.7941C2.58063 16.1439 3.10945 15.6151 3.7596 15.6151H4.86918C5.51934 15.6151 6.04815 16.1439 6.04815 16.7941C6.04815 17.4441 5.51922 17.973 4.86918 17.973ZM25.5055 3.24743C25.6153 2.69827 26.1015 2.29963 26.6615 2.29963H36.3383C36.8984 2.29963 37.3846 2.69827 37.4943 3.24743L37.9983 5.76727H25.0015L25.5055 3.24743ZM8.26732 46.7537C8.26732 46.792 8.2362 46.8231 8.19793 46.8231H4.86906C4.8308 46.8231 4.79968 46.792 4.79968 46.7537V41.5966C5.46569 42.0078 6.24965 42.2459 7.08823 42.2459H8.2672V46.7537H8.26732ZM43.7752 40.1654H19.2248V37.8769C19.2248 37.8386 19.256 37.8075 19.2942 37.8075H43.7059C43.7442 37.8075 43.7753 37.8386 43.7753 37.8769V40.1654H43.7752ZM58.2002 46.7537C58.2002 46.792 58.1691 46.8231 58.1308 46.8231H54.8019C54.7637 46.8231 54.7326 46.792 54.7326 46.7537V42.2459H55.9115C56.7501 42.2459 57.5341 42.0078 58.2001 41.5966V46.7537H58.2002ZM57.4557 23.9955C57.9357 24.5958 58.2003 25.3497 58.2003 26.1184V37.8769C58.2003 39.1388 57.1737 40.1654 55.9118 40.1654H45.8557V37.8769C45.8557 36.6913 44.8913 35.727 43.7058 35.727H19.2942C18.1087 35.727 17.1443 36.6913 17.1443 37.8769V40.1654H7.08835C5.82643 40.1654 4.7998 39.1388 4.7998 37.8769V26.1184C4.7998 25.3497 5.06427 24.5958 5.54452 23.9955L8.69793 20.0535H38.1577C38.7322 20.0535 39.1981 19.5878 39.1981 19.0132C39.1981 18.4388 38.7323 17.9729 38.1577 17.9729H9.68327L12.8174 9.35407C13.145 8.45301 14.0093 7.84766 14.9682 7.84766H48.0321C48.9909 7.84766 49.8551 8.45313 50.1828 9.35407L53.317 17.9729H49.2542C48.6797 17.9729 48.2138 18.4386 48.2138 19.0132C48.2138 19.5877 48.6796 20.0535 49.2542 20.0535H54.3023L57.4557 23.9955ZM56.9519 16.7941C56.9519 16.1439 57.4807 15.6151 58.1308 15.6151H59.2404C59.8906 15.6151 60.4194 16.1439 60.4194 16.7941C60.4194 17.4442 59.8906 17.973 59.2404 17.973H58.1308C57.4808 17.973 56.9519 17.4441 56.9519 16.7941Z" fill="#FF9927"/>
</svg>
