<svg width="53" height="53" viewBox="0 0 53 53" fill="none" xmlns="http://www.w3.org/2000/svg">
<g clip-path="url(#clip0)">
<path d="M51.9844 49.5263H51.4948V34.5446C51.4948 34.1237 51.1536 33.7829 50.7331 33.7829C50.3122 33.7829 49.971 34.1237 49.971 34.5446V49.5263H41.7956V16.5177C41.7956 16.2368 42.0241 16.0083 42.305 16.0083H49.4616C49.7429 16.0083 49.9714 16.2368 49.9714 16.5177V30.9896C49.9714 31.4105 50.3122 31.7513 50.7331 31.7513C51.1536 31.7513 51.4948 31.4105 51.4948 30.9896V16.5177C51.4948 15.3965 50.5827 14.4849 49.4616 14.4849H42.305C41.1842 14.4849 40.2722 15.3965 40.2722 16.5177V49.5263H38.7364V24.5515C38.7364 23.4307 37.8247 22.5186 36.7036 22.5186H34.9028C34.4819 22.5186 34.1411 22.8598 34.1411 23.2803C34.1411 23.7013 34.4819 24.0421 34.9028 24.0421H36.7036C36.9845 24.0421 37.213 24.2706 37.213 24.5515V49.5263H29.0376V24.5515C29.0376 24.2706 29.2661 24.0421 29.547 24.0421H31.3477C31.7687 24.0421 32.1095 23.7013 32.1095 23.2803C32.1095 22.8598 31.7687 22.5186 31.3477 22.5186H29.547C28.4262 22.5186 27.5142 23.4307 27.5142 24.5515V49.5263H25.9784V32.5856C25.9784 31.4644 25.0663 30.5524 23.9456 30.5524H16.789C15.6678 30.5524 14.7558 31.4644 14.7558 32.5856V49.5263H13.22V40.6194C13.22 39.4986 12.3083 38.5865 11.1872 38.5865H4.03061C2.90945 38.5865 1.99777 39.4986 1.99777 40.6194V49.5263H1.50781C1.08688 49.5263 0.746094 49.8671 0.746094 50.288C0.746094 50.709 1.08688 51.0497 1.50781 51.0497H51.9844C52.4053 51.0497 52.7461 50.709 52.7461 50.288C52.7461 49.8671 52.4049 49.5263 51.9844 49.5263ZM3.52121 49.5263V40.6194C3.52121 40.3385 3.74973 40.11 4.03061 40.11H11.1872C11.4681 40.11 11.6966 40.3385 11.6966 40.6194V49.5263H3.52121ZM16.2792 49.5263V32.5856C16.2792 32.3043 16.5077 32.0758 16.789 32.0758H23.9456C24.2265 32.0758 24.455 32.3043 24.455 32.5856V49.5263H16.2792Z" fill="white"/>
<path d="M5.89723 31.2657C6.4459 32.0965 7.56745 32.3254 8.39741 31.7771L43.6087 8.52405L43.9863 9.09613C44.537 9.93045 45.8002 9.80231 46.1727 8.87515L47.8049 4.81305C48.1278 4.00928 47.5466 3.12854 46.6805 3.10989L42.3034 3.01627C42.2943 3.01587 42.2856 3.01587 42.2764 3.01587C41.289 3.01587 40.6979 4.11719 41.2418 4.94L41.6195 5.51248L6.40861 28.7655C5.57627 29.315 5.34696 30.4334 5.89723 31.2657ZM7.24809 30.0367L43.0945 6.36386C43.2631 6.25238 43.3805 6.07861 43.421 5.88065C43.4619 5.68268 43.4218 5.47678 43.3107 5.30856L42.8104 4.55081L46.2386 4.6246L44.9603 7.80637L44.46 7.04901C44.2279 6.69791 43.7554 6.6011 43.4043 6.83279L7.55793 30.506C7.4286 30.5913 7.25404 30.5556 7.16834 30.4262C7.08265 30.2965 7.11875 30.1223 7.24809 30.0367Z" fill="white"/>
</g>
<defs>
<clipPath id="clip0">
<rect width="52" height="52" fill="white" transform="translate(0.746094 0.984619)"/>
</clipPath>
</defs>
</svg>
