<svg width="59" height="58" viewBox="0 0 59 58" fill="none" xmlns="http://www.w3.org/2000/svg">
<g clip-path="url(#clip0)">
<path d="M57.2123 55.1293C52.876 55.1293 49.3479 51.662 49.3479 47.4005C49.3479 47.3918 49.3429 47.3841 49.3429 47.3754C54.213 42.3468 57.2123 35.5522 57.2123 28.0785C57.2123 12.6305 44.4228 0.0615234 28.7038 0.0615234C12.9848 0.0615234 0.195312 12.6305 0.195312 28.0785C0.195312 43.5264 12.9848 56.0954 28.7038 56.0954C35.9194 56.0954 42.5137 53.4415 47.541 49.0815C48.354 53.6087 52.3766 57.0615 57.2123 57.0615C57.7559 57.0615 58.1953 56.6297 58.1953 56.0954C58.1953 55.5612 57.7559 55.1293 57.2123 55.1293ZM2.16141 28.0785C2.16141 13.6952 14.0681 1.99373 28.7038 1.99373C43.3394 1.99373 55.2462 13.6952 55.2462 28.0785C55.2462 42.4618 43.3394 54.1632 28.7038 54.1632C14.0681 54.1632 2.16141 42.4618 2.16141 28.0785Z" fill="#FF9927"/>
<path d="M28.7052 3.92578C15.1538 3.92578 4.12891 14.7606 4.12891 28.0783C4.12891 41.396 15.1538 52.2309 28.7052 52.2309C42.2565 52.2309 53.2815 41.396 53.2815 28.0783C53.2815 14.7606 42.2565 3.92578 28.7052 3.92578ZM28.7052 50.2987C16.2371 50.2987 6.09501 40.3314 6.09501 28.0783C6.09501 15.8253 16.2371 5.85798 28.7052 5.85798C41.1732 5.85798 51.3154 15.8253 51.3154 28.0783C51.3154 40.3314 41.1732 50.2987 28.7052 50.2987Z" fill="#FF9927"/>
<path d="M40.4986 21.3159C40.1722 21.3159 39.8537 21.3459 39.5391 21.3893L39.5165 21.3497L38.7792 21.5352C38.7694 21.5381 38.7605 21.542 38.7507 21.5449C38.3879 21.6386 38.036 21.7574 37.6988 21.9062C37.6841 21.913 37.6703 21.9207 37.6556 21.9265C37.3253 22.0743 37.0077 22.2434 36.7079 22.4395C36.7 22.4443 36.6912 22.4492 36.6843 22.454C36.4071 22.6366 36.1476 22.8424 35.9008 23.0617C35.8507 23.1061 35.8005 23.1496 35.7514 23.195C35.5233 23.4095 35.309 23.6384 35.1124 23.8819C35.0701 23.9341 35.0318 23.9882 34.9905 24.0413C34.7949 24.2983 34.612 24.564 34.4547 24.847C34.4518 24.8528 34.4479 24.8586 34.4449 24.8654C34.2866 25.1523 34.1559 25.4557 34.0399 25.7658C34.0193 25.8209 33.9976 25.8759 33.978 25.932C33.8738 26.2363 33.7922 26.5503 33.7322 26.872C33.7214 26.9319 33.7135 26.9927 33.7037 27.0536C33.6526 27.3888 33.6172 27.7289 33.6172 28.0786C33.6172 28.4284 33.6526 28.7684 33.7047 29.1046C33.7145 29.1655 33.7214 29.2254 33.7332 29.2863C33.7922 29.608 33.8747 29.922 33.979 30.2263C33.9976 30.2823 34.0202 30.3364 34.0409 30.3915C34.1559 30.7016 34.2876 31.005 34.4459 31.2919C34.4488 31.2977 34.4528 31.3035 34.4557 31.3102C34.613 31.5933 34.7959 31.859 34.9905 32.115C35.0308 32.1681 35.0701 32.2222 35.1124 32.2754C35.309 32.5188 35.5223 32.7478 35.7514 32.9623C35.8005 33.0077 35.8507 33.0512 35.9008 33.0956C36.1485 33.3149 36.4071 33.5207 36.6853 33.7033C36.6932 33.7081 36.701 33.7129 36.7089 33.7178C37.0087 33.9129 37.3262 34.082 37.6565 34.2308C37.6713 34.2375 37.6851 34.2453 37.6998 34.2511C38.037 34.3998 38.3879 34.5187 38.7507 34.6124C38.7605 34.6153 38.7694 34.6191 38.7792 34.622L39.5165 34.8075L39.5391 34.7679C39.8537 34.8114 40.1722 34.8413 40.4986 34.8413C44.2921 34.8413 47.3799 31.8068 47.3799 28.0786C47.3799 24.3504 44.2921 21.3159 40.4986 21.3159ZM39.5155 28.0786C39.5155 29.6041 39.1773 31.118 38.5334 32.5005C38.2877 32.3942 38.0537 32.2676 37.8315 32.1256C37.7519 32.0754 37.6801 32.0174 37.6035 31.9624C37.4432 31.8464 37.2889 31.7228 37.1434 31.5894C37.0765 31.5286 37.0107 31.4668 36.9488 31.403C36.7836 31.232 36.6302 31.0504 36.4906 30.8581C36.4661 30.8233 36.4366 30.7934 36.412 30.7576C36.2557 30.5287 36.124 30.2833 36.009 30.0292C35.9765 29.9567 35.951 29.8804 35.9215 29.806C35.8448 29.6099 35.7799 29.408 35.7298 29.2003C35.7091 29.1172 35.6875 29.0341 35.6718 28.9491C35.6197 28.666 35.5833 28.3762 35.5833 28.0786C35.5833 27.7811 35.6197 27.4912 35.6727 27.2082C35.6885 27.1232 35.7101 27.0401 35.7308 26.957C35.7809 26.7493 35.8458 26.5474 35.9224 26.3512C35.9519 26.2769 35.9775 26.2005 36.0099 26.1281C36.125 25.874 36.2567 25.6286 36.413 25.3996C36.4366 25.3648 36.4671 25.3339 36.4916 25.2992C36.6302 25.1059 36.7836 24.9243 36.9497 24.7543C37.0126 24.6895 37.0785 24.6287 37.1444 24.5678C37.2889 24.4335 37.4432 24.3108 37.6044 24.1949C37.6801 24.1408 37.7529 24.0828 37.8325 24.0316C38.0557 23.8896 38.2886 23.7631 38.5344 23.6568C39.1773 25.0393 39.5155 26.5532 39.5155 28.0786ZM40.4986 32.9091C40.4936 32.9091 40.4897 32.9082 40.4848 32.9082C41.1326 31.3817 41.4816 29.7384 41.4816 28.0786C41.4816 26.4189 41.1326 24.7755 40.4848 23.2491C40.4897 23.2491 40.4936 23.2481 40.4986 23.2481C43.2088 23.2481 45.4138 25.4151 45.4138 28.0786C45.4138 30.7422 43.2088 32.9091 40.4986 32.9091Z" fill="#FF9927"/>
<path d="M22.2948 32.2754C22.3371 32.2232 22.3755 32.1691 22.4167 32.116C22.6114 31.86 22.7942 31.5943 22.9515 31.3122C22.9554 31.3054 22.9594 31.2986 22.9633 31.2909C23.1216 31.004 23.2523 30.7016 23.3673 30.3915C23.388 30.3364 23.4096 30.2823 23.4293 30.2263C23.5335 29.922 23.6161 29.608 23.675 29.2853C23.6859 29.2254 23.6937 29.1645 23.7036 29.1046C23.7547 28.7694 23.7901 28.4284 23.7901 28.0786C23.7901 27.7289 23.7547 27.3879 23.7026 27.0526C23.6927 26.9918 23.6859 26.9319 23.6741 26.872C23.6151 26.5503 23.5325 26.2363 23.4283 25.931C23.4096 25.875 23.387 25.8208 23.3664 25.7648C23.2513 25.4547 23.1206 25.1523 22.9623 24.8663C22.9584 24.8596 22.9545 24.8528 22.9505 24.8451C22.7932 24.563 22.6104 24.2963 22.4158 24.0403C22.3754 23.9872 22.3361 23.9331 22.2948 23.8809C22.0982 23.6375 21.8849 23.4085 21.6559 23.194C21.6067 23.1486 21.5566 23.1051 21.5064 23.0607C21.2587 22.8414 21.0002 22.6356 20.722 22.453C20.7141 22.4482 20.7062 22.4443 20.6984 22.4395C20.3985 22.2443 20.081 22.0753 19.7507 21.9265C19.736 21.9197 19.7212 21.912 19.7065 21.9052C19.3693 21.7574 19.0173 21.6376 18.6546 21.5439C18.6448 21.541 18.6359 21.5372 18.6271 21.5343L17.8898 21.3488L17.8672 21.3884C17.5536 21.3459 17.2351 21.3159 16.9087 21.3159C13.1151 21.3159 10.0273 24.3504 10.0273 28.0786C10.0273 31.8068 13.1151 34.8413 16.9087 34.8413C17.2351 34.8413 17.5536 34.8114 17.8682 34.7679L17.8908 34.8075L18.6281 34.622C18.6379 34.6191 18.6467 34.6153 18.6566 34.6124C19.0193 34.5187 19.3712 34.3998 19.7074 34.2511C19.7222 34.2443 19.7369 34.2366 19.7517 34.2298C20.082 34.082 20.3995 33.912 20.6993 33.7168C20.7072 33.712 20.7151 33.7081 20.722 33.7033C21.0002 33.5207 21.2587 33.3149 21.5064 33.0956C21.5566 33.0512 21.6067 33.0077 21.6559 32.9623C21.8839 32.7478 22.0982 32.5188 22.2948 32.2754ZM21.7345 28.9491C21.7188 29.0341 21.6971 29.1172 21.6765 29.2003C21.6264 29.408 21.5615 29.6099 21.4848 29.806C21.4553 29.8804 21.4298 29.9567 21.3973 30.0292C21.2823 30.2833 21.1506 30.5287 20.9943 30.7576C20.9707 30.7924 20.9402 30.8233 20.9156 30.8581C20.777 31.0513 20.6237 31.233 20.4575 31.403C20.3946 31.4677 20.3287 31.5286 20.2629 31.5894C20.1184 31.7237 19.964 31.8464 19.8028 31.9624C19.7271 32.0165 19.6544 32.0744 19.5747 32.1256C19.3516 32.2676 19.1186 32.3942 18.8728 32.5005C18.2299 31.118 17.8918 29.6041 17.8918 28.0786C17.8918 26.5532 18.2299 25.0393 18.8738 23.6568C19.1196 23.7631 19.3535 23.8896 19.5757 24.0316C19.6553 24.0819 19.7271 24.1398 19.8038 24.1949C19.964 24.3108 20.1184 24.4345 20.2639 24.5678C20.3307 24.6287 20.3966 24.6905 20.4585 24.7543C20.6237 24.9253 20.777 25.1069 20.9166 25.2992C20.9412 25.3339 20.9707 25.3639 20.9952 25.3996C21.1516 25.6286 21.2833 25.874 21.3983 26.1281C21.4307 26.2005 21.4563 26.2769 21.4858 26.3512C21.5625 26.5474 21.6273 26.7493 21.6775 26.957C21.6981 27.0401 21.7198 27.1232 21.7355 27.2082C21.7876 27.4912 21.824 27.7811 21.824 28.0786C21.824 28.3762 21.7876 28.666 21.7345 28.9491ZM11.9934 28.0786C11.9934 25.4151 14.1984 23.2481 16.9087 23.2481C16.9136 23.2481 16.9175 23.2491 16.9225 23.2491C16.2746 24.7755 15.9257 26.4189 15.9257 28.0786C15.9257 29.7384 16.2746 31.3817 16.9225 32.9082C16.9175 32.9082 16.9136 32.9091 16.9087 32.9091C14.1984 32.9091 11.9934 30.7422 11.9934 28.0786Z" fill="#FF9927"/>
<path d="M21.8586 17.4503L22.0474 18.1748C22.0503 18.1845 22.0543 18.1932 22.0572 18.2029C22.1526 18.5593 22.2735 18.9052 22.4249 19.2356C22.4317 19.2501 22.4396 19.2636 22.4455 19.2781C22.5959 19.6027 22.7689 19.9148 22.9675 20.2094C22.9724 20.2172 22.9773 20.2249 22.9823 20.2326C23.168 20.5051 23.3774 20.7601 23.6006 21.0036C23.6458 21.0529 23.69 21.1021 23.7363 21.1504C23.9545 21.3746 24.1875 21.5852 24.4352 21.7784C24.4883 21.8199 24.5433 21.8586 24.5974 21.8982C24.8589 22.0905 25.1292 22.2701 25.4173 22.4247C25.4232 22.4286 25.4291 22.4315 25.4359 22.4344C25.7279 22.5899 26.0366 22.7184 26.3522 22.8324C26.4082 22.8527 26.4632 22.874 26.5203 22.8933C26.8299 22.9957 27.1494 23.0759 27.4768 23.1348C27.5377 23.1454 27.5996 23.1532 27.6616 23.1628C28.0037 23.2131 28.3497 23.2478 28.7056 23.2478C29.0614 23.2478 29.4075 23.2131 29.7496 23.1619C29.8115 23.1522 29.8725 23.1454 29.9344 23.1338C30.2617 23.0759 30.5812 22.9947 30.8909 22.8923C30.9479 22.874 31.003 22.8517 31.06 22.8315C31.3755 22.7184 31.6842 22.589 31.9762 22.4334C31.9821 22.4305 31.988 22.4267 31.9949 22.4238C32.2829 22.2692 32.5532 22.0895 32.8147 21.8972C32.8688 21.8576 32.9238 21.819 32.9769 21.7774C33.2247 21.5842 33.4576 21.3746 33.6759 21.1495C33.7221 21.1012 33.7663 21.0519 33.8115 21.0026C34.0347 20.7601 34.2441 20.5051 34.4299 20.2326C34.4348 20.2249 34.4397 20.2172 34.4446 20.2094C34.6432 19.9148 34.8152 19.6027 34.9666 19.2781C34.9735 19.2636 34.9814 19.2501 34.9873 19.2356C35.1377 18.9042 35.2596 18.5584 35.3549 18.2019C35.3579 18.1922 35.3618 18.1835 35.3648 18.1739L35.5535 17.4493L35.5132 17.4271C35.5565 17.1189 35.5869 16.8059 35.5869 16.4851C35.5869 12.7569 32.4992 9.72241 28.7056 9.72241C24.912 9.72241 21.8242 12.7569 21.8242 16.4851C21.8242 16.8059 21.8547 17.1189 21.8989 17.428L21.8586 17.4503ZM32.8236 19.1062C32.7725 19.1844 32.7135 19.2549 32.6574 19.3293C32.5395 19.4868 32.4136 19.6385 32.278 19.7815C32.216 19.8462 32.1531 19.9119 32.0883 19.9728C31.9143 20.1351 31.7294 20.2858 31.5338 20.423C31.4984 20.4471 31.4679 20.4761 31.4316 20.5002C31.1986 20.6539 30.9489 20.7833 30.6904 20.8963C30.6166 20.9282 30.539 20.9533 30.4633 20.9823C30.2637 21.0577 30.0583 21.1215 29.8469 21.1707C29.7624 21.191 29.6778 21.2123 29.5913 21.2277C29.3033 21.2799 29.0084 21.3156 28.7056 21.3156C28.4028 21.3156 28.1079 21.2799 27.8198 21.2277C27.7333 21.2123 27.6488 21.191 27.5643 21.1707C27.3529 21.1215 27.1474 21.0577 26.9479 20.9823C26.8722 20.9533 26.7955 20.9282 26.7208 20.8963C26.4623 20.7833 26.2126 20.6539 25.9796 20.5002C25.9442 20.4771 25.9127 20.4471 25.8773 20.423C25.6807 20.2867 25.4959 20.1351 25.3229 19.9728C25.257 19.9109 25.1951 19.8462 25.1332 19.7815C24.9975 19.6395 24.8717 19.4878 24.7537 19.3293C24.6987 19.2549 24.6397 19.1834 24.5876 19.1062C24.4431 18.8869 24.3133 18.6579 24.2062 18.4164C27.0187 17.1508 30.3915 17.1508 33.205 18.4164C33.0969 18.6579 32.9681 18.8878 32.8236 19.1062ZM28.7056 11.6546C31.4158 11.6546 33.6208 13.8216 33.6208 16.4851C33.6208 16.4909 33.6189 16.4967 33.6189 16.5025C30.5075 15.2447 26.9027 15.2447 23.7923 16.5025C23.7923 16.4967 23.7903 16.4909 23.7903 16.4851C23.7903 13.8216 25.9953 11.6546 28.7056 11.6546Z" fill="#FF9927"/>
<path d="M35.5525 38.7065L35.3638 37.9819C35.3608 37.9723 35.3569 37.9636 35.3539 37.9549C35.2586 37.5984 35.1367 37.2525 34.9863 36.9212C34.9794 36.9067 34.9715 36.8922 34.9647 36.8777C34.8143 36.5531 34.6412 36.241 34.4427 35.9464C34.4377 35.9386 34.4338 35.9309 34.4289 35.9232C34.2431 35.6498 34.0337 35.3957 33.8106 35.1522C33.7653 35.103 33.7211 35.0537 33.6749 35.0054C33.4567 34.7803 33.2237 34.5706 32.9759 34.3774C32.9229 34.3359 32.8678 34.2982 32.8137 34.2586C32.5532 34.0673 32.2829 33.8876 31.9949 33.733C31.988 33.7292 31.9811 33.7253 31.9732 33.7214C31.6813 33.5659 31.3736 33.4374 31.059 33.3244C31.003 33.3041 30.9469 33.2828 30.8899 33.2635C30.5803 33.1611 30.2608 33.0809 29.9324 33.022C29.8715 33.0113 29.8105 33.0036 29.7486 32.994C29.4085 32.9437 29.0614 32.9089 28.7056 32.9089C28.3497 32.9089 28.0027 32.9437 27.6616 32.9949C27.5996 33.0046 27.5387 33.0113 27.4777 33.0229C27.1504 33.0819 26.8309 33.1621 26.5203 33.2645C26.4632 33.2828 26.4082 33.305 26.3522 33.3253C26.0366 33.4384 25.7289 33.5669 25.4369 33.7224C25.43 33.7263 25.4232 33.7301 25.4153 33.734C25.1283 33.8886 24.8579 34.0673 24.5974 34.2595C24.5433 34.2992 24.4883 34.3378 24.4352 34.3793C24.1875 34.5726 23.9545 34.7822 23.7363 35.0073C23.69 35.0556 23.6458 35.1049 23.6006 35.1542C23.3774 35.3967 23.168 35.6517 22.9823 35.9251C22.9773 35.9328 22.9734 35.9406 22.9685 35.9483C22.7699 36.243 22.5969 36.555 22.4465 36.8796C22.4396 36.8941 22.4317 36.9086 22.4249 36.9231C22.2745 37.2545 22.1526 37.5994 22.0572 37.9559C22.0543 37.9655 22.0493 37.9742 22.0474 37.9839L21.8586 38.7084L21.8989 38.7307C21.8547 39.0379 21.8242 39.3509 21.8242 39.6717C21.8242 43.3998 24.912 46.4344 28.7056 46.4344C32.4992 46.4344 35.5869 43.3998 35.5869 39.6717C35.5869 39.3509 35.5565 39.0379 35.5122 38.7287L35.5525 38.7065ZM24.5876 37.0506C24.6387 36.9724 24.6977 36.9018 24.7537 36.8274C24.8717 36.67 24.9975 36.5183 25.1332 36.3753C25.1951 36.3106 25.258 36.2449 25.3229 36.184C25.4969 36.0217 25.6817 35.871 25.8773 35.7338C25.9127 35.7097 25.9432 35.6807 25.9796 35.6565C26.2126 35.5029 26.4623 35.3735 26.7208 35.2604C26.7945 35.2285 26.8722 35.2034 26.9479 35.1744C27.1474 35.0991 27.3529 35.0353 27.5643 34.9861C27.6488 34.9658 27.7333 34.9445 27.8198 34.9291C28.1079 34.8769 28.4028 34.8411 28.7056 34.8411C29.0084 34.8411 29.3033 34.8769 29.5913 34.9291C29.6778 34.9445 29.7624 34.9658 29.8469 34.9861C30.0583 35.0353 30.2637 35.0991 30.4633 35.1744C30.539 35.2034 30.6156 35.2285 30.6904 35.2604C30.9489 35.3735 31.1986 35.5029 31.4316 35.6565C31.467 35.6797 31.4984 35.7097 31.5338 35.7338C31.7304 35.87 31.9152 36.0217 32.0883 36.184C32.1541 36.2459 32.216 36.3106 32.278 36.3753C32.4136 36.5173 32.5395 36.669 32.6574 36.8274C32.7125 36.9018 32.7715 36.9733 32.8236 37.0506C32.9681 37.2699 33.0978 37.4989 33.205 37.7404C30.3925 39.006 27.0196 39.006 24.2062 37.7404C24.3143 37.4989 24.4431 37.269 24.5876 37.0506ZM28.7056 44.5022C25.9953 44.5022 23.7903 42.3352 23.7903 39.6717C23.7903 39.6668 23.7913 39.663 23.7913 39.6581C25.3445 40.2948 27.0167 40.6378 28.7056 40.6378C30.3945 40.6378 32.0666 40.2948 33.6198 39.6581C33.6198 39.663 33.6208 39.6668 33.6208 39.6717C33.6208 42.3352 31.4158 44.5022 28.7056 44.5022Z" fill="#FF9927"/>
</g>
<defs>
<clipPath id="clip0">
<rect width="58" height="57" fill="white" transform="translate(0.195312 0.0615234)"/>
</clipPath>
</defs>
</svg>
