<svg width="54" height="54" viewBox="0 0 54 54" fill="none" xmlns="http://www.w3.org/2000/svg">
<g clip-path="url(#clip0)">
<path d="M51.741 24.3769H48.6V18.8401C48.6 17.5098 47.4966 16.4269 46.1412 16.4269H43.2V14.2945L42.7545 13.8572C42.7536 13.8572 42.7536 13.8564 42.7536 13.8555L36.1872 7.41067L29.1726 0.526855H7.2V10.2435H2.4588C1.1034 10.2435 0 11.3265 0 12.6568V51.247H0.0054C0.0009 51.7443 0.1584 52.231 0.4752 52.6382C0.9162 53.2036 1.584 53.5269 2.3085 53.5269H42.5916C43.632 53.5269 44.5482 52.8387 44.7966 51.9254L54 27.1585V27.0021C54 25.481 53.0496 24.3769 51.741 24.3769ZM46.1412 18.1935C46.5039 18.1935 46.8 18.4833 46.8 18.8401V24.3769H43.2V18.1935H46.1412ZM29.7 3.54344L40.1274 13.7769H29.7V3.54344ZM9 2.29352H27.9V15.5435H41.4V16.4269V24.3769H11.4579C11.3292 24.3769 11.2023 24.3875 11.0781 24.4078C10.2015 24.5509 9.4707 25.178 9.2529 25.9783L9 26.6603V10.2435V2.29352ZM1.8 12.6568C1.8 12.2999 2.0961 12.0102 2.4588 12.0102H7.2V31.4744L1.8 45.9293V12.6568ZM43.0821 51.3918C43.0227 51.6083 42.8211 51.7602 42.5916 51.7602H2.3085C2.0898 51.7602 1.962 51.6374 1.9053 51.5641C1.8486 51.4917 1.7613 51.338 1.7946 51.2037L7.2 36.6534V36.6578L10.944 26.5843L10.9674 26.5119C11.0268 26.2955 11.2293 26.1435 11.4579 26.1435H41.4H43.2H48.6H51.741C52.083 26.1435 52.1703 26.6258 52.1928 26.867L43.0821 51.3918Z" fill="black"/>
<path d="M14.4 15.5435H23.4C23.8968 15.5435 24.3 15.1487 24.3 14.6602C24.3 14.1717 23.8968 13.7769 23.4 13.7769H14.4C13.9032 13.7769 13.5 14.1717 13.5 14.6602C13.5 15.1487 13.9032 15.5435 14.4 15.5435Z" fill="black"/>
<path d="M14.4 9.36017H23.4C23.8968 9.36017 24.3 8.96532 24.3 8.47684C24.3 7.98836 23.8968 7.59351 23.4 7.59351H14.4C13.9032 7.59351 13.5 7.98836 13.5 8.47684C13.5 8.96532 13.9032 9.36017 14.4 9.36017Z" fill="black"/>
<path d="M14.4 21.7269H36C36.4968 21.7269 36.9 21.332 36.9 20.8435C36.9 20.3551 36.4968 19.9602 36 19.9602H14.4C13.9032 19.9602 13.5 20.3551 13.5 20.8435C13.5 21.332 13.9032 21.7269 14.4 21.7269Z" fill="black"/>
</g>
<defs>
<clipPath id="clip0">
<rect width="54" height="53" fill="white" transform="translate(0 0.526855)"/>
</clipPath>
</defs>
</svg>
