<svg width="58" height="58" viewBox="0 0 58 58" fill="none" xmlns="http://www.w3.org/2000/svg">
<g clip-path="url(#clip0)">
<path d="M56.3874 37.7515H54.5452C54.2661 36.78 53.8803 35.8467 53.392 34.9617L54.6931 33.661C54.9014 33.4523 55.0188 33.1692 55.0188 32.8743C55.0188 32.5791 54.9014 32.296 54.6931 32.0877L50.9219 28.3164C50.4874 27.882 49.7834 27.882 49.3485 28.3164L48.0517 29.6132C47.1654 29.1223 46.2309 28.7344 45.2581 28.4534V26.6222C45.2581 26.0077 44.7597 25.5098 44.1457 25.5098H38.8124C38.1979 25.5098 37.7 26.0077 37.7 26.6222V28.4491C36.725 28.7291 35.7887 29.1166 34.9007 29.6076L33.6096 28.3164C33.4008 28.1077 33.1181 27.9907 32.8229 27.9907C32.7272 27.9907 32.6328 28.0042 32.5415 28.0281V22.8157C32.5415 22.2012 32.0436 21.7029 31.4291 21.7029H29.587C29.3078 20.7318 28.922 19.7986 28.4337 18.9136L29.7348 17.6125C30.1693 17.178 30.1693 16.4735 29.7348 16.0391L25.9636 12.2683C25.5292 11.8339 24.8251 11.8339 24.3902 12.2683L23.0934 13.5651C22.2072 13.0741 21.2726 12.6858 20.2998 12.4053V10.5736C20.2998 9.95911 19.8014 9.46118 19.1874 9.46118H13.8541C13.2401 9.46118 12.7417 9.95911 12.7417 10.5736V12.4005C11.7667 12.6806 10.8304 13.0685 9.94241 13.5594L8.65127 12.2683C8.44253 12.0596 8.15987 11.9421 7.86459 11.9421C7.56974 11.9421 7.28664 12.0596 7.0779 12.2683L3.30668 16.0391C2.87224 16.4735 2.87224 17.178 3.30668 17.6125L4.59782 18.9036C4.10728 19.7916 3.71937 20.7283 3.43931 21.7029H1.61241C0.998365 21.7029 0.5 22.2012 0.5 22.8157V28.1486C0.5 28.7631 0.998365 29.261 1.61241 29.261H3.44366C3.72459 30.2338 4.1125 31.1688 4.60347 32.0546L3.30668 33.3514C3.09837 33.5601 2.98095 33.8432 2.98095 34.1381C2.98095 34.4334 3.09837 34.716 3.30668 34.9248L7.0779 38.696C7.51234 39.1304 8.21684 39.1304 8.65127 38.696L9.95242 37.3949C10.8374 37.8832 11.7706 38.269 12.7417 38.5481V40.3903C12.7417 41.0047 13.2401 41.5027 13.8541 41.5027H19.1874C19.8019 41.5027 20.2998 41.0047 20.2998 40.3903V38.5438C21.2691 38.2637 22.2006 37.8776 23.0839 37.3892L24.3902 38.696C24.599 38.9043 24.8821 39.0217 25.1769 39.0217C25.273 39.0217 25.367 39.0082 25.4583 38.9843V44.1967C25.4583 44.8112 25.9566 45.3096 26.5707 45.3096H28.4019C28.6829 46.2824 29.0708 47.2169 29.5617 48.1032L28.265 49.4C28.0566 49.6083 27.9392 49.8914 27.9392 50.1867C27.9392 50.4815 28.0566 50.7646 28.265 50.9734L32.0362 54.7441C32.4706 55.1786 33.1751 55.1786 33.6096 54.7441L34.9107 53.443C35.7957 53.9314 36.7289 54.3171 37.7 54.5963V56.4384C37.7 57.0529 38.1983 57.5508 38.8124 57.5508H44.1457C44.7601 57.5508 45.2581 57.0529 45.2581 56.4384V54.5919C46.2274 54.3123 47.1589 53.9262 48.0421 53.4378L49.3485 54.7441C49.7829 55.1786 50.4874 55.179 50.9219 54.7441L54.6931 50.9734C54.9018 50.7646 55.0188 50.4815 55.0188 50.1867C55.0188 49.8914 54.9018 49.6083 54.6931 49.4L53.3867 48.0932C53.8751 47.21 54.2608 46.2785 54.5409 45.3096H56.3874C57.0018 45.3096 57.5002 44.8112 57.5002 44.1967V38.8639C57.4998 38.2494 57.0014 37.7515 56.3874 37.7515ZM29.3826 35.277C28.9729 36.0676 28.6437 36.8948 28.3976 37.7515H26.9081L29.3826 35.277ZM28.5663 31.7859C28.9895 30.98 29.3295 30.1359 29.5822 29.261H31.0916L28.5663 31.7859ZM24.0449 35.2035C23.6744 34.8335 23.0969 34.7713 22.6564 35.0544C21.5183 35.7858 20.2711 36.3029 18.95 36.5912C18.439 36.7025 18.0746 37.1552 18.0746 37.678V39.2774H14.9669V37.6814C14.9669 37.1579 14.6017 36.7052 14.0898 36.5943C12.7669 36.3072 11.518 35.791 10.3782 35.06C9.93807 34.7774 9.36055 34.8395 8.99048 35.2096L7.86459 36.3359L5.66674 34.1381L6.79001 33.0152C7.16009 32.6452 7.22228 32.0664 6.93874 31.6263C6.2038 30.4856 5.685 29.2358 5.39624 27.9116C5.28448 27.4006 4.83221 27.0362 4.30906 27.0362H2.72525V23.9281H4.30602C4.8296 23.9281 5.28231 23.5628 5.3932 23.0514C5.68065 21.7255 6.19859 20.4735 6.93309 19.3311C7.21576 18.8905 7.15357 18.313 6.78349 17.943L5.66674 16.8258L7.86459 14.6284L8.98134 15.7451C9.35142 16.1152 9.92937 16.1769 10.3699 15.8943C11.5123 15.1598 12.7639 14.6418 14.0898 14.3544C14.6017 14.2435 14.9669 13.7908 14.9669 13.2668V11.6864H18.0746V13.2702C18.0746 13.7934 18.439 14.2461 18.95 14.3574C20.2741 14.6462 21.524 15.165 22.6651 15.8999C23.1052 16.183 23.6836 16.1213 24.0541 15.7512L25.1769 14.6284L27.3748 16.8258L26.2484 17.9521C25.8788 18.3217 25.8162 18.8992 26.0984 19.3393C26.8299 20.4796 27.3461 21.7281 27.6331 23.051C27.744 23.5628 28.1967 23.9281 28.7203 23.9281H30.3162V27.0357H28.7168C28.1941 27.0357 27.7414 27.4002 27.63 27.9116C27.3417 29.2327 26.8246 30.4795 26.0932 31.6176C25.8101 32.0577 25.8723 32.636 26.2424 33.0061L27.3748 34.1381L25.1769 36.3359L24.0449 35.2035ZM55.2745 43.0843H53.6751C53.1523 43.0843 52.6996 43.4487 52.5883 43.9597C52.3 45.2809 51.7829 46.5276 51.0515 47.6661C50.7684 48.1062 50.8306 48.6842 51.2006 49.0543L52.333 50.1867L50.1352 52.3841L49.0028 51.2521C48.6327 50.882 48.0552 50.8198 47.6147 51.103C46.4762 51.8344 45.2294 52.3515 43.9082 52.6394C43.3973 52.7511 43.0328 53.2034 43.0328 53.7265V55.326H39.9248V53.73C39.9248 53.2064 39.5599 52.7537 39.0481 52.6428C37.7252 52.3558 36.4762 51.8396 35.3364 51.1082C34.8963 50.8259 34.3188 50.8881 33.9487 51.2582L32.8229 52.3841L30.625 50.1867L31.7479 49.0638C32.1184 48.6933 32.1801 48.1149 31.8966 47.6744C31.1621 46.5337 30.6433 45.2839 30.3545 43.9597C30.2428 43.4487 29.7905 43.0843 29.2673 43.0843H27.6831V39.9763H29.2639C29.7874 39.9763 30.2401 39.6114 30.351 39.0996C30.6385 37.7736 31.1569 36.5216 31.8909 35.3792C32.174 34.9391 32.1118 34.3607 31.7418 33.9911L30.625 32.8739L32.8229 30.6765L33.9396 31.7933C34.3097 32.1633 34.8876 32.2255 35.3277 31.9424C36.4701 31.2083 37.7221 30.69 39.0481 30.4025C39.5599 30.2916 39.9248 29.8389 39.9248 29.3153V27.7346H43.0328V29.3188C43.0328 29.842 43.3973 30.2942 43.9082 30.4056C45.2324 30.6948 46.4822 31.2136 47.6229 31.9481C48.063 32.2316 48.6418 32.1699 49.0119 31.7993L50.1352 30.6765L52.3326 32.8743L51.2067 34.0002C50.8371 34.3699 50.7745 34.9474 51.0567 35.3875C51.7881 36.5277 52.3043 37.7767 52.5914 39.0996C52.7022 39.6114 53.1549 39.9763 53.6785 39.9763H55.2745V43.0843Z" fill="black"/>
<path d="M36.7614 37.9227C37.0462 37.9227 37.3306 37.814 37.5481 37.5966L37.5616 37.5831C37.9982 37.1508 38.0012 36.4463 37.5689 36.0097C37.1362 35.5731 36.4318 35.5701 35.9956 36.0023L35.9743 36.0232C35.5398 36.4576 35.5398 37.1621 35.9743 37.597C36.1917 37.814 36.4765 37.9227 36.7614 37.9227Z" fill="black"/>
<path d="M39.5793 33.9759C38.983 34.125 38.6208 34.7291 38.77 35.3253C38.9191 35.9215 39.5236 36.2833 40.1189 36.1346C42.0363 35.6545 44.0141 36.2016 45.4092 37.5966C47.5784 39.7658 47.5784 43.2948 45.4092 45.4635C44.3585 46.5146 42.9617 47.093 41.4758 47.093C39.9902 47.093 38.593 46.5146 37.5423 45.4635C36.2338 44.155 35.6628 42.2868 36.015 40.4668C36.132 39.8636 35.7376 39.2796 35.134 39.1631C34.5308 39.0465 33.9472 39.4405 33.8306 40.0437C33.3371 42.5908 34.1368 45.2048 35.9689 47.0369C37.4401 48.5081 39.3957 49.3183 41.4758 49.3183C43.5562 49.3183 45.5118 48.5081 46.9826 47.0369C50.0193 44.0006 50.0193 39.0596 46.9826 36.0233C45.0587 34.0994 42.222 33.3148 39.5793 33.9759Z" fill="black"/>
<path d="M44.816 41.5301C44.816 39.6897 43.3187 38.1924 41.4783 38.1924C39.6379 38.1924 38.1406 39.6897 38.1406 41.5301C38.1406 43.3704 39.6379 44.8677 41.4783 44.8677C43.3187 44.8677 44.816 43.3704 44.816 41.5301ZM40.3659 41.5301C40.3659 40.9169 40.8647 40.4176 41.4783 40.4176C42.0919 40.4176 42.5907 40.9169 42.5907 41.5301C42.5907 42.1437 42.0919 42.6429 41.4783 42.6429C40.8647 42.6429 40.3659 42.1437 40.3659 41.5301Z" fill="black"/>
<path d="M20.478 21.5716C20.6941 21.786 20.9759 21.893 21.2577 21.893C21.5443 21.893 21.8309 21.7825 22.0487 21.5625C22.4814 21.1263 22.4762 20.4192 22.04 19.9865L22.0253 19.9721C21.5886 19.5394 20.8867 19.5447 20.4545 19.9808C20.0213 20.417 20.027 21.1241 20.4632 21.5568L20.478 21.5716Z" fill="black"/>
<path d="M23.0187 23.5824C22.4086 23.655 21.9729 24.2086 22.0455 24.8188C22.249 26.5261 21.6697 28.2017 20.4556 29.4154C18.2868 31.5841 14.7578 31.5846 12.5887 29.4154C11.538 28.3647 10.9592 26.9679 10.9592 25.482C10.9592 23.996 11.538 22.5992 12.5887 21.5485C13.8463 20.2908 15.6467 19.7081 17.4067 19.9895C18.0133 20.0865 18.5839 19.6733 18.6808 19.0667C18.7778 18.46 18.3647 17.8895 17.758 17.7921C15.2971 17.3985 12.7761 18.2143 11.0153 19.9751C9.54411 21.4459 8.73438 23.4019 8.73438 25.482C8.73438 27.5624 9.54411 29.518 11.0153 30.9888C12.5334 32.5074 14.5274 33.2662 16.5221 33.2662C18.516 33.2658 20.5108 32.5069 22.029 30.9888C23.7284 29.2893 24.5399 26.9444 24.2551 24.5552C24.182 23.9451 23.6267 23.5102 23.0187 23.5824Z" fill="black"/>
<path d="M13.1836 25.482C13.1836 27.3223 14.6809 28.8196 16.5213 28.8196C18.3617 28.8196 19.8589 27.3223 19.8589 25.482C19.8589 23.6416 18.3617 22.1443 16.5213 22.1443C14.6809 22.1443 13.1836 23.6416 13.1836 25.482ZM17.6337 25.482C17.6337 26.0956 17.1349 26.5944 16.5213 26.5944C15.9077 26.5944 15.4089 26.0956 15.4089 25.482C15.4089 24.8683 15.9077 24.3695 16.5213 24.3695C17.1349 24.3695 17.6337 24.8683 17.6337 25.482Z" fill="black"/>
<path d="M56.3854 9.1247H54.1915C53.8662 8.35149 53.447 7.62655 52.9377 6.95728L54.0358 5.05557C54.3433 4.52328 54.1606 3.8427 53.6288 3.53568L48.7821 0.73769C48.5264 0.589833 48.2228 0.549824 47.938 0.626362C47.6527 0.7029 47.41 0.889027 47.2622 1.14473L46.1646 3.04644C45.3353 2.94338 44.4903 2.94338 43.6614 3.04644L42.5638 1.14473C42.2563 0.612446 41.5758 0.430233 41.0439 0.737255L36.1972 3.53568C35.9419 3.6831 35.7554 3.9262 35.6788 4.21104C35.6027 4.49632 35.6427 4.79986 35.7902 5.05513L36.8882 6.95684C36.3794 7.62655 35.9602 8.35149 35.6349 9.12426H33.4405C32.8265 9.12426 32.3281 9.62263 32.3281 10.2371V15.8331C32.3281 16.4476 32.8265 16.9459 33.4405 16.9459H35.6349C35.9602 17.7187 36.3794 18.4436 36.8882 19.1134L35.7902 21.0151C35.6427 21.2703 35.6027 21.5743 35.6788 21.8592C35.7554 22.144 35.9419 22.3871 36.1972 22.5345L41.0439 25.3329C41.2192 25.4338 41.4105 25.4821 41.5992 25.4821C41.9837 25.4821 42.3577 25.2825 42.5638 24.9255L43.6614 23.0242C44.4903 23.1268 45.3357 23.1268 46.1646 23.0242L47.2626 24.9255C47.41 25.1812 47.6531 25.3677 47.938 25.4438C48.2228 25.5204 48.5268 25.4804 48.7821 25.3329L53.6288 22.5345C54.1611 22.2275 54.3433 21.5469 54.0358 21.0151L52.9382 19.1134C53.447 18.4436 53.8662 17.7187 54.1915 16.9459H56.3854C56.9999 16.9459 57.4979 16.4476 57.4979 15.8331V10.2371C57.4979 9.62263 56.9995 9.1247 56.3854 9.1247ZM55.2726 14.7207H53.4205C52.9399 14.7207 52.5137 15.0294 52.3637 15.4861C52.0254 16.515 51.4857 17.4482 50.7595 18.2601C50.439 18.6185 50.385 19.1416 50.6255 19.5582L51.5527 21.1642L48.6333 22.8498L47.7071 21.2455C47.467 20.8294 46.9873 20.6145 46.5172 20.7124C45.4679 20.9303 44.3585 20.9303 43.3092 20.7124C42.8391 20.615 42.3594 20.8298 42.1193 21.2455L41.1931 22.8498L38.2737 21.1642L39.2009 19.5582C39.4414 19.1421 39.3875 18.6185 39.067 18.2601C38.3407 17.4482 37.801 16.515 37.4627 15.4861C37.3127 15.0294 36.8865 14.7207 36.406 14.7207H34.5534V11.35H36.406C36.8865 11.35 37.3127 11.0412 37.4627 10.5846C37.801 9.55566 38.3407 8.62242 39.067 7.8105C39.3875 7.45217 39.4414 6.92901 39.2009 6.5124L38.2737 4.90641L41.1931 3.22083L42.1193 4.82508C42.3594 5.24083 42.8391 5.45565 43.3092 5.35824C44.359 5.14037 45.4679 5.14037 46.5172 5.35824C46.9878 5.45565 47.467 5.24083 47.7071 4.82508L48.6333 3.22083L51.5527 4.90641L50.6255 6.5124C50.385 6.92858 50.439 7.45217 50.7595 7.8105C51.4857 8.62242 52.0254 9.55566 52.3637 10.5846C52.5137 11.0412 52.9399 11.35 53.4205 11.35H55.2726V14.7207Z" fill="black"/>
<path d="M44.9137 7.90259C42.0835 7.90259 39.7812 10.2053 39.7812 13.035C39.7812 15.8652 42.0835 18.1674 44.9137 18.1674C47.7438 18.1674 50.0461 15.8652 50.0461 13.035C50.0461 10.2053 47.7438 7.90259 44.9137 7.90259ZM44.9137 15.9426C43.3107 15.9426 42.0065 14.6384 42.0065 13.035C42.0065 11.432 43.3107 10.1278 44.9137 10.1278C46.5166 10.1278 47.8212 11.432 47.8212 13.035C47.8212 14.6384 46.5166 15.9426 44.9137 15.9426Z" fill="black"/>
</g>
<defs>
<clipPath id="clip0">
<rect width="57" height="57" fill="white" transform="translate(0.5 0.587891)"/>
</clipPath>
</defs>
</svg>
