<svg width="62" height="64" viewBox="0 0 62 64" fill="none" xmlns="http://www.w3.org/2000/svg">
<g clip-path="url(#clip0)">
<path d="M28.6061 43.1002C29.0795 42.6258 29.0795 41.858 28.6061 41.3836C28.1321 40.9106 27.3643 40.9106 26.8899 41.3836C26.4169 41.858 26.4169 42.6258 26.8899 43.1002C27.3643 43.5732 28.1321 43.5732 28.6061 43.1002Z" fill="black"/>
<path d="M22.8633 14.3088C22.8633 21.6659 28.8488 27.6518 36.2059 27.6518C43.563 27.6518 49.5485 21.6659 49.5485 14.3088C49.5485 6.95168 43.563 0.966187 36.2059 0.966187C28.8488 0.966187 22.8633 6.95168 22.8633 14.3088ZM47.1228 14.3088C47.1228 20.3284 42.2255 25.2257 36.2059 25.2257C30.1863 25.2257 25.2889 20.3284 25.2889 14.3088C25.2889 8.28963 30.1863 3.39233 36.2059 3.39233C42.2255 3.39233 47.1228 8.28963 47.1228 14.3088Z" fill="black"/>
<path d="M14.0339 62.7288C14.5041 63.2027 15.2695 63.2079 15.7458 62.7387L21.6265 56.9452C22.6256 55.9461 22.9294 54.4669 22.4901 53.1811L23.755 51.9611C24.4361 51.3033 25.3328 50.9407 26.2807 50.9407H42.4059C45.2666 50.9407 47.9705 49.8421 50.0203 47.8473C50.1047 47.7653 49.38 48.6188 61.0211 34.7056C62.7477 32.6629 62.4894 29.5955 60.4448 27.867C58.413 26.1546 55.3693 26.4006 53.638 28.4083L46.4804 35.7649C45.5766 34.6525 44.1983 33.9592 42.7092 33.9592H29.1832C27.2585 33.1539 25.2162 32.7463 23.1091 32.7463C17.2681 32.7463 12.168 35.444 9.43091 40.502C8.2778 40.2835 7.06165 40.6323 6.18674 41.5072L0.416422 47.2946C-0.0546829 47.7672 -0.0556307 48.5316 0.414526 49.0056L14.0339 62.7288ZM23.1086 35.172C24.9665 35.172 26.7627 35.5459 28.4486 36.2834C28.6021 36.3507 28.7675 36.3853 28.9348 36.3853H42.7092C44.0244 36.3853 45.1353 37.4578 45.1353 38.811C45.1353 40.1489 44.0471 41.2371 42.7092 41.2371H32.8127C32.143 41.2371 31.5998 41.7802 31.5998 42.4499C31.5998 43.1201 32.143 43.6628 32.8127 43.6628H42.7092C45.3846 43.6628 47.561 41.4864 47.561 38.811C47.561 38.5977 47.5458 38.3863 47.5183 38.1768C54.4422 31.0595 55.4186 30.0595 55.4603 30.0097C56.3248 28.9893 57.8594 28.8599 58.8803 29.7206C59.9021 30.5846 60.0315 32.1183 59.1647 33.1444L48.2852 46.1505C46.6965 47.6757 44.6107 48.515 42.4059 48.515H26.2807C24.7006 48.515 23.2048 49.1193 22.0702 50.2156L21.0393 51.2104L11.5367 41.7082C13.7576 37.5417 17.925 35.172 23.1086 35.172ZM7.90338 43.2215C8.30339 42.8215 8.91763 42.7495 9.40532 43.0509C9.61528 43.1789 9.01242 42.63 19.9113 53.5138C20.3962 53.9986 20.3701 54.7712 19.918 55.2233L14.9045 60.1623L2.98617 48.153L7.90338 43.2215Z" fill="black"/>
<path d="M34.7537 7.0313V8.45267C33.3418 8.95316 32.3275 10.3015 32.3275 11.8831C32.3275 13.8893 33.9598 15.5221 35.9665 15.5221C36.6353 15.5221 37.1793 16.0662 37.1793 16.7349C37.1793 17.4037 36.6353 17.9477 35.9665 17.9477C35.4485 17.9477 34.8888 17.6221 34.3916 17.0302C33.9603 16.5174 33.1953 16.4515 32.6825 16.8823C32.1697 17.3136 32.1034 18.0786 32.5347 18.5914C33.183 19.3625 33.9456 19.8999 34.7537 20.171V21.5867C34.7537 22.2569 35.2968 22.7996 35.9665 22.7996C36.6362 22.7996 37.1793 22.2569 37.1793 21.5867V20.1654C38.5912 19.6644 39.6055 18.316 39.6055 16.7349C39.6055 14.7282 37.9732 13.0959 35.9665 13.0959C35.2978 13.0959 34.7537 12.5518 34.7537 11.8831C34.7537 11.2144 35.2978 10.6698 35.9665 10.6698C36.3964 10.6698 36.85 10.8892 37.2784 11.3039C37.7599 11.7698 38.5277 11.757 38.9936 11.276C39.4595 10.7944 39.4467 10.0267 38.9657 9.56076C38.35 8.96501 37.7339 8.62803 37.1793 8.44414V7.0313C37.1793 6.36114 36.6362 5.81799 35.9665 5.81799C35.2968 5.81799 34.7537 6.36114 34.7537 7.0313Z" fill="black"/>
</g>
<defs>
<clipPath id="clip0">
<rect width="62" height="62.1213" fill="white" transform="translate(0 0.966187)"/>
</clipPath>
</defs>
</svg>
