<svg width="62" height="63" viewBox="0 0 62 63" fill="none" xmlns="http://www.w3.org/2000/svg">
<g clip-path="url(#clip0)">
<path d="M61.6453 23.5874L50.1692 12.1112C49.6962 11.6383 48.9292 11.6382 48.4559 12.1112C47.983 12.5842 47.983 13.3512 48.4559 13.8244L59.0755 24.4439L52.8666 30.6528C52.6763 30.8429 52.3669 30.8429 52.1769 30.6528L39.9162 18.3921C39.7259 18.202 39.7259 17.8926 39.9162 17.7024L44.0831 13.5351C44.5561 13.0622 44.5561 12.2951 44.0831 11.822C43.61 11.349 42.8432 11.349 42.3699 11.822L38.2029 15.989C37.3398 16.8523 37.1351 18.1269 37.5853 19.1873L36.176 20.5966H30.7417H30.3134H26.3227L24.5448 18.8187C24.6131 18.5695 24.6492 18.31 24.6492 18.0447C24.6492 17.2673 24.3464 16.5363 23.7967 15.9867L19.7424 11.9323C19.2693 11.4594 18.5025 11.4594 18.0291 11.9323C17.5561 12.4053 17.5561 13.1723 18.0291 13.6456L22.0836 17.6999C22.2079 17.8242 22.2265 17.9694 22.2265 18.0447C22.2265 18.12 22.208 18.2652 22.0835 18.3896L21.7461 18.7269L9.81897 30.6512C9.81509 30.6551 9.81182 30.6593 9.80807 30.6632C9.68722 30.7749 9.55038 30.7931 9.47784 30.7931C9.4024 30.7931 9.25721 30.7746 9.13297 30.6503L2.92436 24.4415L13.6867 13.6792C14.1597 13.2063 14.1597 12.4392 13.6867 11.9661C13.2137 11.493 12.4469 11.4931 11.9735 11.9661L0.354745 23.585C-0.118248 24.058 -0.118248 24.825 0.354745 25.2981L7.4201 32.3636C7.98766 32.931 8.73287 33.2146 9.47809 33.2146C9.8203 33.2146 10.1618 33.1519 10.4867 33.0321L14.4638 37.0092C14.155 37.5885 13.9794 38.2489 13.9794 38.9497C13.9794 41.2327 15.8367 43.0901 18.1197 43.0901C18.1248 43.0901 18.1299 43.0897 18.135 43.0897C18.135 43.09 18.135 43.0902 18.135 43.0904C18.135 45.3683 19.984 47.222 22.2599 47.2304C22.2599 47.2322 22.2598 47.2339 22.2598 47.2357C22.2598 49.5187 24.1171 51.376 26.4001 51.376C27.1025 51.376 27.7642 51.1997 28.3443 50.8899L29.8249 52.3705C30.519 53.0646 31.442 53.4469 32.4236 53.4469C33.4053 53.4469 34.3283 53.0646 35.0223 52.3705C35.6794 51.7133 36.0571 50.851 36.0954 49.9279C36.9906 49.8833 37.8728 49.52 38.5549 48.8378C39.2757 48.117 39.6649 47.1587 39.651 46.1396C39.651 46.1374 39.6508 46.1353 39.6508 46.1332C40.7047 46.0678 41.6743 45.6059 42.3912 44.8247C43.1118 44.0398 43.4684 43.05 43.4653 42.0626C44.4789 42.0334 45.4271 41.6251 46.147 40.9051C46.8981 40.1542 47.3099 39.1556 47.3063 38.0935C47.3042 37.4682 47.1575 36.8666 46.8837 36.3246L50.8568 32.6917C51.3551 33.04 51.9378 33.2167 52.5217 33.2167C53.2669 33.2167 54.0122 32.933 54.5797 32.3657L61.645 25.3003C62.1183 24.8274 62.1183 24.0604 61.6453 23.5874ZM18.1198 40.6676C17.1726 40.6676 16.4021 39.8971 16.4021 38.9499C16.4021 38.0028 17.1726 37.2323 18.1198 37.2323C19.067 37.2323 19.8376 38.0028 19.8376 38.9499C19.8374 39.8971 19.0669 40.6676 18.1198 40.6676ZM23.5547 44.2327C23.5054 44.2795 23.4573 44.3273 23.4103 44.3763C23.1072 44.6442 22.7105 44.8083 22.2753 44.8083C21.3282 44.8083 20.5577 44.0378 20.5577 43.0906C20.5577 42.1434 21.3281 41.3728 22.2753 41.3728C23.2225 41.3728 23.993 42.1434 23.993 43.0906C23.9929 43.5294 23.8262 43.9289 23.5547 44.2327ZM27.6312 48.4315C27.6256 48.4369 27.6197 48.4415 27.6142 48.4469C27.6082 48.453 27.6032 48.4595 27.5974 48.4656C27.2877 48.7672 26.8656 48.9538 26.4004 48.9538C25.4531 48.9536 24.6825 48.183 24.6825 47.236C24.6825 46.7972 24.8492 46.3978 25.1208 46.0939C25.1701 46.0472 25.2181 45.9994 25.2651 45.9503C25.5681 45.6824 25.9649 45.5185 26.4001 45.5185C27.3472 45.5185 28.1178 46.289 28.1178 47.2362C28.1178 47.7007 27.9318 48.122 27.6312 48.4315ZM44.4342 39.1923C44.1442 39.4822 43.7588 39.6418 43.3488 39.6418C42.9388 39.6418 42.5535 39.4822 42.2634 39.1924L39.7469 36.6757C39.2739 36.2027 38.5071 36.2027 38.0336 36.6757C37.5606 37.1487 37.5606 37.9157 38.0336 38.3888L40.5501 40.9054C40.5502 40.9054 40.5503 40.9055 40.5503 40.9055L40.558 40.9132C41.1824 41.5375 41.2037 42.5361 40.6065 43.1866C40.3064 43.5135 39.897 43.7021 39.4535 43.7176C39.0109 43.7339 38.5882 43.5737 38.2661 43.2687L35.8429 40.9749C35.357 40.515 34.5903 40.536 34.1304 41.0219C33.6705 41.5077 33.6914 42.2744 34.1773 42.7344L36.8155 45.232C37.0767 45.4793 37.2233 45.8135 37.2282 46.1731C37.2332 46.5328 37.0959 46.8709 36.8416 47.1252C36.3268 47.6402 35.4886 47.6401 34.9738 47.1252L33.7507 45.902C33.2775 45.429 32.5108 45.429 32.0374 45.902C31.8009 46.1386 31.6826 46.4485 31.6826 46.7585C31.6826 47.0685 31.8009 47.3786 32.0374 47.615L33.3089 48.8865C33.5455 49.1231 33.6758 49.4376 33.6758 49.772C33.6758 50.1065 33.5455 50.4211 33.3089 50.6576C33.0723 50.8942 32.7578 51.0244 32.4233 51.0244C32.0888 51.0244 31.7744 50.8941 31.5378 50.6575L30.0562 49.1759C30.3647 48.5968 30.5402 47.9367 30.5402 47.2361C30.5402 44.9582 28.6911 43.1045 26.4151 43.0961C26.4151 43.0943 26.4153 43.0926 26.4153 43.0908C26.4153 40.8078 24.5579 38.9505 22.2749 38.9505C22.2699 38.9505 22.2649 38.9508 22.2598 38.9508C22.2598 38.9506 22.2598 38.9504 22.2598 38.9501C22.2598 36.6671 20.4025 34.8099 18.1195 34.8099C17.4174 34.8099 16.7558 34.9861 16.176 35.2957L12.39 31.5099L23.0996 20.8002L24.9643 22.665C25.1916 22.8922 25.4997 23.0198 25.8208 23.0198H27.3887L22.6072 27.8013C21.8762 28.5324 21.4737 29.5045 21.4737 30.5384C21.4737 31.5723 21.8762 32.5444 22.6072 33.2754C23.3383 34.0066 24.3104 34.4091 25.3443 34.4091C26.3782 34.4091 27.3503 34.0064 28.0814 33.2754L32.137 29.2197L36.5769 29.2684L44.4268 37.0144C44.7201 37.3038 44.8823 37.6901 44.8836 38.1021C44.8852 38.5136 44.7255 38.9008 44.4342 39.1923ZM45.3096 34.4814L37.9303 27.1999C37.9302 27.1998 37.9301 27.1996 37.93 27.1995L37.9193 27.189C37.6469 26.92 37.2791 26.8074 36.9262 26.8489L31.6539 26.7912C31.327 26.7888 31.0145 26.9155 30.7841 27.1459L26.3682 31.5619C26.0946 31.8355 25.731 31.986 25.3443 31.986C24.9577 31.986 24.594 31.8355 24.3205 31.5619C24.0469 31.2885 23.8964 30.9248 23.8964 30.5381C23.8964 30.1513 24.0469 29.7877 24.3205 29.5141L30.8151 23.0195H36.678C36.9992 23.0195 37.3073 22.8918 37.5345 22.6647L39.1484 21.0507L49.1068 31.0091L45.3096 34.4814Z" fill="black"/>
<path d="M53.08 26.2105C53.7476 26.2105 54.2889 25.6693 54.2889 25.0016C54.2889 24.334 53.7476 23.7927 53.08 23.7927C52.4123 23.7927 51.8711 24.334 51.8711 25.0016C51.8711 25.6693 52.4123 26.2105 53.08 26.2105Z" fill="black"/>
<path d="M8.79872 26.3316C9.46637 26.3316 10.0076 25.7903 10.0076 25.1227C10.0076 24.4551 9.46637 23.9138 8.79872 23.9138C8.13108 23.9138 7.58984 24.4551 7.58984 25.1227C7.58984 25.7903 8.13108 26.3316 8.79872 26.3316Z" fill="black"/>
<path d="M15.869 11.2432C16.5367 11.2432 17.0779 10.702 17.0779 10.0343C17.0779 9.36667 16.5367 8.82544 15.869 8.82544C15.2014 8.82544 14.6602 9.36667 14.6602 10.0343C14.6602 10.702 15.2014 11.2432 15.869 11.2432Z" fill="black"/>
<path d="M46.1073 11.1463C46.775 11.1463 47.3162 10.605 47.3162 9.9374C47.3162 9.26975 46.775 8.72852 46.1073 8.72852C45.4397 8.72852 44.8984 9.26975 44.8984 9.9374C44.8984 10.605 45.4397 11.1463 46.1073 11.1463Z" fill="black"/>
</g>
<defs>
<clipPath id="clip0">
<rect width="62" height="62" fill="white" transform="translate(0 0.0878906)"/>
</clipPath>
</defs>
</svg>
