<svg width="63" height="63" viewBox="0 0 63 63" fill="none" xmlns="http://www.w3.org/2000/svg">
<path d="M59.3063 29.4949C57.4807 29.4949 56.2063 30.3087 56.2063 31.4737V35.0264C54.5701 31.7931 52.0535 29.4949 48.9729 29.4949H20.0396C19.4691 29.4947 19.0064 29.9571 19.0063 30.5277V36.7368C19.0121 35.051 18.3345 33.3688 16.9931 32.1407C14.4676 29.8284 10.5457 30.0012 8.23349 32.5268C6.06814 34.8917 6.06336 38.5175 8.22238 40.8883C7.62667 40.9539 7.06402 41.1957 6.60625 41.5825V15.4414C6.60625 14.0509 5.24496 12.9615 3.50625 12.9615C1.76754 12.9615 0.40625 14.0509 0.40625 15.4414V60.0817C0.40625 61.4721 1.76754 62.5615 3.50625 62.5615C5.24496 62.5615 6.60625 61.4721 6.60625 60.0817V53.2615H56.2063V60.5827C56.2063 61.7477 57.4807 62.5615 59.3063 62.5615C61.1318 62.5615 62.4063 61.7477 62.4063 60.5827V31.4737C62.4063 30.3087 61.1318 29.4949 59.3063 29.4949ZM4.53958 60.0817C4.52848 60.1664 4.1814 60.4949 3.50625 60.4949C2.82813 60.4949 2.48299 60.1664 2.47292 60.0817V15.4414C2.48299 15.3567 2.82813 15.0282 3.50625 15.0282C4.1814 15.0282 4.52848 15.3567 4.53958 15.4414V60.0817ZM21.0729 31.5615H48.9729C52.8701 31.5615 55.841 37.3645 56.175 42.9282H21.0729V31.5615ZM19.0063 36.7389V41.7196C18.5604 41.2865 17.9926 41.0006 17.3791 40.9004C18.4628 39.7167 19.0006 38.2265 19.0063 36.7389ZM12.8063 32.5949C15.089 32.5949 16.9396 34.4454 16.9396 36.7282C16.9396 39.011 15.089 40.8615 12.8063 40.8615C10.5235 40.8615 8.67292 39.011 8.67292 36.7282C8.67537 34.4465 10.5245 32.5973 12.8063 32.5949ZM56.2063 51.1949H6.60625V44.9919C7.14397 44.9495 7.55873 44.5009 7.55885 43.9615C7.54891 43.4021 7.99337 42.9399 8.55279 42.9282H16.8983C17.4577 42.9399 17.9021 43.4021 17.8922 43.9615C17.8921 44.5321 18.3545 44.9947 18.925 44.9949H56.2063V51.1949ZM60.3396 60.3133C59.6719 60.5554 58.9406 60.5554 58.2729 60.3133V31.7431C58.9406 31.5009 59.6719 31.5009 60.3396 31.7431V60.3133Z" fill="#FF9225"/>
<path d="M18.1122 23.2949L21.867 18.7897C22.1236 18.4815 22.1787 18.0528 22.0083 17.6897C21.8384 17.3267 21.4737 17.0949 21.0729 17.0949H14.8729V19.1615H18.867L15.1121 23.6667C14.747 24.1056 14.8068 24.7574 15.2457 25.1224C15.4313 25.2768 15.665 25.3614 15.9063 25.3615H22.1063V23.2949H18.1122Z" fill="#FF9225"/>
<path d="M29.386 18.1282L35.3216 10.4957C35.564 10.1843 35.6079 9.76194 35.4346 9.40737C35.261 9.05307 34.9009 8.82832 34.5061 8.82819H26.2395V10.8949H32.3931L26.4575 18.5273C26.1069 18.9773 26.1877 19.6264 26.6378 19.977C26.8193 20.1183 27.0429 20.195 27.2729 20.195H35.5396V18.1283L29.386 18.1282Z" fill="#FF9225"/>
<path d="M42.7729 12.9615L50.8327 2.21499C51.1752 1.75864 51.0831 1.11113 50.6268 0.768448C50.4479 0.634115 50.2301 0.561523 50.0063 0.561523H40.7063V2.62819H47.9396L39.8798 13.3747C39.645 13.6878 39.607 14.1068 39.7819 14.457C39.9571 14.8071 40.3149 15.0282 40.7063 15.0282H51.0396V12.9615H42.7729Z" fill="#FF9225"/>
</svg>
