<svg width="62" height="63" viewBox="0 0 62 63" fill="none" xmlns="http://www.w3.org/2000/svg">
<g clip-path="url(#clip0)">
<path d="M42.9504 21.9832H40.1999C40.0319 21.4501 39.8183 20.934 39.5605 20.4389L41.5053 18.494C41.7483 18.251 41.8821 17.9278 41.8821 17.584C41.8821 17.2401 41.7483 16.9169 41.5053 16.6739L39.2165 14.3849C38.7147 13.8835 37.8983 13.8833 37.3963 14.3851L35.4514 16.3299C34.9563 16.0721 34.4401 15.8584 33.9071 15.6906V12.9399C33.907 12.2303 33.3296 11.6528 32.6199 11.6528H29.383C28.6734 11.6528 28.096 12.2302 28.096 12.9399V15.6906C27.5629 15.8585 27.0468 16.0721 26.5516 16.3299L24.6066 14.3849C24.1047 13.8834 23.2883 13.8835 22.7865 14.3851L20.4979 16.6737C20.2547 16.9168 20.1208 17.24 20.1208 17.5839C20.1208 17.9277 20.2547 18.2509 20.4977 18.4939L22.4426 20.4388C22.1848 20.9339 21.9711 21.4501 21.8032 21.9831H19.0526C18.343 21.9831 17.7656 22.5605 17.7656 23.2702V26.5071C17.7656 27.2167 18.343 27.7941 19.0526 27.7941H21.8032C21.9712 28.327 22.1848 28.8434 22.4426 29.3384L20.4977 31.2833C19.9959 31.7851 19.9959 32.6016 20.4977 33.1035L22.7865 35.3922C23.2883 35.8942 24.105 35.8941 24.6067 35.3922L26.5516 33.4474C27.0467 33.7052 27.5631 33.9189 28.096 34.0867V36.8374C28.096 37.547 28.6734 38.1244 29.383 38.1244H32.6199C33.3295 38.1244 33.907 37.547 33.907 36.8374V34.0867C34.4398 33.9189 34.9562 33.7052 35.4513 33.4474L37.3962 35.3922C37.8981 35.8942 38.7147 35.8941 39.2165 35.3922L41.5051 33.1035C41.7482 32.8604 41.882 32.5372 41.882 32.1934C41.882 31.8497 41.7482 31.5265 41.5051 31.2833L39.5603 29.3384C39.8181 28.8433 40.0318 28.327 40.1996 27.7941H42.9503C43.6599 27.7941 44.2374 27.2167 44.2374 26.5071V23.2702C44.2375 22.5606 43.66 21.9832 42.9504 21.9832ZM42.4212 25.9777H39.5078C39.0859 25.9777 38.7196 26.2682 38.6235 26.6791C38.4299 27.5068 38.1048 28.2918 37.6574 29.0122C37.4347 29.3706 37.4884 29.8351 37.7866 30.1336L39.8465 32.1936L38.3065 33.7336L36.2465 31.6737C35.9482 31.3753 35.4837 31.3216 35.125 31.5444C34.4045 31.9918 33.6194 32.3168 32.792 32.5106C32.3811 32.6066 32.0906 32.9729 32.0906 33.3949V36.3084H29.9128V33.3949C29.9128 32.973 29.6222 32.6067 29.2114 32.5106C28.3839 32.3171 27.5989 31.9921 26.8783 31.5444C26.52 31.3221 26.0553 31.3753 25.7568 31.6737L23.6969 33.7336L22.1568 32.1936L24.2168 30.1336C24.5151 29.8353 24.5687 29.3708 24.3461 29.0122C23.8986 28.2917 23.5736 27.5066 23.38 26.6791C23.284 26.2682 22.9175 25.9777 22.4957 25.9777H19.5823V23.7998H22.4957C22.9175 23.7998 23.2839 23.5093 23.38 23.0985C23.5736 22.2709 23.8986 21.4859 24.3461 20.7654C24.5687 20.4069 24.5151 19.9424 24.2168 19.6439L22.1568 17.584L23.6969 16.0439L25.7568 18.1038C26.055 18.4022 26.5197 18.4559 26.8783 18.2332C27.5987 17.7857 28.3837 17.4607 29.2114 17.2671C29.6222 17.1711 29.9128 16.8048 29.9128 16.3827V13.4692H32.0906V16.3827C32.0906 16.8046 32.3811 17.1709 32.792 17.2671C33.6195 17.4607 34.4045 17.7857 35.1251 18.2332C35.4833 18.4556 35.948 18.402 36.2465 18.1038L38.3065 16.0439L39.8465 17.584L37.7866 19.6439C37.4882 19.9423 37.4347 20.4068 37.6574 20.7654C38.1047 21.4856 38.4297 22.2707 38.6235 23.0985C38.7196 23.5093 39.0858 23.7998 39.5078 23.7998H42.4212V25.9777Z" fill="black"/>
<path d="M30.9983 20.0234C28.3154 20.0234 26.1328 22.2061 26.1328 24.889C26.1328 27.5718 28.3155 29.7545 30.9983 29.7545C33.6812 29.7545 35.8639 27.5718 35.8639 24.889C35.8639 22.2061 33.6813 20.0234 30.9983 20.0234ZM30.9983 27.9381C29.3171 27.9381 27.9492 26.5702 27.9492 24.889C27.9492 23.2077 29.3171 21.8398 30.9983 21.8398C32.6796 21.8398 34.0475 23.2077 34.0475 24.889C34.0475 26.5702 32.6796 27.9381 30.9983 27.9381Z" fill="black"/>
<path d="M10.1205 23.9805H7.10742C6.60585 23.9805 6.19922 24.3871 6.19922 24.8887C6.19922 25.3902 6.60585 25.7969 7.10742 25.7969H10.1205C10.622 25.7969 11.0287 25.3902 11.0287 24.8887C11.0287 24.3871 10.622 23.9805 10.1205 23.9805Z" fill="black"/>
<path d="M54.8939 23.9805H51.8809C51.3792 23.9805 50.9727 24.3871 50.9727 24.8887C50.9727 25.3902 51.3792 25.7969 51.8809 25.7969H54.8939C55.3956 25.7969 55.8021 25.3902 55.8021 24.8887C55.8021 24.3871 55.3955 23.9805 54.8939 23.9805Z" fill="black"/>
<path d="M16.8802 39.0109C16.5256 38.6562 15.9506 38.6562 15.5958 39.0109L13.4652 41.1414C13.1105 41.4961 13.1105 42.0712 13.4652 42.4259C13.8199 42.7805 14.395 42.7805 14.7497 42.4259L16.8802 40.2953C17.2349 39.9406 17.2349 39.3656 16.8802 39.0109Z" fill="black"/>
<path d="M48.5366 7.35195C48.1818 6.99727 47.6068 6.99727 47.252 7.35195L45.1215 9.48247C44.7668 9.83715 44.7668 10.4122 45.1215 10.7669C45.4763 11.1216 46.0512 11.1215 46.406 10.7669L48.5366 8.63639C48.8912 8.28158 48.8912 7.70651 48.5366 7.35195Z" fill="black"/>
<path d="M31.002 0.0878906C30.5003 0.0878906 30.0938 0.494523 30.0938 0.996092V4.00914C30.0938 4.51071 30.5003 4.91734 31.002 4.91734C31.5036 4.91734 31.9102 4.51071 31.9102 4.00914V0.996092C31.9102 0.494523 31.5036 0.0878906 31.002 0.0878906Z" fill="black"/>
<path d="M48.5366 41.1414L46.406 39.0109C46.0512 38.6562 45.4763 38.6562 45.1215 39.0109C44.7668 39.3656 44.7668 39.9408 45.1215 40.2953L47.252 42.4259C47.6068 42.7805 48.1818 42.7805 48.5366 42.4259C48.8912 42.0712 48.8912 41.4961 48.5366 41.1414Z" fill="black"/>
<path d="M16.8802 9.48247L14.7497 7.35195C14.395 6.99727 13.8199 6.99727 13.4652 7.35195C13.1105 7.70663 13.1105 8.28171 13.4652 8.63639L15.5958 10.7669C15.9504 11.1216 16.5255 11.1216 16.8802 10.7669C17.2349 10.4121 17.2349 9.83703 16.8802 9.48247Z" fill="black"/>
<path d="M49.1192 22.6638C48.1419 14.3235 41.5305 7.71158 33.2293 6.69972C32.7322 6.63857 32.2785 6.9935 32.2177 7.49131C32.157 7.98925 32.5115 8.44214 33.0094 8.50293C40.5483 9.42179 46.4311 15.332 47.3149 22.8753C47.3691 23.3375 47.7615 23.6778 48.2157 23.6778C48.2511 23.6778 48.2867 23.6757 48.3227 23.6716C48.8211 23.6133 49.1776 23.1621 49.1192 22.6638Z" fill="black"/>
<path d="M48.3112 26.1071C47.8128 26.0436 47.359 26.3964 47.2961 26.8941C46.6769 31.7848 43.9165 36.1002 39.7225 38.7334C37.9145 39.8686 36.8352 41.8115 36.8352 43.9304V47.6682H25.1638V43.8477C25.1638 41.7959 24.0915 39.8574 22.3656 38.789C17.4848 35.7677 14.5708 30.5417 14.5707 24.8092C14.5707 16.5322 20.7704 9.5226 28.9918 8.5042C29.4896 8.44256 29.8431 7.98895 29.7815 7.49113C29.7198 6.99344 29.2665 6.63899 28.7684 6.70148C19.6846 7.8268 12.7538 15.6385 12.7539 24.8092C12.7539 27.9737 13.577 31.0917 15.1344 33.826C16.644 36.4767 18.8139 38.7269 21.4092 40.3334C22.6045 41.0733 23.3469 42.4198 23.3469 43.8475V47.8004C22.4235 48.1213 21.7576 48.9983 21.7576 50.0296V51.3243C21.7576 51.8725 21.947 52.3764 22.2614 52.7776C21.9468 53.1788 21.7576 53.6825 21.7576 54.2308V55.5254C21.7576 56.8276 22.817 57.8869 24.119 57.8869H26.9744V59.94C26.9744 61.1244 27.9379 62.088 29.1222 62.088H32.8758C34.0602 62.088 35.0236 61.1244 35.0236 59.94V57.8869H37.879C39.1811 57.8869 40.2404 56.8274 40.2404 55.5254V54.2308C40.2404 53.6826 40.0511 53.1788 39.7364 52.7776C40.0511 52.3764 40.2404 51.8727 40.2404 51.3243V50.0296C40.2404 48.9981 39.5747 48.1213 38.6511 47.8004V43.9302C38.6511 42.4402 39.4124 41.0726 40.6879 40.2718C45.3444 37.3481 48.4098 32.5552 49.0975 27.1222C49.161 26.6245 48.8088 26.1701 48.3112 26.1071ZM33.2074 59.9399C33.2074 60.1195 33.0557 60.2713 32.8761 60.2713H29.1226C28.943 60.2713 28.7913 60.1196 28.7913 59.9399V57.8868H33.2074V59.9399ZM38.4244 55.5253C38.4244 55.8207 38.1748 56.0702 37.8795 56.0702C36.2762 56.0702 25.6323 56.0702 24.1194 56.0702C23.824 56.0702 23.5745 55.8207 23.5745 55.5253V54.2307C23.5745 53.9354 23.824 53.6858 24.1194 53.6858H37.8795C38.1748 53.6858 38.4244 53.9354 38.4244 54.2307V55.5253ZM38.4244 51.3242C38.4244 51.6196 38.1748 51.8691 37.8795 51.8691H24.1194C23.824 51.8691 23.5745 51.6196 23.5745 51.3242V50.0295C23.5745 49.7341 23.824 49.4846 24.1194 49.4846H37.8795C38.1748 49.4846 38.4244 49.7341 38.4244 50.0295V51.3242Z" fill="black"/>
</g>
<defs>
<clipPath id="clip0">
<rect width="62" height="62" fill="white" transform="translate(0 0.0878906)"/>
</clipPath>
</defs>
</svg>
