<svg width="63" height="63" viewBox="0 0 63 63" fill="none" xmlns="http://www.w3.org/2000/svg">
<path d="M31.707 0.561523C14.601 0.561523 0.707031 14.4555 0.707031 31.5615C0.707031 48.6675 14.601 62.5615 31.707 62.5615C48.8131 62.5615 62.707 48.6675 62.707 31.5615C62.707 14.4555 48.8131 0.561523 31.707 0.561523ZM31.707 59.8724C16.095 59.8724 3.39619 47.1736 3.39619 31.5615C3.39619 15.9495 16.095 3.25068 31.707 3.25068C47.3191 3.25068 60.0179 15.9495 60.0179 31.5615C60.0179 47.1736 47.3191 59.8724 31.707 59.8724Z" fill="#FF9927"/>
<path d="M47.8418 24.8387H38.4298V15.4267C38.4298 14.6797 37.8322 14.0821 37.0852 14.0821H26.3286C25.5816 14.0821 24.984 14.6797 24.984 15.4267V24.8387H15.572C14.825 24.8387 14.2274 25.4363 14.2274 26.1833V36.9399C14.2274 37.6869 14.825 38.2845 15.572 38.2845H24.984V47.6966C24.984 48.4435 25.5816 49.0411 26.3286 49.0411H37.0852C37.8322 49.0411 38.4298 48.4435 38.4298 47.6966V38.2845H47.8418C48.5888 38.2845 49.1864 37.6869 49.1864 36.9399V26.1833C49.1117 25.4363 48.5141 24.8387 47.8418 24.8387ZM46.572 35.5953H37.0852C36.3382 35.5953 35.7406 36.1929 35.7406 36.9399V46.352H27.6732V36.9399C27.6732 36.1929 27.0756 35.5953 26.3286 35.5953H16.9165V27.5279H26.3286C27.0756 27.5279 27.6732 26.9303 27.6732 26.1833V16.7712H35.8153V26.1833C35.8153 26.9303 36.4129 27.5279 37.1599 27.5279H46.572V35.5953Z" fill="#FF9927"/>
</svg>
