<svg width="60" height="61" viewBox="0 0 60 61" fill="none" xmlns="http://www.w3.org/2000/svg">
<g clip-path="url(#clip0)">
<path d="M59.4089 0.241911C59.0434 0.0333168 58.5938 0.0368324 58.2317 0.251051L36.7566 12.95C36.1995 13.2794 36.015 13.998 36.3444 14.5551C36.6737 15.1121 37.3923 15.2966 37.9495 14.9673L53.3575 5.85613L24.6576 35.635L10.3832 31.2679L29.0119 20.2523C29.5691 19.9227 29.7536 19.2041 29.4242 18.647C29.0949 18.09 28.3762 17.9052 27.8191 18.2348L6.90358 30.6026C6.50397 30.839 6.28143 31.2889 6.33639 31.75C6.39135 32.2111 6.71326 32.5962 7.15717 32.732L24.2043 37.9473L31.7251 51.6364C31.7329 51.6505 31.741 51.6625 31.7493 51.6732C31.8748 51.8825 32.0629 52.0534 32.2975 52.1521C32.4444 52.2139 32.5987 52.244 32.752 52.244C33.0523 52.244 33.348 52.1284 33.5712 51.9101L42.219 43.4586L58.4853 48.435C58.5978 48.4694 58.7132 48.4864 58.8281 48.4864C59.0761 48.4864 59.321 48.4076 59.5251 48.2566C59.8238 48.0355 60.0001 47.686 60.0001 47.3145V1.2598C60.0001 0.838981 59.7744 0.450387 59.4089 0.241911ZM31.7889 38.6696C31.6532 38.8656 31.5805 39.0984 31.5805 39.3368V46.5053L26.445 37.1578L49.1701 13.5786L31.7889 38.6696ZM33.9242 48.2882V40.921L39.6652 42.6774L33.9242 48.2882ZM57.6563 45.7305L34.6291 38.6856L57.6563 5.44386V45.7305Z" fill="black"/>
<path d="M19.2684 40.8195C18.8107 40.3619 18.0689 40.3619 17.611 40.8195L6.67134 51.7592C6.21372 52.2168 6.21372 52.9589 6.67134 53.4166C6.90032 53.6454 7.2002 53.7597 7.50009 53.7597C7.79997 53.7597 8.09985 53.6454 8.32872 53.4165L19.2684 42.4768C19.726 42.0193 19.726 41.2773 19.2684 40.8195Z" fill="black"/>
<path d="M4.69579 55.3919C4.23806 54.9345 3.49626 54.9345 3.03853 55.392L0.343213 58.0873C-0.114404 58.5449 -0.114404 59.2869 0.343213 59.7446C0.57208 59.9734 0.871963 60.0878 1.17185 60.0878C1.47173 60.0878 1.77161 59.9733 2.00048 59.7445L4.69579 57.0492C5.15341 56.5916 5.15341 55.8496 4.69579 55.3919Z" fill="black"/>
<path d="M16.719 58.0184C16.5012 57.8004 16.1988 57.675 15.8906 57.675C15.5811 57.675 15.2801 57.8004 15.0621 58.0184C14.8441 58.2364 14.7188 58.5375 14.7188 58.8469C14.7188 59.1551 14.844 59.4575 15.0621 59.6754C15.2801 59.8934 15.5824 60.0188 15.8906 60.0188C16.1988 60.0188 16.5012 59.8934 16.719 59.6754C16.937 59.4575 17.0625 59.1551 17.0625 58.8469C17.0625 58.5375 16.9371 58.2364 16.719 58.0184Z" fill="black"/>
<path d="M25.4356 49.299C24.9782 48.8414 24.2364 48.8414 23.7783 49.299L17.9838 55.0934C17.5262 55.551 17.5262 56.293 17.9838 56.7506C18.2127 56.9795 18.5126 57.0939 18.8125 57.0939C19.1124 57.0939 19.4122 56.9794 19.6411 56.7506L25.4356 50.9563C25.8932 50.4987 25.8932 49.7566 25.4356 49.299Z" fill="black"/>
<path d="M45.4317 48.8541C44.974 48.3966 44.2322 48.3966 43.7745 48.8541L37.9643 54.6643C37.5067 55.1219 37.5067 55.8639 37.9643 56.3216C38.1932 56.5504 38.4931 56.6649 38.7929 56.6649C39.0928 56.6649 39.3927 56.5504 39.6216 56.3216L45.4317 50.5115C45.8893 50.0539 45.8893 49.3118 45.4317 48.8541Z" fill="black"/>
<path d="M33.223 16.0619C33.0051 15.8439 32.7027 15.7185 32.3945 15.7185C32.0863 15.7185 31.784 15.8439 31.566 16.0619C31.3482 16.2798 31.2227 16.5822 31.2227 16.8916C31.2227 17.1998 31.348 17.5009 31.566 17.7189C31.784 17.938 32.0863 18.0623 32.3945 18.0623C32.7027 18.0623 33.0051 17.938 33.223 17.7189C33.4409 17.5009 33.5664 17.1998 33.5664 16.8916C33.5664 16.5822 33.441 16.2798 33.223 16.0619Z" fill="black"/>
</g>
<defs>
<clipPath id="clip0">
<rect width="60" height="60" fill="white" transform="translate(0 0.0878906)"/>
</clipPath>
</defs>
</svg>
