<svg width="52" height="53" viewBox="0 0 52 53" fill="none" xmlns="http://www.w3.org/2000/svg">
<g clip-path="url(#clip0)">
<path d="M18.0039 33.1887L19.1557 34.3401C22.9754 30.5295 29.1584 30.5295 32.9782 34.3401L34.1316 33.1887C29.6783 28.7346 22.4572 28.7346 18.0039 33.1887Z" fill="white"/>
<path d="M20.3047 35.4927L21.4561 36.6445C24.0031 34.1043 28.1251 34.1043 30.6721 36.6445L31.8235 35.4927C28.6406 32.3169 23.4877 32.3169 20.3047 35.4927Z" fill="white"/>
<path d="M22.6094 37.7971L23.7612 38.9489C25.0498 37.7172 27.0798 37.7172 28.3684 38.9489L29.5202 37.7971C27.6115 35.8892 24.518 35.8892 22.6094 37.7971Z" fill="white"/>
<path d="M27.6956 41.2526C27.6956 42.1523 26.9662 42.8817 26.0666 42.8817C25.1669 42.8817 24.4375 42.1523 24.4375 41.2526C24.4375 40.353 25.1669 39.6235 26.0666 39.6235C26.9662 39.6235 27.6956 40.353 27.6956 41.2526Z" fill="white"/>
<path d="M51.9999 5.95019C52.0023 5.06566 51.4331 4.28055 50.5911 4.00772C49.7496 3.73528 48.828 4.03715 48.311 4.75543L36.6191 20.8891C35.733 20.9081 35.0247 21.632 35.0251 22.5181V23.3327H16.9748V22.5181C16.9752 21.632 16.2669 20.9081 15.3807 20.8891L3.68729 4.75305C3.03065 3.84704 1.7643 3.6442 0.857888 4.30004C0.32136 4.67867 0.00159089 5.29395 0 5.95019C0.00278406 6.37973 0.139601 6.79734 0.390962 7.14535L11.3148 22.2222C11.2917 22.3193 11.2778 22.4183 11.2731 22.5181V23.3327H5.70175C4.35228 23.3327 3.25815 24.4268 3.25815 25.7763V47.7688C3.25815 49.1182 4.35228 50.2124 5.70175 50.2124H46.4286C47.778 50.2124 48.8722 49.1182 48.8722 47.7688V25.7763C48.8722 24.4268 47.778 23.3327 46.4286 23.3327H40.7268V22.5181C40.722 22.4179 40.7081 22.3181 40.6847 22.2206L51.6149 7.13541C51.8634 6.79018 51.9979 6.37576 51.9999 5.95019ZM36.6541 22.5181L39.0977 22.5237V23.3327H36.6541V22.5181ZM12.9021 22.5181H15.3457V23.3327H12.9021V22.5181ZM1.62907 5.95019C1.63186 5.81895 1.69907 5.69684 1.80924 5.62446C1.87685 5.57395 1.95918 5.5469 2.0435 5.5473C2.06458 5.5473 2.08566 5.54889 2.10634 5.55207C2.21253 5.56957 2.30719 5.62804 2.37043 5.71514L13.3675 20.8891H12.9021C12.7498 20.8906 12.5979 20.9137 12.4519 20.9575C12.4404 20.9575 12.4272 20.9575 12.4153 20.963L1.71617 6.19877C1.66208 6.12718 1.63146 6.04008 1.62907 5.95019ZM46.4286 24.9617C46.8784 24.9617 47.2431 25.3265 47.2431 25.7763V47.7688C47.2431 48.2186 46.8784 48.5833 46.4286 48.5833H5.70175C5.25193 48.5833 4.88722 48.2186 4.88722 47.7688V25.7763C4.88722 25.3265 5.25193 24.9617 5.70175 24.9617H46.4286ZM50.2897 6.18883L39.5865 20.963C39.575 20.9591 39.5619 20.963 39.5507 20.9575C39.4036 20.9133 39.2513 20.8903 39.0977 20.8891H38.6328L49.629 5.71514C49.6927 5.62565 49.7901 5.56639 49.8991 5.55088C50.0077 5.53537 50.1178 5.5652 50.2038 5.63361C50.3088 5.70639 50.3716 5.82571 50.3724 5.95377C50.37 6.03889 50.341 6.12122 50.2897 6.18883Z" fill="white"/>
<path d="M7.33203 45.3253H8.9611V46.9544H7.33203V45.3253Z" fill="white"/>
<path d="M11.4023 45.3253H13.0314V46.9544H11.4023V45.3253Z" fill="white"/>
<path d="M15.4766 45.3253H17.1056V46.9544H15.4766V45.3253Z" fill="white"/>
</g>
<defs>
<clipPath id="clip0">
<rect width="52" height="52" fill="white" transform="translate(0 0.984619)"/>
</clipPath>
</defs>
</svg>
