<svg width="52" height="63" viewBox="0 0 52 63" fill="none" xmlns="http://www.w3.org/2000/svg">
<path d="M34.7291 8.54384C34.1145 4.23656 30.3653 0.988037 26.0085 0.988037C23.2067 0.988037 20.5457 2.3401 18.8912 4.60608C18.5532 5.0682 18.6544 5.71645 19.1165 6.05439C19.5771 6.39111 20.2268 6.29122 20.5642 5.82849C21.8306 4.09568 23.8655 3.06091 26.0082 3.06091C29.3403 3.06091 32.2068 5.54399 32.6768 8.83623C32.7509 9.35331 33.1945 9.72647 33.7019 9.72647C33.7502 9.72647 33.8 9.72283 33.8495 9.71615C34.416 9.63508 34.8098 9.11011 34.7291 8.54384Z" fill="#FF9927"/>
<path d="M49.698 20.1463L46.5888 14.9643C46.4018 14.6519 46.0644 14.4612 45.7001 14.4612H42.7206C42.1485 14.4612 41.6843 14.9254 41.6843 15.4975C41.6843 16.0695 42.1485 16.5337 42.7206 16.5337H45.1135L46.979 19.6429H5.03844L6.90393 16.5337H8.00155C8.57358 16.5337 9.03783 16.0695 9.03783 15.4975C9.03783 14.9254 8.57358 14.4612 8.00155 14.4612H6.31732C5.95297 14.4612 5.61563 14.6519 5.4286 14.9643L2.31944 20.1463C2.12724 20.467 2.12269 20.8656 2.30638 21.1905C2.49008 21.5154 2.83439 21.7164 3.20816 21.7164H48.8092C49.183 21.7164 49.527 21.5154 49.711 21.1905C49.895 20.8656 49.8902 20.4663 49.698 20.1463Z" fill="#FF9927"/>
<path d="M44.5367 10.5898C44.3916 10.3557 44.1599 10.1897 43.8921 10.1271L29.7639 6.82273C29.4964 6.75987 29.2147 6.80663 28.9809 6.95116C28.7477 7.09629 28.5813 7.32796 28.5188 7.59576L27.4533 12.1502C27.3228 12.7074 27.6689 13.2648 28.2264 13.3948C28.7835 13.5253 29.3416 13.1792 29.4715 12.6217L30.3011 9.07686L42.4107 11.9094L40.5078 20.0451C40.3773 20.6023 40.7234 21.1598 41.2809 21.2897C41.3607 21.3082 41.44 21.3171 41.5183 21.3171C41.9889 21.3171 42.4149 20.9946 42.5258 20.517L44.6648 11.3723C44.728 11.1048 44.6818 10.823 44.5367 10.5898Z" fill="#FF9927"/>
<path d="M26.5628 13.0401L25.6185 5.05316C25.5863 4.7802 25.4469 4.53092 25.2307 4.36088C25.0146 4.19085 24.7416 4.11312 24.4674 4.14531L7.13324 6.19419C6.56515 6.2616 6.1589 6.77655 6.226 7.34525L7.80032 20.6664C7.86286 21.1938 8.31011 21.5815 8.8284 21.5815C8.86879 21.5815 8.91038 21.5788 8.95168 21.5742C9.51946 21.5068 9.92572 20.9918 9.85892 20.4231L8.40606 8.13043L23.6819 6.32506L24.5042 13.2827C24.5716 13.8511 25.0841 14.2549 25.6552 14.1906C26.2233 14.1238 26.6296 13.6085 26.5628 13.0401Z" fill="#FF9927"/>
<path d="M34.7541 20.2854L32.697 11.731C32.6327 11.4641 32.4648 11.233 32.2307 11.0894C31.9966 10.947 31.7157 10.9024 31.447 10.9662L14.7514 14.9813C14.1948 15.1149 13.8523 15.6748 13.9859 16.2314L15.014 20.5071C15.1476 21.0642 15.7075 21.407 16.2637 21.2725C16.8203 21.1389 17.1628 20.579 17.0292 20.0225L16.2431 16.7542L30.9235 13.2242L32.7383 20.7706C32.8522 21.2458 33.2773 21.5646 33.7452 21.5646C33.8256 21.5646 33.907 21.5552 33.9887 21.5355C34.5452 21.4016 34.8877 20.842 34.7541 20.2854Z" fill="#FF9927"/>
<path d="M49.8476 20.6267C49.8191 20.0759 49.3643 19.6436 48.8123 19.6436H3.21117C2.65918 19.6436 2.20434 20.0756 2.1758 20.6267L0.102928 61.0458C0.0883535 61.3293 0.19098 61.6069 0.386517 61.8127C0.582358 62.0183 0.853801 62.1352 1.138 62.1352H50.8845C51.1684 62.1352 51.4402 62.0186 51.6369 61.8127C51.8322 61.6069 51.9348 61.3297 51.9205 61.0458L49.8476 20.6267ZM2.22863 60.0623L4.19524 21.7161H47.827L49.7936 60.0623H2.22863Z" fill="#FF9927"/>
<path d="M33.7889 23.7891C32.0743 23.7891 30.6797 25.1836 30.6797 26.8982C30.6797 28.6128 32.0743 30.0074 33.7889 30.0074C35.5034 30.0074 36.898 28.6128 36.898 26.8982C36.898 25.1836 35.5034 23.7891 33.7889 23.7891ZM33.7889 27.9348C33.2171 27.9348 32.7526 27.47 32.7526 26.8985C32.7526 26.3271 33.2174 25.8622 33.7889 25.8622C34.3603 25.8622 34.8251 26.3271 34.8251 26.8985C34.8251 27.47 34.3603 27.9348 33.7889 27.9348Z" fill="#FF9927"/>
<path d="M18.2381 23.7891C16.5235 23.7891 15.1289 25.1836 15.1289 26.8982C15.1289 28.6128 16.5235 30.0074 18.2381 30.0074C19.9527 30.0074 21.3472 28.6128 21.3472 26.8982C21.3472 25.1836 19.9527 23.7891 18.2381 23.7891ZM18.2381 27.9348C17.6666 27.9348 17.2018 27.47 17.2018 26.8985C17.2018 26.3271 17.6666 25.8622 18.2381 25.8622C18.8095 25.8622 19.2743 26.3271 19.2743 26.8985C19.2743 27.47 18.8095 27.9348 18.2381 27.9348Z" fill="#FF9927"/>
<path d="M33.7891 26.8975H33.7092C33.1372 26.8975 32.6729 27.3617 32.6729 27.9337C32.6729 28.0752 32.7009 28.2104 32.7528 28.3333V33.6338C32.7528 37.3481 29.7308 40.3704 26.0162 40.3704C22.3016 40.3704 19.2796 37.3484 19.2796 33.6338V27.934C19.2796 27.362 18.8154 26.8978 18.2433 26.8978C17.6713 26.8978 17.207 27.362 17.207 27.934V33.6341C17.207 38.4915 21.1588 42.4433 26.0162 42.4433C30.8736 42.4433 34.8254 38.4915 34.8254 33.6341V27.934C34.8254 27.362 34.3611 26.8975 33.7891 26.8975Z" fill="#FF9927"/>
</svg>
