<svg width="62" height="63" viewBox="0 0 62 63" fill="none" xmlns="http://www.w3.org/2000/svg">
<g clip-path="url(#clip0)">
<path d="M26.8656 19.7212C25.1565 19.7212 23.7656 21.1121 23.7656 22.8212H25.8323C25.8323 22.2518 26.2952 21.7879 26.8656 21.7879C27.436 21.7879 27.899 22.2518 27.899 22.8212H29.9656C29.9656 21.1121 28.5748 19.7212 26.8656 19.7212Z" fill="black"/>
<path d="M35.1352 19.7212C33.426 19.7212 32.0352 21.1121 32.0352 22.8212H34.1018C34.1018 22.2518 34.5648 21.7879 35.1352 21.7879C35.7056 21.7879 36.1685 22.2518 36.1685 22.8212H38.2352C38.2352 21.1121 36.8443 19.7212 35.1352 19.7212Z" fill="black"/>
<path d="M31.0005 47.6213C28.721 47.6213 26.8672 49.4751 26.8672 51.7547C26.8672 54.0342 28.721 55.888 31.0005 55.888C33.2801 55.888 35.1339 54.0342 35.1339 51.7547C35.1339 49.4751 33.2801 47.6213 31.0005 47.6213ZM31.0005 53.8213C29.8608 53.8213 28.9339 52.8944 28.9339 51.7547C28.9339 50.6149 29.8608 49.688 31.0005 49.688C32.1403 49.688 33.0672 50.6149 33.0672 51.7547C33.0672 52.8944 32.1403 53.8213 31.0005 53.8213Z" fill="black"/>
<path d="M55.8 60.0212V46.5879C55.8 38.0412 48.8467 31.0879 40.3 31.0879H39.1747C39.5426 30.7645 39.8887 30.4193 40.2163 30.0546H41.3333C44.1822 30.0546 46.5 27.7368 46.5 24.8879V23.0672C47.7452 22.2322 48.5667 20.8124 48.5667 19.2046C48.5667 17.5905 47.739 16.1686 46.4876 15.3347C46.3502 6.90582 39.462 0.0878906 31 0.0878906C22.538 0.0878906 15.6498 6.90582 15.5124 15.3347C14.261 16.1686 13.4333 17.5905 13.4333 19.2046C13.4333 21.7683 15.5196 23.8546 18.0833 23.8546H18.787C19.2706 26.7179 20.7338 29.2465 22.8263 31.0879H21.7C13.1533 31.0879 6.2 38.0412 6.2 46.5879V60.0212H0V62.0879H7.23333H12.4H49.6H54.7667H62V60.0212H55.8ZM44.4333 24.8879C44.4333 26.4555 43.2595 27.7409 41.7477 27.9455C42.4638 26.7004 42.966 25.3209 43.213 23.8546H43.9167C44.0934 23.8546 44.2618 23.8215 44.4333 23.8019V24.8879ZM46.5 19.2046C46.5 20.6285 45.3416 21.7879 43.9167 21.7879H43.4V16.6212H43.9167C45.3416 16.6212 46.5 17.7806 46.5 19.2046ZM18.6 21.7879H18.0833C16.6584 21.7879 15.5 20.6285 15.5 19.2046C15.5 17.7806 16.6584 16.6212 18.0833 16.6212H18.6V21.7879ZM18.0833 14.5546C17.9232 14.5546 17.7723 14.5856 17.6163 14.6021C18.1247 7.65499 23.9258 2.15456 31 2.15456C38.0742 2.15456 43.8753 7.65499 44.3837 14.6021C44.2277 14.5856 44.0768 14.5546 43.9167 14.5546H43.213C42.2251 8.69969 37.1318 4.22122 31 4.22122C24.8682 4.22122 19.7749 8.69969 18.787 14.5546H18.0833ZM41.3323 16.5954C33.8747 16.3329 28.9333 13.2836 28.9333 10.4212C28.9333 9.85082 28.4714 9.38789 27.9 9.38789C27.3286 9.38789 26.8667 9.85082 26.8667 10.4212C26.8667 13.0035 24.1965 15.1436 20.7266 15.5228C21.2774 10.3396 25.6742 6.28789 31 6.28789C36.6885 6.28789 41.3178 10.91 41.3323 16.5954ZM20.6667 21.7879V17.5967C23.8938 17.3167 26.6321 15.7605 27.9992 13.5812C30.1609 16.4456 35.2129 18.4616 41.3333 18.6672V21.7879C41.3333 24.116 40.5501 26.2581 39.247 27.9879H31V30.0546H37.1731C36.58 30.4989 35.9404 30.8812 35.2584 31.1912C32.5469 32.423 29.4521 32.423 26.7396 31.1912C23.1642 29.5648 20.6667 25.9667 20.6667 21.7879ZM27.806 33.756C28.8269 34.0288 29.8943 34.1879 31 34.1879C32.1057 34.1879 33.1731 34.0288 34.194 33.756L31 40.144L27.806 33.756ZM29.3281 41.4212H27.5053L23.3719 33.1546H25.1947L29.3281 41.4212ZM36.8053 33.1546H38.6281L34.4947 41.4212H32.6719L36.8053 33.1546ZM11.3667 46.5879V60.0212H8.26667V46.5879C8.26667 39.3907 13.9603 33.5152 21.0769 33.1866L25.1947 41.4212H16.5333C13.6844 41.4212 11.3667 43.739 11.3667 46.5879ZM48.5667 60.0212H13.4333V46.5879C13.4333 44.8788 14.8242 43.4879 16.5333 43.4879H26.8667H31H35.1333H45.4667C47.1758 43.4879 48.5667 44.8788 48.5667 46.5879V60.0212ZM53.7333 60.0212H50.6333V46.5879C50.6333 43.739 48.3156 41.4212 45.4667 41.4212H36.8053L40.9231 33.1866C48.0397 33.5152 53.7333 39.3907 53.7333 46.5879V60.0212Z" fill="black"/>
<path d="M46.5003 50.7212H44.4336V57.9545H46.5003V50.7212Z" fill="black"/>
<path d="M46.5003 46.5879H44.4336V48.6546H46.5003V46.5879Z" fill="black"/>
</g>
<defs>
<clipPath id="clip0">
<rect width="62" height="62" fill="white" transform="translate(0 0.0878906)"/>
</clipPath>
</defs>
</svg>
