<svg width="53" height="54" viewBox="0 0 53 54" fill="none" xmlns="http://www.w3.org/2000/svg">
<g clip-path="url(#clip0)">
<path d="M47.1934 34.6768C47.1432 34.591 47.0903 34.509 47.0374 34.4365C46.5123 33.6883 45.7313 33.1937 44.8404 33.0443C43.9538 32.895 43.0551 33.1079 42.3236 33.6433L32.6343 40.695H22.5116C22.0341 40.695 21.645 40.2992 21.645 39.8117C21.645 39.3241 22.0341 38.9284 22.5116 38.9284H28.145C29.8176 38.9284 31.1784 37.5416 31.1784 35.8367C31.1784 35.8269 31.1774 35.7457 31.1766 35.7369C31.1229 34.0329 29.7128 32.7044 28.0757 32.7451H16.8013C15.802 32.7538 14.8287 33.1187 14.0617 33.7706L9.82372 37.3658C9.62608 37.5345 9.51172 37.7827 9.51172 38.0451V48.6451C9.51172 49.1335 9.89999 49.5284 10.3784 49.5284H31.8813C33.2887 49.5266 34.6598 49.0213 35.7432 48.1071L46.2498 39.2588C47.6771 38.2224 48.0914 36.2102 47.1934 34.6768ZM45.1958 37.8585L34.6389 46.7458C33.8641 47.3995 32.8839 47.7598 31.8803 47.7615H11.245V38.4591L15.1718 35.1272C15.6329 34.7359 16.2162 34.5167 16.809 34.5114L28.1033 34.5106C28.8218 34.5097 29.4215 35.0636 29.445 35.8365C29.445 36.5671 28.8617 37.1615 28.145 37.1615H22.5116C21.0782 37.1615 19.9116 38.3505 19.9116 39.8115C19.9116 41.2726 21.0782 42.4615 22.5116 42.4615H32.9116C33.0919 42.4615 33.2678 42.4041 33.4169 42.2973L43.3333 35.0795C43.6903 34.8181 44.1245 34.7165 44.5596 34.7871C44.9938 34.8604 45.3734 35.1007 45.6343 35.4717C45.6603 35.5079 45.6836 35.5449 45.7062 35.5829C46.1448 36.3312 45.9411 37.3143 45.1958 37.8585Z" fill="#FFA642"/>
<path d="M10.355 36.2781H0.847656V38.0448H9.48829V51.2948H0.847656V53.0614H10.355C10.8334 53.0614 11.2217 52.6666 11.2217 52.1781V37.1614C11.2217 36.6729 10.8334 36.2781 10.355 36.2781Z" fill="#FFA642"/>
<path d="M5.18203 44.2283C3.74858 44.2283 2.58203 45.4173 2.58203 46.8783C2.58203 48.3393 3.74858 49.5283 5.18203 49.5283C6.61548 49.5283 7.78203 48.3393 7.78203 46.8783C7.78203 45.4173 6.61548 44.2283 5.18203 44.2283ZM5.18203 47.7616C4.70448 47.7616 4.3154 47.3658 4.3154 46.8783C4.3154 46.3907 4.70448 45.995 5.18203 45.995C5.65958 45.995 6.04866 46.3907 6.04866 46.8783C6.04866 47.3658 5.65958 47.7616 5.18203 47.7616Z" fill="#FFA642"/>
<path d="M51.981 27.4446H1.71429C1.23593 27.4446 0.847656 27.8394 0.847656 28.3279C0.847656 31.7367 3.56902 34.5112 6.91429 34.5112H46.7809C50.1254 34.5112 52.8476 31.7367 52.8476 28.3279C52.8477 27.8395 52.4603 27.4446 51.981 27.4446ZM46.781 32.7446H6.91429C4.82129 32.7446 3.07066 31.2244 2.66847 29.2113H51.0267C50.6247 31.2244 48.874 32.7446 46.781 32.7446Z" fill="#FFA642"/>
<path d="M26.8459 4.47827C14.4213 4.47827 4.3125 14.7815 4.3125 27.445V28.3283C4.3125 28.8168 4.70077 29.2116 5.17913 29.2116H48.5125C48.9918 29.2116 49.3791 28.8168 49.3791 28.3283V27.445C49.3792 14.7814 39.2712 4.47827 26.8459 4.47827ZM6.04587 27.4449C6.04587 15.7557 15.3772 6.24487 26.8459 6.24487C38.3145 6.24487 47.6459 15.7557 47.6459 27.4449H6.04587Z" fill="#FFA642"/>
<path d="M12.5911 14.5544C11.9852 15.2487 11.4237 15.9917 10.9219 16.7637L12.3666 17.7397C12.8242 17.0365 13.3355 16.359 13.8867 15.7275L12.5911 14.5544Z" fill="#FFA642"/>
<path d="M26.8484 8.01172C21.9812 8.01441 17.3471 9.88877 13.8008 13.287L14.9881 14.574C18.2121 11.484 22.425 9.78101 26.8493 9.77842L26.8484 8.01172Z" fill="#FFA642"/>
<path d="M29.45 0.0615234H24.25V1.82822H29.45V0.0615234Z" fill="#FFA642"/>
<path d="M27.7138 0.94458H25.9805V5.36128H27.7138V0.94458Z" fill="#FFA642"/>
</g>
<defs>
<clipPath id="clip0">
<rect width="52" height="53" fill="white" transform="translate(0.847656 0.0615234)"/>
</clipPath>
</defs>
</svg>
