<svg width="62" height="63" viewBox="0 0 62 63" fill="none" xmlns="http://www.w3.org/2000/svg">
<g clip-path="url(#clip0)">
<path d="M39.0579 30.1857L27.2993 22.7029C26.97 22.4945 26.5531 22.4806 26.21 22.6676C25.869 22.8558 25.6562 23.2149 25.6562 23.6051V38.5706C25.6562 38.9608 25.869 39.32 26.211 39.5081C26.3714 39.5958 26.5478 39.6396 26.7252 39.6396C26.9251 39.6396 27.125 39.5829 27.2993 39.4728L39.0579 31.9901C39.3657 31.7934 39.5528 31.4535 39.5528 31.0879C39.5528 30.7223 39.3657 30.3824 39.0579 30.1857ZM27.7942 36.624V25.5517L36.4924 31.0879L27.7942 36.624Z" fill="black"/>
<path d="M60.931 6.50171H50.2414H11.7586H1.06897C0.478897 6.50171 0 6.97954 0 7.57067V19.3293V31.0879V42.8465V54.6052C0 55.1963 0.478897 55.6741 1.06897 55.6741H11.7586H50.2414H60.931C61.5211 55.6741 62 55.1963 62 54.6052V42.8465V31.0879V19.3293V7.57067C62 6.97954 61.5211 6.50171 60.931 6.50171ZM10.6897 30.019H2.13793V20.3983H10.6897V30.019ZM2.13793 32.1569H10.6897V41.7776H2.13793V32.1569ZM12.8276 42.8465V31.0879V19.3293V8.63964H49.1724V19.3293V31.0879V42.8465V53.5362H12.8276V42.8465ZM59.8621 30.019H51.3103V20.3983H59.8621V30.019ZM51.3103 32.1569H59.8621V41.7776H51.3103V32.1569ZM59.8621 8.63964V18.2603H51.3103V8.63964H59.8621ZM2.13793 8.63964H10.6897V18.2603H2.13793V8.63964ZM2.13793 53.5362V43.9155H10.6897V53.5362H2.13793ZM59.8621 53.5362H51.3103V43.9155H59.8621V53.5362Z" fill="black"/>
</g>
<defs>
<clipPath id="clip0">
<rect width="62" height="62" fill="white" transform="translate(0 0.0878906)"/>
</clipPath>
</defs>
</svg>
