<svg width="53" height="38" viewBox="0 0 53 38" fill="none" xmlns="http://www.w3.org/2000/svg">
<path d="M52.5606 18.2964C52.082 7.92734 43.2881 -0.0905479 32.919 0.388166C23.22 0.835897 15.4584 8.59748 15.0107 18.2964H12.3493L9.83598 14.2431C9.67793 13.9882 9.3993 13.8332 9.09933 13.8332H1.4528C0.974193 13.8331 0.586152 14.2211 0.586043 14.6998C0.586043 14.8612 0.631109 15.0194 0.716149 15.1566L3.21816 19.19L0.716149 23.2242C0.463954 23.631 0.589185 24.1652 0.995967 24.4175C1.13311 24.5025 1.29139 24.5476 1.4528 24.5476H9.09923C9.39919 24.5476 9.67782 24.3925 9.83587 24.1376L12.3829 20.0297H15.0106C15.4892 30.3988 24.2831 38.4167 34.6522 37.938C45.0213 37.4593 53.0392 28.6657 52.5606 18.2964ZM8.6165 22.8143H3.00756L4.70099 20.0843H10.3073L8.6165 22.8143ZM4.70359 18.2964L3.00756 15.5665H8.6165L10.3099 18.2964H4.70359ZM33.8292 36.2265C24.7338 36.2383 17.2279 29.1135 16.7664 20.0297H20.3067C20.7853 27.4811 27.2139 33.1337 34.6652 32.6549C42.1165 32.1762 47.7691 25.7478 47.2904 18.2964C46.8117 10.8451 40.3832 5.19253 32.9319 5.67124C26.1479 6.10706 20.7424 11.5124 20.3067 18.2964H16.7664C17.2305 9.23176 24.7082 2.11583 33.7848 2.10142C43.2082 2.08918 50.8573 9.71838 50.8695 19.1418C50.8818 28.5651 43.2526 36.2143 33.8292 36.2265ZM33.7839 18.2964H32.8965C33.3751 17.8039 34.1624 17.7925 34.655 18.2711C35.1476 18.7497 35.159 19.5371 34.6804 20.0297C34.2018 20.5224 33.4144 20.5337 32.9217 20.055C32.9132 20.0466 32.9047 20.0382 32.8965 20.0297H33.7839C34.2625 20.0297 34.6506 19.6417 34.6506 19.1631C34.6506 18.6845 34.2625 18.2964 33.7839 18.2964ZM34.6689 22.0102C36.2413 21.5316 37.128 19.8689 36.6493 18.2966C36.1707 16.7241 34.5079 15.8374 32.9356 16.3162C31.9866 16.605 31.244 17.3477 30.9552 18.2966H27.3326C27.8112 14.7302 31.0904 12.227 34.6569 12.7056C38.2233 13.1842 40.7264 16.4634 40.2478 20.0299C39.7692 23.5963 36.49 26.0994 32.9236 25.6208C30.0129 25.2302 27.7232 22.9406 27.3326 20.0299H30.9552C31.4338 21.6022 33.0966 22.4888 34.6689 22.0102ZM34.6518 27.3662C39.1822 26.8876 42.4669 22.827 41.9883 18.2964C41.5097 13.7661 37.449 10.4813 32.9185 10.96C29.0487 11.3688 25.9908 14.4265 25.582 18.2964H22.04C22.5186 11.8046 28.1694 6.92994 34.6611 7.40865C41.1528 7.88737 46.0276 13.538 45.5489 20.0297C45.0702 26.5215 39.4195 31.3962 32.9278 30.9176C27.1018 30.4881 22.4695 25.8558 22.04 20.0297H25.582C26.0606 24.5602 30.1213 27.8448 34.6518 27.3662Z" fill="white"/>
</svg>
