<svg width="53" height="53" viewBox="0 0 53 53" fill="none" xmlns="http://www.w3.org/2000/svg">
<path d="M48.0876 0.986694H20.4358C18.1552 1.10308 16.396 3.03829 16.4968 5.3197V40.8501C16.4968 40.8631 16.5036 40.8738 16.5042 40.8866C16.5071 40.9845 16.5266 41.0813 16.562 41.1726L16.5674 41.1909L16.5688 41.1958L18.6198 45.9087C18.8706 46.5107 19.4547 46.9065 20.1067 46.9162H20.8299V50.3825C20.8328 50.6785 20.8869 50.9717 20.9896 51.2491H10.4306V35.6504C10.4291 34.2153 9.26595 33.0522 7.83079 33.0506V18.2584C11.4624 17.8009 14.1125 14.599 13.8833 10.9459C13.6541 7.29279 10.6244 4.44725 6.96413 4.44725C3.30382 4.44725 0.274264 7.29279 0.0450564 10.9459C-0.184151 14.599 2.466 17.8009 6.09757 18.2584V33.0506C4.66241 33.0522 3.49931 34.2153 3.49779 35.6504V51.2491H0.898008C0.419384 51.2491 0.0314481 51.637 0.0314481 52.1157C0.0314481 52.5943 0.419384 52.9822 0.898008 52.9822H51.1604C51.639 52.9822 52.027 52.5942 52.027 52.1157C52.027 51.6371 51.639 51.2491 51.1604 51.2491H47.5343C47.6371 50.9716 47.6911 50.6784 47.694 50.3825V46.9162H48.4167C49.0685 46.9062 49.6523 46.511 49.9037 45.9096L51.9551 41.1958L51.9565 41.1912C51.9591 41.185 51.9596 41.1782 51.9622 41.1719C51.9977 41.0803 52.0173 40.9833 52.02 40.8851C52.0205 40.8728 52.0271 40.8625 52.0271 40.8501V5.3197C52.1278 3.03819 50.3684 1.10297 48.0876 0.986694ZM1.76467 11.3858C1.76467 8.51418 4.09259 6.18626 6.96423 6.18626C9.83587 6.18626 12.1638 8.51418 12.1638 11.3858C12.1638 14.2575 9.83587 16.5854 6.96423 16.5854C4.09381 16.5822 1.76782 14.2561 1.76467 11.3858ZM8.69735 51.2492H5.23101V35.6505C5.23162 35.1722 5.61925 34.7846 6.09757 34.784H7.83079C8.30911 34.7846 8.69674 35.1722 8.69735 35.6505V51.2492ZM26.0293 50.3825C26.0287 50.8609 25.641 51.2485 25.1627 51.2491H23.4295C22.9512 51.2485 22.5635 50.8609 22.5629 50.3825V46.9162H26.0293V50.3825ZM27.6027 51.2492C27.7055 50.9717 27.7595 50.6785 27.7624 50.3826V46.9163H40.7613V50.3826C40.7642 50.6786 40.8183 50.9718 40.921 51.2492H27.6027ZM45.961 50.3825C45.9604 50.861 45.5728 51.2487 45.0944 51.2491H43.3612C42.8828 51.2486 42.495 50.861 42.4946 50.3825V46.9162H45.961V50.3825ZM48.3297 45.183H20.1942L18.6857 41.7166H49.8387L48.3297 45.183ZM30.3623 39.9834V38.2502C30.3629 37.7719 30.7505 37.3842 31.2288 37.3836H37.2949C37.7733 37.3842 38.1609 37.7719 38.1615 38.2502V39.9834H30.3623ZM50.2939 5.3197V39.9834H39.8947V38.2502C39.8932 36.815 38.7301 35.6519 37.2949 35.6504H31.2288C29.7937 35.6519 28.6306 36.815 28.629 38.2502V39.9834H18.2299V5.3197C18.1319 3.99614 19.1139 2.83873 20.4358 2.71992H48.0876C49.4095 2.83873 50.3918 3.99604 50.2939 5.3197Z" fill="white"/>
<path d="M45.9587 4.45312H22.5607C21.1256 4.45465 19.9625 5.61775 19.9609 7.05291V7.91947C19.9625 9.35463 21.1256 10.5177 22.5607 10.5192H45.9587C47.3939 10.5177 48.557 9.35463 48.5585 7.91947V7.05291C48.5569 5.61775 47.3939 4.45465 45.9587 4.45312ZM46.8253 7.91947C46.8248 8.39789 46.4371 8.78562 45.9587 8.78603H22.5607C22.0824 8.78542 21.6948 8.39779 21.6942 7.91947V7.05291C21.6948 6.57459 22.0824 6.18696 22.5607 6.18635H45.9587C46.4372 6.18685 46.8249 6.57449 46.8253 7.05291V7.91947Z" fill="white"/>
<path d="M23.4273 31.3175C21.5129 31.3175 19.9609 32.8695 19.9609 34.7838C19.9632 36.6973 21.5138 38.2481 23.4273 38.2502C25.3417 38.2502 26.8936 36.6982 26.8936 34.7838C26.8936 32.8695 25.3417 31.3175 23.4273 31.3175ZM23.4273 36.5171C22.47 36.5171 21.6941 35.7411 21.6941 34.7838C21.695 33.827 22.4704 33.0516 23.4273 33.0506C24.3845 33.0506 25.1605 33.8266 25.1605 34.7838C25.1605 35.7411 24.3845 36.5171 23.4273 36.5171Z" fill="white"/>
<path d="M45.0952 31.3175C43.1809 31.3175 41.6289 32.8695 41.6289 34.7838C41.6289 36.6982 43.1809 38.2502 45.0952 38.2502C47.0096 38.2502 48.5616 36.6982 48.5616 34.7838C48.5597 32.8703 47.0088 31.3195 45.0952 31.3175ZM45.0952 36.5171C44.138 36.5171 43.362 35.7411 43.362 34.7838C43.362 33.8266 44.138 33.0506 45.0952 33.0506C46.0525 33.0506 46.8285 33.8266 46.8285 34.7838C46.8274 35.7406 46.0521 36.516 45.0952 36.5171Z" fill="white"/>
<path d="M45.9587 12.2524H22.5607C21.1256 12.254 19.9625 13.4171 19.9609 14.8522V26.9846C19.9625 28.4197 21.1256 29.5828 22.5607 29.5844H45.9587C47.3939 29.5828 48.557 28.4197 48.5585 26.9846V14.8522C48.5569 13.4171 47.3939 12.254 45.9587 12.2524ZM46.8253 26.9845C46.8248 27.4629 46.4371 27.8506 45.9587 27.851H22.5607C22.0824 27.8504 21.6948 27.4628 21.6942 26.9845V14.8522C21.6948 14.3739 22.0824 13.9863 22.5607 13.9857H45.9587C46.4372 13.9862 46.8249 14.3738 46.8253 14.8522V26.9845Z" fill="white"/>
</svg>
