<svg width="52" height="53" viewBox="0 0 52 53" fill="none" xmlns="http://www.w3.org/2000/svg">
<g clip-path="url(#clip0)">
<path d="M26.0092 0.093262C15.606 0.0917456 6.20371 6.29286 2.10903 15.8564L1.78496 15.9638L1.9106 16.3407C-3.48068 29.6376 2.92796 44.7874 16.2248 50.1786C19.3304 51.4379 22.6503 52.0843 26.0015 52.0824C40.3579 52.0846 51.9978 40.4481 52 26.0917C52.0022 11.7354 40.3657 0.0953199 26.0092 0.093262ZM46.399 39.1939L45.0642 37.8599V34.7527C45.0657 34.6186 45.036 34.486 44.9776 34.3654L41.5983 27.6163V24.3549C41.5983 24.0653 41.4537 23.7947 41.2127 23.634L38.6132 21.901C38.4095 21.7649 38.1577 21.7215 37.92 21.7814L34.7366 22.5768L29.3895 20.2824L28.6538 15.1285L30.6927 13.0906H35.0693L36.5423 15.3044C36.6753 15.5035 36.8849 15.6388 37.1211 15.6779L42.32 16.5444C42.4593 16.5678 42.6021 16.5564 42.736 16.5114L47.5242 14.9154C51.5402 22.6222 51.1107 31.8916 46.399 39.1939ZM42.8252 8.63162L41.4163 9.57089L37.4885 8.78498L34.9402 7.9367C34.7842 7.88373 34.6163 7.87702 34.4567 7.91763L31.2351 8.7226L29.8227 8.2521L30.8694 6.15866H33.7999C33.9343 6.15877 34.0669 6.12769 34.1872 6.06768L37.1852 4.56866C39.2499 5.64635 41.1492 7.01454 42.8252 8.63162ZM16.5109 3.7611L18.5905 5.14748C18.6927 5.21549 18.8082 5.26098 18.9293 5.28091L23.1282 5.98104L22.7184 7.20711L20.5305 7.93756C20.3346 8.00276 20.1683 8.13577 20.0618 8.31275L17.5732 12.4598L13.5761 14.8582L7.684 15.6995C7.25693 15.7599 6.93936 16.1252 6.93882 16.5565V19.156C6.93882 19.3858 7.03023 19.6061 7.1927 19.7686L8.67179 21.2477V22.7363L5.06721 20.3326L3.75968 16.4101C6.24736 10.7259 10.8069 6.20286 16.5109 3.7611ZM14.044 32.1706L10.1275 31.3864L8.67179 28.4828V26.4466L11.9003 23.218L13.0952 25.6087C13.242 25.9024 13.5423 26.088 13.8707 26.0878H19.4457L21.793 30C21.9496 30.2607 22.2314 30.4202 22.5356 30.4203H24.9444L24.3379 33.459L21.0573 36.7396C20.8946 36.9019 20.8029 37.1222 20.8026 37.3522V39.5184L17.6832 41.8579C17.4651 42.0216 17.3367 42.2784 17.3367 42.5511V45.6808L16.2587 45.3238L14.7372 41.5182V33.0197C14.7373 32.6079 14.4475 32.2529 14.044 32.1706ZM11.4393 45.4907C3.26958 39.3615 -0.18543 28.7714 2.79788 19.0035L3.51793 21.1627C3.57859 21.3455 3.69838 21.5028 3.85846 21.6098L8.17789 24.4892L7.1927 25.4752C7.03023 25.6377 6.93882 25.858 6.93882 26.0878V28.6873C6.93871 28.8217 6.9698 28.9543 7.0298 29.0746L8.76277 32.5406C8.88278 32.7799 9.10666 32.9504 9.36931 33.0024L13.0086 33.7294V41.6846C13.0084 41.7946 13.0294 41.9038 13.0701 42.0061L14.803 46.3385C14.8979 46.5752 15.0922 46.7581 15.3342 46.8385L17.9337 47.7049C18.0205 47.7344 18.1115 47.7496 18.2031 47.75C18.6817 47.75 19.0696 47.362 19.0696 46.8835V42.9843L22.189 40.6448C22.4071 40.4812 22.5356 40.2243 22.5356 39.9516V37.7109L25.7476 34.4988C25.8684 34.3778 25.9507 34.2237 25.9842 34.0561L26.8507 29.7236C26.9445 29.2543 26.6401 28.7979 26.1708 28.7041C26.115 28.6929 26.0584 28.6873 26.0015 28.6873H23.026L20.6787 24.7751C20.5221 24.5144 20.2402 24.355 19.9361 24.3549H14.4062L12.9176 21.3681C12.7929 21.1188 12.5559 20.9446 12.2807 20.9002C12.0056 20.8526 11.7247 20.9434 11.5295 21.1428L10.4048 22.2632V20.8889C10.4048 20.6591 10.3133 20.4388 10.1509 20.2763L8.67179 18.7972V17.3077L13.9937 16.5478C14.108 16.5313 14.218 16.4921 14.3169 16.4326L18.6494 13.8331C18.7709 13.7601 18.8727 13.6583 18.9457 13.5368L21.3805 9.47904L23.6759 8.71307C23.9351 8.62804 24.1385 8.42474 24.2235 8.16545L25.09 5.56599C25.2401 5.11162 24.9935 4.62152 24.5391 4.4714C24.4972 4.45754 24.4542 4.44692 24.4106 4.43956L19.3954 3.6034L18.5142 3.01592C23.9669 1.24114 29.8726 1.46079 35.1785 3.63546L33.5954 4.42569H30.3339C30.0039 4.42385 29.7016 4.60971 29.5541 4.90486L27.8211 8.3708C27.6077 8.79906 27.7817 9.31939 28.21 9.53287C28.2465 9.55107 28.2842 9.56666 28.3228 9.57955L30.9223 10.446C31.0783 10.499 31.2461 10.5057 31.4058 10.4651L34.6274 9.66014L36.9877 10.446C37.0215 10.4582 37.0563 10.4675 37.0917 10.4738L41.4241 11.3403C41.6494 11.3862 41.8838 11.34 42.0748 11.212L44.047 9.89669C45.0175 10.9777 45.8898 12.1432 46.6533 13.3791L42.3902 14.8001L37.7745 14.0307L36.2494 11.7432C36.0896 11.5035 35.821 11.359 35.5329 11.3576H30.3339C30.1041 11.3576 29.8838 11.449 29.7213 11.6115L27.1219 14.2109C26.9289 14.4038 26.838 14.6764 26.8767 14.9466L27.7432 21.012C27.7868 21.3119 27.9839 21.5672 28.263 21.6852L34.3284 24.2847C34.5022 24.36 34.6961 24.3755 34.8795 24.3289L37.9738 23.5551L39.8653 24.8184V27.8208C39.8638 27.9549 39.8935 28.0875 39.9519 28.2081L43.3312 34.9572V38.2187C43.3312 38.4485 43.4226 38.6688 43.5851 38.8313L45.3978 40.6448C37.3587 51.3603 22.1549 53.53 11.4393 45.4907Z" fill="black"/>
</g>
<defs>
<clipPath id="clip0">
<rect width="52" height="52" fill="white" transform="translate(0 0.0878906)"/>
</clipPath>
</defs>
</svg>
