<svg width="17" height="17" viewBox="0 0 17 17" fill="none" xmlns="http://www.w3.org/2000/svg">
<path d="M16.9983 13.4782C16.9746 12.8429 16.7007 12.25 16.227 11.8088C15.2997 10.9448 14.5226 10.446 13.7817 10.2392C12.7609 9.95414 11.8153 10.2133 10.9714 11.0096C10.9701 11.0108 10.9689 11.012 10.9676 11.0132L10.0698 11.8742C9.5087 11.5686 8.41764 10.8976 7.23887 9.75875L7.15148 9.67438C5.9725 8.53535 5.27806 7.48104 4.96206 6.93954L5.85324 6.07209C5.8545 6.07087 5.85576 6.06965 5.85702 6.0684C6.68115 5.25315 6.94944 4.3396 6.65443 3.3532C6.4403 2.63742 5.92409 1.88671 5.0298 0.990708C4.57312 0.533164 3.9595 0.268512 3.30191 0.245608C2.64392 0.222671 2.01253 0.443953 1.52285 0.868615L1.50379 0.885168C1.49496 0.892835 1.48633 0.900758 1.4779 0.908874C0.503086 1.85068 -0.00790939 3.16916 9.25563e-05 4.72182C0.013739 7.35942 1.51415 10.3758 4.01365 12.7906C4.48497 13.246 5.02063 13.6966 5.60574 14.1301C5.89677 14.3456 6.3136 14.2925 6.53675 14.0113C6.75995 13.7301 6.7049 13.3274 6.41384 13.1118C5.87478 12.7124 5.38321 12.2991 4.95277 11.8833C2.69509 9.70209 1.3401 7.02253 1.32818 4.71544C1.32204 3.51966 1.69435 2.52158 2.40499 1.82784L2.41007 1.82342C2.89275 1.40482 3.62351 1.43029 4.07381 1.88141C5.79304 3.604 5.66856 4.41723 4.90887 5.16987L3.6779 6.36809C3.48486 6.55601 3.4311 6.8392 3.54257 7.08107C3.57381 7.14889 4.32981 8.76288 6.21259 10.5819L6.30002 10.6663C8.18257 12.4851 9.85315 13.2155 9.92334 13.2457C10.1736 13.3534 10.4668 13.3015 10.6613 13.115L11.9015 11.9256C12.6806 11.1916 13.5224 11.0714 15.3052 12.7324C15.7721 13.1674 15.7985 13.8735 15.3653 14.3398L15.3606 14.3448C14.6484 15.0258 13.6264 15.3852 12.4022 15.3852C12.3921 15.3852 12.382 15.3852 12.3719 15.3852C11.3933 15.3804 10.2602 15.1213 9.09509 14.6357C8.75841 14.4953 8.36757 14.6453 8.22234 14.9707C8.07708 15.2961 8.2323 15.6736 8.56908 15.814C9.91587 16.3752 11.1931 16.6626 12.3653 16.6683C12.3777 16.6683 12.3901 16.6684 12.4025 16.6684C13.9934 16.6684 15.3445 16.175 16.3118 15.2405C16.3202 15.2324 16.3284 15.2241 16.3363 15.2155L16.3536 15.197C16.7931 14.7239 17.0221 14.1135 16.9983 13.4782Z" fill="black"/>
</svg>
