<svg width="62" height="62" viewBox="0 0 62 62" fill="none" xmlns="http://www.w3.org/2000/svg">
<g clip-path="url(#clip0)">
<path d="M60.8723 51.9078H56.1043V49.7056C57.162 49.2992 57.9162 48.2753 57.9162 47.0761V46.0695C57.9162 44.5153 56.6518 43.251 55.0977 43.251C53.5435 43.251 52.2791 44.5153 52.2791 46.0695V47.0761C52.2791 48.2753 53.0332 49.2992 54.091 49.7056V51.9078H52.3496C50.3339 49.015 48.5411 45.8398 47.0066 42.4452H47.3764C47.9324 42.4452 48.383 41.9945 48.383 41.4386C48.383 40.8827 47.9324 40.432 47.3764 40.432H46.1398C45.0037 37.6772 44.0135 34.7525 43.1905 31.7077H43.2604C43.8165 31.7077 44.2671 31.257 44.2671 30.7011C44.2671 30.1452 43.8165 29.6945 43.2604 29.6945H42.6744C42.6662 29.6606 42.6575 29.6266 42.6493 29.5927C40.6165 21.1644 40.1733 13.3563 40.1593 8.29049C40.1579 7.7478 39.7268 7.30758 39.189 7.2884V4.66897C39.189 4.11306 38.7385 3.66235 38.1824 3.66235C37.6264 3.66235 37.1758 4.11306 37.1758 4.66897V7.28816C36.6379 7.30734 36.2068 7.74757 36.2054 8.29025C36.1915 13.3562 35.7483 21.1642 33.7155 29.5926C33.7073 29.6263 33.6986 29.6605 33.6904 29.6942H33.1049C32.5489 29.6942 32.0983 30.1449 32.0983 30.7008C32.0983 31.2568 32.5489 31.7075 33.1049 31.7075H33.1742C32.3513 34.7515 31.3612 37.6765 30.2248 40.4318H28.9887C28.4327 40.4318 27.9821 40.8825 27.9821 41.4384C27.9821 41.9943 28.4327 42.445 28.9887 42.445H29.3579C27.8235 45.8394 26.0306 49.0147 24.0149 51.9075H20.8736V49.7053C21.9313 49.2989 22.6856 48.275 22.6856 47.0758V46.0691C22.6856 44.5151 21.4211 43.2506 19.8669 43.2506C18.3128 43.2506 17.0484 44.515 17.0484 46.0691V47.0758C17.0484 48.2749 17.8025 49.2988 18.8603 49.7053V51.9075H14.5318V49.7053C15.5896 49.2989 16.3436 48.275 16.3436 47.0758V46.0691C16.3436 44.5151 15.0793 43.2506 13.5251 43.2506C11.9709 43.2506 10.7065 44.515 10.7065 46.0691V47.0758C10.7065 48.2749 11.4606 49.2988 12.5185 49.7053V51.9075H8.19009V49.7053C9.24782 49.2989 10.0021 48.275 10.0021 47.0758V46.0691C10.0021 44.5151 8.73766 43.2506 7.18347 43.2506C5.62928 43.2506 4.36496 44.5152 4.36496 46.0694V47.076C4.36496 48.2752 5.119 49.299 6.17685 49.7056V51.9078H1.88553C1.3295 51.9078 0.878906 52.3585 0.878906 52.9144C0.878906 53.4703 1.3295 53.9211 1.88553 53.9211H60.8723C61.4283 53.9211 61.8789 53.4704 61.8789 52.9145C61.8789 52.3585 61.4283 51.9078 60.8723 51.9078ZM7.98874 47.0761C7.98874 47.5202 7.62751 47.8813 7.18347 47.8813C6.73943 47.8813 6.37832 47.52 6.37832 47.0761V46.0695C6.37832 45.6255 6.73955 45.2644 7.18347 45.2644C7.62763 45.2644 7.98874 45.6256 7.98874 46.0695V47.0761ZM14.3302 47.0761C14.3302 47.5202 13.969 47.8813 13.5251 47.8813C13.0809 47.8813 12.7198 47.52 12.7198 47.0761V46.0695C12.7198 45.6255 13.081 45.2644 13.5251 45.2644C13.9691 45.2644 14.3302 45.6256 14.3302 46.0695V47.0761ZM20.6719 47.0761C20.6719 47.5202 20.3106 47.8813 19.8666 47.8813C19.4225 47.8813 19.0614 47.52 19.0614 47.0761V46.0695C19.0614 45.6255 19.4227 45.2644 19.8666 45.2644C20.3107 45.2644 20.6719 45.6256 20.6719 46.0695V47.0761ZM38.1821 10.672C38.3198 15.6709 38.8907 22.4439 40.6042 29.6945H35.7599C37.4732 22.4439 38.0441 15.6709 38.1821 10.672ZM35.2553 31.7077H41.1088C41.9065 34.7398 42.8631 37.6654 43.9653 40.432H42.2419L40.3807 33.5261C40.2623 33.0868 39.8639 32.7815 39.4089 32.7815H36.956C36.5009 32.7815 36.1025 33.0868 35.9842 33.5261L34.123 40.432H32.3991C33.501 37.6651 34.4576 34.7395 35.2553 31.7077ZM40.1567 40.4319H36.2076L37.727 34.7946H38.6373L40.1567 40.4319ZM31.1743 51.9078C31.5446 48.368 34.5459 45.5994 38.1821 45.5994C41.8182 45.5994 44.8195 48.368 45.1898 51.9078H31.1743ZM47.2121 51.9076C46.8353 47.256 42.9291 43.586 38.1821 43.586C33.435 43.586 29.5288 47.256 29.1521 51.9076H26.4491C28.3778 48.9896 30.0887 45.815 31.5571 42.4451H44.8069C46.2751 45.8151 47.9863 48.9898 49.9149 51.9076H47.2121ZM55.9027 47.0761C55.9027 47.5202 55.5415 47.8813 55.0975 47.8813C54.6535 47.8813 54.2924 47.52 54.2924 47.0761V46.0695C54.2924 45.6255 54.6536 45.2644 55.0975 45.2644C55.5416 45.2644 55.9027 45.6256 55.9027 46.0695V47.0761Z" fill="#FF9927"/>
<path d="M60.8723 55.7327H1.88553C1.3295 55.7327 0.878906 56.1834 0.878906 56.7393C0.878906 57.2952 1.3295 57.7459 1.88553 57.7459H60.8723C61.4283 57.7459 61.8789 57.2952 61.8789 56.7393C61.8789 56.1834 61.4282 55.7327 60.8723 55.7327Z" fill="#FF9927"/>
<path d="M16.7 3.61829C12.4262 3.61829 8.94922 7.09529 8.94922 11.3692C8.94922 15.6432 12.4262 19.12 16.7 19.12C20.974 19.12 24.451 15.643 24.451 11.3691C24.451 7.09505 20.974 3.61829 16.7 3.61829ZM16.7 17.1068C13.5364 17.1068 10.9626 14.533 10.9626 11.3692C10.9626 8.20544 13.5364 5.63164 16.7 5.63164C19.8637 5.63164 22.4376 8.20544 22.4376 11.3692C22.4376 14.533 19.8637 17.1068 16.7 17.1068Z" fill="#FF9927"/>
</g>
<defs>
<clipPath id="clip0">
<rect width="61" height="61" fill="white" transform="translate(0.878906 0.182129)"/>
</clipPath>
</defs>
</svg>
