<svg width="58" height="59" viewBox="0 0 58 59" fill="none" xmlns="http://www.w3.org/2000/svg">
<path d="M58 27.1682C58.0011 24.6125 56.8832 22.1852 54.9424 20.5283C55.6822 19.3186 56.0715 17.9262 56.0666 16.5072C56.0616 12.5757 53.1264 9.26823 49.2323 8.80606C49.2775 8.46745 49.3002 8.12617 49.2999 7.78453C49.31 3.51201 45.8635 0.0403863 41.6021 0.030331C39.0945 0.0243948 36.7404 1.2406 35.2899 3.29139C32.8283 -0.191612 28.0166 -1.01433 24.5426 1.4537C23.8325 1.95816 23.2128 2.57953 22.7096 3.29139C20.2343 -0.190401 15.4126 -1.00112 11.9398 1.48047C9.61072 3.14481 8.39005 5.96356 8.7673 8.80606C4.87317 9.26823 1.93799 12.5757 1.93291 16.5072C1.92808 17.9262 2.31741 19.3186 3.05715 20.5283C-0.599894 23.653 -1.03804 29.1584 2.07852 32.825C2.37819 33.1777 2.70553 33.5057 3.05715 33.8062C2.31704 35.0166 1.92772 36.4095 1.93291 37.8293C1.93775 42.1094 5.39723 45.5779 9.6663 45.5827H15.4663V56.2438H12.5663C12.0325 56.2438 11.5997 56.6777 11.5997 57.2129C11.5997 57.7482 12.0325 58.1821 12.5663 58.1821H45.4332C45.9671 58.1821 46.3999 57.7482 46.3999 57.2129C46.3999 56.6777 45.9671 56.2438 45.4332 56.2438H42.5332V45.5827H48.3333C52.6023 45.5779 56.0618 42.1094 56.0666 37.8293C56.0715 36.4102 55.6822 35.0179 54.9424 33.8081C56.8832 32.1513 58.001 29.7238 58 27.1682ZM9.6663 43.6356C6.4677 43.6325 3.87423 41.0362 3.86626 37.8293C3.86251 36.5112 4.31057 35.2318 5.1355 34.2055C5.46864 33.7873 5.40061 33.1774 4.98349 32.8433C4.96331 32.8271 4.94241 32.8117 4.9209 32.7972C1.82017 30.7057 0.997534 26.4902 3.0835 23.3813C3.57155 22.654 4.19541 22.0284 4.9209 21.5392C5.3634 21.2398 5.48012 20.6374 5.18142 20.1937C5.16692 20.1722 5.15157 20.1513 5.1355 20.131C4.31057 19.1046 3.86251 17.8253 3.86626 16.5072C3.8694 13.2969 6.46432 10.6952 9.6663 10.6921L9.91667 10.7057C10.2293 10.7213 10.5293 10.5809 10.718 10.3306C10.9102 10.0834 10.9703 9.75804 10.8795 9.45831C9.97395 6.37776 11.7308 3.14444 14.8034 2.23656C17.5349 1.42947 20.4466 2.72987 21.6753 5.30536C21.6753 5.31505 21.6753 5.32474 21.6685 5.33444C21.5481 5.69776 21.4549 6.06968 21.3901 6.44706C21.3785 6.51199 21.3698 6.5779 21.3602 6.6409C21.2445 7.3564 21.2357 8.0851 21.3341 8.80315C17.4388 9.26557 14.5033 12.5745 14.4997 16.5072C14.4948 17.9262 14.8842 19.3186 15.6239 20.5283C15.6065 20.5438 15.592 20.5603 15.5746 20.5758L11.0747 16.0643C10.6907 15.6925 10.0787 15.7031 9.70787 16.0881C9.34609 16.4637 9.34609 17.0591 9.70787 17.4347L14.2628 22.0015C11.5534 25.6846 12.1479 30.8417 15.6239 33.8081C15.2509 34.4181 14.9657 35.0777 14.7771 35.7678L11.3164 32.2981C10.9324 31.9262 10.3205 31.9369 9.94954 32.3219C9.58776 32.6974 9.58776 33.2929 9.94954 33.6685L14.5209 38.2518C14.5287 38.3865 14.5306 38.5222 14.5451 38.654C14.5548 38.7451 14.5731 38.8324 14.5857 38.9215C14.6108 39.1008 14.636 39.2792 14.6737 39.4546C14.6959 39.5592 14.7268 39.66 14.7529 39.7628C14.7926 39.9179 14.8322 40.0739 14.8815 40.2251C14.9163 40.3327 14.9579 40.4354 14.9975 40.541C15.0507 40.6825 15.1038 40.825 15.1657 40.9626C15.2121 41.0673 15.2624 41.1691 15.3136 41.2708C15.3793 41.4036 15.447 41.5344 15.5195 41.6585C15.5765 41.7554 15.6374 41.8523 15.6993 41.9493C15.7766 42.0723 15.8559 42.1925 15.94 42.3098C16.0067 42.4067 16.0763 42.4968 16.1479 42.5879C16.2358 42.7023 16.3277 42.8118 16.4224 42.9204C16.4988 43.0076 16.5761 43.0939 16.6554 43.1772C16.752 43.2819 16.8593 43.3817 16.9657 43.4806C17.0188 43.531 17.0681 43.5872 17.1232 43.6356H9.6663ZM28.0331 56.2438H17.3997V45.5827H28.0331V56.2438ZM28.9998 12.6305C28.4659 12.6305 28.0331 13.0644 28.0331 13.5996V20.4673L23.6415 16.0643C23.2575 15.6925 22.6455 15.7031 22.2746 16.0881C21.9129 16.4637 21.9129 17.0591 22.2746 17.4347L28.0331 23.2081V36.4588L23.8832 32.2981C23.4992 31.9262 22.8873 31.9369 22.5163 32.3219C22.1545 32.6974 22.1545 33.2929 22.5163 33.6685L28.0331 39.1997V43.6444H22.2331C19.0311 43.6412 16.4362 41.0396 16.433 37.8293C16.4293 36.5112 16.8773 35.2318 17.7023 34.2055C18.0354 33.7873 17.9674 33.1774 17.5503 32.8433C17.5301 32.8271 17.5092 32.8117 17.4877 32.7972C14.3869 30.7057 13.5643 26.4902 15.6503 23.3813C16.1383 22.654 16.7622 22.0284 17.4877 21.5392C17.9302 21.2398 18.0469 20.6374 17.7482 20.1937C17.7337 20.1722 17.7183 20.1513 17.7023 20.131C16.8773 19.1046 16.4293 17.8253 16.433 16.5072C16.4362 13.2969 19.0311 10.6952 22.2331 10.6921L22.4834 10.7057C22.7964 10.7231 23.0971 10.5823 23.2848 10.3306C23.4769 10.0834 23.5371 9.75804 23.4462 9.45831C23.2834 8.91533 23.2002 8.35151 23.1997 7.78453C23.2002 7.42678 23.2343 7.06988 23.3012 6.71843C23.3012 6.70486 23.3012 6.69032 23.307 6.67676C23.3771 6.32688 23.4784 5.98403 23.6096 5.65233C24.4824 3.43205 26.6195 1.97185 28.9998 1.96943C31.3801 1.97185 33.5172 3.43205 34.3899 5.65233C34.5215 5.98621 34.6228 6.33136 34.6925 6.68354C34.6925 6.69711 34.6925 6.71165 34.6983 6.72522C34.7649 7.07436 34.7989 7.42909 34.7998 7.78453C34.7993 8.35151 34.7162 8.91533 34.5533 9.45831C34.4625 9.75804 34.5226 10.0834 34.7148 10.3306C34.9031 10.5814 35.2034 10.7219 35.5161 10.7057L35.7665 10.6921C38.9685 10.6952 41.5634 13.2969 41.5665 16.5072C41.5703 17.8253 41.1222 19.1046 40.2973 20.131C39.9642 20.5492 40.0322 21.159 40.4493 21.4932C40.4695 21.5094 40.4904 21.5248 40.5119 21.5392C43.6126 23.6307 44.4353 27.8463 42.3492 30.9552C41.8611 31.6824 41.2373 32.3081 40.5119 32.7972C40.0694 33.0966 39.9527 33.6991 40.2514 34.1427C40.2659 34.1643 40.2812 34.1851 40.2973 34.2055C41.1222 35.2318 41.5703 36.5112 41.5665 37.8293C41.5634 41.0396 38.9685 43.6412 35.7665 43.6444H29.9665V30.4101C30.0386 30.3744 30.1059 30.3295 30.1666 30.2764L36.4499 23.9767C36.8209 23.5917 36.8103 22.9782 36.4263 22.6063C36.0517 22.2436 35.4578 22.2436 35.0831 22.6063L29.9665 27.7362V13.5996C29.9665 13.0643 29.5336 12.6305 28.9998 12.6305ZM40.5999 56.2438H29.9665V45.5827H40.5999V56.2438ZM52.818 34.1427C52.8325 34.1643 52.8479 34.1851 52.8639 34.2055C53.6889 35.2318 54.1369 36.5112 54.1332 37.8293C54.13 41.0396 51.5351 43.6412 48.3331 43.6444H40.8763C40.9314 43.5959 40.9807 43.5397 41.0339 43.4893C41.1402 43.3924 41.2437 43.2906 41.3442 43.1859C41.4235 43.1026 41.5008 43.0163 41.5772 42.9291C41.6738 42.8206 41.7637 42.711 41.8517 42.5967C41.9232 42.5056 41.9928 42.4135 42.0595 42.3185C42.1436 42.2012 42.2229 42.0811 42.3002 41.958C42.3621 41.8611 42.423 41.7641 42.48 41.6672C42.5525 41.5393 42.6202 41.4085 42.6859 41.2796C42.7362 41.1778 42.7826 41.076 42.8338 40.9714C42.8957 40.8337 42.9489 40.6913 43.002 40.5498C43.0417 40.4441 43.0833 40.3414 43.1181 40.2338C43.1674 40.0826 43.207 39.9266 43.2466 39.7715C43.2727 39.6688 43.3037 39.568 43.3259 39.4633C43.3636 39.2879 43.3887 39.1095 43.4139 38.9302C43.4264 38.8411 43.4448 38.7539 43.4545 38.6628C43.4845 38.3859 43.4998 38.1077 43.4999 37.8293C43.5047 36.4102 43.1154 35.0179 42.3756 33.8081C44.2001 32.2457 45.2985 29.9958 45.41 27.5927L49.0167 23.9767C49.3877 23.5917 49.377 22.9782 48.993 22.6063C48.6184 22.2436 48.0245 22.2436 47.6498 22.6063L45.1742 25.0884C44.7413 23.3132 43.7622 21.7195 42.3756 20.5332C43.1162 19.3221 43.5056 17.9279 43.4999 16.5072C43.4948 12.5757 40.5596 9.26823 36.6655 8.80606C36.7629 8.08789 36.7531 7.35906 36.6365 6.6438C36.6268 6.5779 36.6181 6.512 36.6065 6.44997C36.5418 6.07259 36.4486 5.70067 36.3281 5.33734C36.3281 5.32765 36.3281 5.31796 36.3214 5.30827C37.7036 2.41101 41.1666 1.18572 44.0563 2.57153C46.6251 3.80337 47.9221 6.72279 47.1172 9.46122C47.0263 9.76094 47.0865 10.0863 47.2786 10.3335C47.4674 10.5838 47.7674 10.7242 48.08 10.7086L48.3333 10.6921C51.5352 10.6952 54.1302 13.2969 54.1333 16.5072C54.137 17.8253 53.689 19.1046 52.8641 20.131C52.5309 20.5492 52.5989 21.159 53.0161 21.4932C53.0362 21.5094 53.0571 21.5248 53.0787 21.5392C56.1794 23.6307 57.002 27.8463 54.9159 30.9552C54.4279 31.6824 53.804 32.3081 53.0787 32.7972C52.636 33.0966 52.5194 33.6991 52.818 34.1427Z" fill="#FF9927"/>
</svg>
