<svg width="78" height="79" viewBox="0 0 78 79" fill="none" xmlns="http://www.w3.org/2000/svg">
<g clip-path="url(#clip0)">
<path d="M76.8574 50.1757C73.4879 50.1757 71.7822 50.8356 70.1327 51.4738C68.612 52.0621 67.1754 52.618 64.2325 52.618C61.2896 52.618 59.8531 52.0623 58.3323 51.4738C56.6828 50.8356 54.9772 50.1757 51.6075 50.1757C48.24 50.1757 46.5354 50.8358 44.8869 51.4739C43.3672 52.0623 41.9319 52.618 38.9913 52.618C36.0496 52.618 34.6137 52.0623 33.0936 51.4739C31.4447 50.8356 29.7396 50.1757 26.3712 50.1757C23.0038 50.1757 21.2992 50.8358 19.6507 51.4739C18.131 52.0623 16.6958 52.618 13.7553 52.618C10.8156 52.618 9.38072 52.0623 7.86155 51.4739C6.21349 50.8356 4.50938 50.1757 1.14258 50.1757C0.51157 50.1757 0 50.6872 0 51.3182C0 51.9492 0.51157 52.4608 1.14258 52.4608C4.0822 52.4608 5.51698 53.0166 7.0363 53.6049C8.68436 54.2432 10.3885 54.9032 13.7553 54.9032C17.1227 54.9032 18.8272 54.2431 20.4758 53.6049C21.9954 53.0166 23.4306 52.4608 26.3712 52.4608C29.3128 52.4608 30.7486 53.0166 32.2687 53.6049C33.9177 54.2432 35.6228 54.9032 38.9913 54.9032C42.3589 54.9032 44.0634 54.2431 45.712 53.6049C47.2316 53.0166 48.667 52.4608 51.6075 52.4608C54.5503 52.4608 55.9869 53.0166 57.5076 53.6051C59.1572 54.2432 60.8629 54.9032 64.2325 54.9032C67.6022 54.9032 69.3077 54.2432 70.9573 53.6051C72.478 53.0167 73.9146 52.4608 76.8574 52.4608C77.4884 52.4608 78 51.9492 78 51.3182C78 50.6872 77.4884 50.1757 76.8574 50.1757Z" fill="#FF9927"/>
<path d="M71.8197 56.9334C71.5927 56.3446 70.9311 56.0513 70.3426 56.2783L70.1343 56.3588C69.4465 56.6249 68.7968 56.8763 68.0236 57.0771C67.4129 57.2358 67.0463 57.8595 67.2049 58.4703C67.3385 58.9847 67.8021 59.3258 68.31 59.3258C68.4052 59.3258 68.5018 59.3138 68.5981 59.2888C69.4988 59.0548 70.241 58.7676 70.959 58.4898L71.1645 58.4104C71.7533 58.1834 72.0467 57.5221 71.8197 56.9334Z" fill="#FF9927"/>
<path d="M63.4657 57.4895C61.0281 57.4016 59.7188 56.8951 58.3327 56.3587C56.6831 55.7205 54.9774 55.0606 51.6079 55.0606C48.2403 55.0606 46.5358 55.7207 44.8873 56.3588C43.3676 56.9472 41.9323 57.503 38.9917 57.503C36.05 57.503 34.6143 56.9472 33.094 56.3587C31.4451 55.7205 29.74 55.0604 26.3716 55.0604C23.0042 55.0604 21.2996 55.7205 19.6511 56.3587C18.2682 56.8942 16.962 57.3998 14.5343 57.4889C13.9036 57.5121 13.4112 58.0421 13.4344 58.6726C13.4575 59.3034 13.9877 59.7944 14.6181 59.7726C17.4294 59.6694 18.9785 59.0697 20.4763 58.4897C21.9959 57.9013 23.4312 57.3456 26.3717 57.3456C29.3133 57.3456 30.7492 57.9013 32.2692 58.4898C33.9182 59.128 35.6234 59.7881 38.9919 59.7881C42.3594 59.7881 44.064 59.128 45.7125 58.4898C47.2321 57.9015 48.6675 57.3457 51.6081 57.3457C54.5509 57.3457 55.9875 57.9015 57.5082 58.49C59.0095 59.0709 60.5619 59.6716 63.3835 59.7733C64.0101 59.7957 64.5437 59.3034 64.5664 58.6726C64.5891 58.0419 64.0963 57.5122 63.4657 57.4895Z" fill="#FF9927"/>
<path d="M51.6094 59.9454C48.2418 59.9454 46.5373 60.6055 44.8888 61.2437C43.3691 61.8321 41.9337 62.3878 38.9932 62.3878C36.0514 62.3878 34.6158 61.8321 33.0955 61.2437C31.4466 60.6054 29.7415 59.9454 26.373 59.9454C25.742 59.9454 25.2305 60.457 25.2305 61.088C25.2305 61.719 25.742 62.2306 26.373 62.2306C29.3147 62.2306 30.7505 62.7863 32.2707 63.3747C33.9197 64.013 35.6247 64.673 38.9932 64.673C42.3608 64.673 44.0653 64.0129 45.7139 63.3747C47.2335 62.7863 48.6689 62.2306 51.6094 62.2306C52.2404 62.2306 52.752 61.719 52.752 61.088C52.752 60.457 52.2404 59.9454 51.6094 59.9454Z" fill="#FF9927"/>
<path d="M9.98003 57.0798C9.20231 56.8783 8.55043 56.6257 7.86032 56.3583C7.27197 56.1304 6.61003 56.4226 6.38213 57.011C6.15422 57.5995 6.44642 58.2612 7.03477 58.4891C7.75535 58.7682 8.50047 59.0569 9.4066 59.2918C9.50273 59.3168 9.59917 59.3287 9.69408 59.3287C10.2021 59.3287 10.6659 58.9872 10.7993 58.4725C10.9578 57.8616 10.5909 57.2383 9.98003 57.0798Z" fill="#FF9927"/>
<path d="M53.9737 34.7929C50.5602 29.8961 44.9631 26.9727 39.0012 26.9727C28.944 26.9727 20.7617 35.1547 20.7617 45.2122C20.7616 45.6462 20.777 46.0842 20.8074 46.5139C20.8499 47.116 21.3516 47.5761 21.946 47.5761C21.9732 47.5761 22.0003 47.5752 22.0277 47.5732C22.6572 47.5287 23.1314 46.9824 23.0869 46.3529C23.0603 45.9763 23.0469 45.5926 23.0469 45.2122C23.0469 36.4149 30.2038 29.2578 39.0012 29.2578C44.2161 29.2578 49.1126 31.8155 52.099 36.0997C52.4599 36.6172 53.172 36.7443 53.6898 36.3837C54.2074 36.0228 54.3345 35.3106 53.9737 34.7929Z" fill="#FF9927"/>
<path d="M15.798 44.0696H8.4707C7.8397 44.0696 7.32812 44.5812 7.32812 45.2122C7.32812 45.8432 7.8397 46.3548 8.4707 46.3548H15.798C16.429 46.3548 16.9406 45.8432 16.9406 45.2122C16.9406 44.5812 16.429 44.0696 15.798 44.0696Z" fill="#FF9927"/>
<path d="M38.998 13.5394C38.367 13.5394 37.8555 14.051 37.8555 14.682V22.0093C37.8555 22.6404 38.367 23.1519 38.998 23.1519C39.6291 23.1519 40.1406 22.6403 40.1406 22.0093V14.682C40.1406 14.051 39.6291 13.5394 38.998 13.5394Z" fill="#FF9927"/>
<path d="M61.3973 22.8162C60.951 22.37 60.2276 22.37 59.7815 22.8162L54.6003 27.9974C54.1541 28.4437 54.1541 29.1671 54.6003 29.6132C54.8233 29.8362 55.1157 29.9479 55.4082 29.9479C55.7005 29.9479 55.993 29.8364 56.216 29.6132L61.3973 24.432C61.8435 23.9858 61.8435 23.2623 61.3973 22.8162Z" fill="#FF9927"/>
<path d="M31.176 23.3384L30.2414 21.0819C30 20.4988 29.3316 20.2222 28.7486 20.4635C28.1656 20.705 27.8888 21.3734 28.1302 21.9563L29.0649 24.2128C29.2471 24.6528 29.6726 24.9185 30.1209 24.9185C30.2667 24.9185 30.4148 24.8905 30.5577 24.8312C31.1407 24.5897 31.4175 23.9212 31.176 23.3384Z" fill="#FF9927"/>
<path d="M63.7479 34.9611C63.5065 34.3782 62.8381 34.1013 62.2551 34.3427L59.9986 35.2774C59.4156 35.5187 59.1388 36.1872 59.3802 36.7702C59.5624 37.2102 59.9879 37.4758 60.4363 37.4758C60.5821 37.4758 60.7302 37.4478 60.8731 37.3886L63.1296 36.4539C63.7126 36.2125 63.9894 35.544 63.7479 34.9611Z" fill="#FF9927"/>
<path d="M49.253 20.4634C48.6701 20.222 48.0016 20.4988 47.7602 21.0818L46.8255 23.3383C46.5841 23.9212 46.8609 24.5895 47.4439 24.8311C47.5868 24.8904 47.735 24.9184 47.8807 24.9184C48.329 24.9184 48.7545 24.6527 48.9367 24.2128L49.8714 21.9562C50.1128 21.3732 49.836 20.7049 49.253 20.4634Z" fill="#FF9927"/>
<path d="M18.0007 35.2771L15.7441 34.3425C15.161 34.1011 14.4928 34.3779 14.2513 34.9609C14.0099 35.5439 14.2867 36.2122 14.8697 36.4537L17.1262 37.3883C17.2693 37.4476 17.4173 37.4756 17.563 37.4756C18.0113 37.4756 18.4368 37.2099 18.619 36.77C18.8605 36.1869 18.5837 35.5186 18.0007 35.2771Z" fill="#FF9927"/>
<path d="M17.8052 20.8668C16.1175 20.8668 14.4879 21.4293 13.1451 22.4635C12.5335 22.272 11.9031 22.1752 11.2631 22.1752C7.74713 22.1752 4.88672 25.0356 4.88672 28.5515C4.88672 29.1825 5.39829 29.6941 6.0293 29.6941H24.3474C24.9784 29.6941 25.49 29.1825 25.49 28.5515C25.49 24.3142 22.0426 20.8668 17.8052 20.8668ZM7.33427 27.4088C7.82985 25.7072 9.40356 24.4603 11.2631 24.4603C11.826 24.4603 12.3799 24.5788 12.9094 24.8127C13.3267 24.9969 13.8135 24.9154 14.1478 24.6052C15.1585 23.668 16.4575 23.1518 17.8053 23.1518C20.3907 23.1518 22.5575 24.9784 23.0834 27.4088H7.33427Z" fill="#FF9927"/>
<path d="M58.1879 40.0571C57.5479 40.0571 56.9175 40.1538 56.3058 40.3455C54.9631 39.3112 53.3333 38.7488 51.6458 38.7488C47.4083 38.7488 43.9609 42.1962 43.9609 46.4334C43.9609 47.0644 44.4725 47.576 45.1035 47.576H63.4216C64.0526 47.576 64.5642 47.0644 64.5642 46.4334C64.5642 42.9175 61.7038 40.0571 58.1879 40.0571ZM46.3677 45.2909C46.8934 42.8605 49.0603 41.0339 51.6458 41.0339C52.9936 41.0339 54.2924 41.5501 55.3032 42.4873C55.6378 42.7973 56.1242 42.8787 56.5415 42.6946C57.071 42.4608 57.625 42.3423 58.1879 42.3423C60.0474 42.3423 61.6211 43.5892 62.1168 45.2909H46.3677Z" fill="#FF9927"/>
</g>
<defs>
<clipPath id="clip0">
<rect width="78" height="78" fill="white" transform="translate(0 0.106201)"/>
</clipPath>
</defs>
</svg>
