<svg width="67" height="67" viewBox="0 0 67 67" fill="none" xmlns="http://www.w3.org/2000/svg">
<g clip-path="url(#clip0)">
<path d="M19.5859 13.7703C19.9248 13.7703 20.2577 13.6323 20.4973 13.3926C20.737 13.1529 20.875 12.8201 20.875 12.4812C20.875 12.1423 20.737 11.8095 20.4973 11.5698C20.2577 11.3301 19.9248 11.1921 19.5859 11.1921C19.2471 11.1921 18.9142 11.3301 18.6745 11.5698C18.4348 11.8095 18.2969 12.1423 18.2969 12.4812C18.2969 12.8201 18.4348 13.1529 18.6745 13.3926C18.9142 13.6323 19.2471 13.7703 19.5859 13.7703Z" fill="#FF9927"/>
<path d="M65.0898 52.4421H63.8008V22.0203H65.0898C65.8018 22.0203 66.3789 21.4432 66.3789 20.7312C66.3789 15.4712 62.0998 11.1921 56.8398 11.1921H25.2578C24.5458 11.1921 23.9688 11.7692 23.9688 12.4812C23.9688 13.1932 24.5458 13.7703 25.2578 13.7703H56.8398C60.2377 13.7703 63.0747 16.2175 63.6809 19.4421H3.07687C3.68314 16.2175 6.52008 13.7703 9.91797 13.7703H13.828C14.54 13.7703 15.117 13.1932 15.117 12.4812C15.117 11.7692 14.54 11.1921 13.828 11.1921H9.91797C4.65799 11.1921 0.378906 15.4712 0.378906 20.7312C0.378906 21.4432 0.955963 22.0203 1.66797 22.0203H2.95703V31.8171H1.66797C0.955963 31.8171 0.378906 32.3942 0.378906 33.1062C0.378906 33.8182 0.955963 34.3953 1.66797 34.3953H2.95703V44.9419H1.66797C0.955963 44.9419 0.378906 45.5195 0.378906 46.231C0.378906 46.943 0.955963 47.52 1.66797 47.52H2.95703V52.4421H1.66797C0.955963 52.4421 0.378906 53.0192 0.378906 53.7312C0.378906 54.4432 0.955963 55.0203 1.66797 55.0203H65.0898C65.8018 55.0203 66.3789 54.4432 66.3789 53.7312C66.3789 53.0192 65.8018 52.4421 65.0898 52.4421ZM61.2227 52.4421H58.6299C59.1294 51.6264 59.418 50.6677 59.418 49.6425C59.418 39.8134 51.4218 31.8171 41.5927 31.8171H34.668V22.0203H61.2227V52.4421ZM49.4756 36.5957L45.4407 40.6301V34.8877C46.8788 35.2629 48.2348 35.8429 49.4756 36.5957ZM51.5834 38.134C53.6519 39.9317 55.2315 42.2772 56.0976 44.9419H47.4649C46.7363 44.9419 46.0983 44.5542 45.7418 43.9751L51.5834 38.134ZM5.53516 22.0203H32.0898V31.8171H5.53516V22.0203ZM18.1705 34.3953H23.7915L20.8936 37.2931C20.3901 37.7962 20.3901 38.6124 20.8936 39.116C21.1454 39.3677 21.4752 39.4936 21.805 39.4936C22.1349 39.4936 22.4652 39.3677 22.7164 39.116L25.9023 35.9306V44.9419H7.64348L18.0527 34.5332C18.096 34.4899 18.1347 34.4431 18.1705 34.3953ZM14.5445 34.3953L5.53516 43.4046V34.3953H14.5445ZM5.53516 47.52H27.1914C27.9034 47.52 28.4805 46.943 28.4805 46.231V34.3953H32.0898V52.4421H5.53516V47.52ZM37.2627 45.2234H34.6846V40.5828H37.2627V45.2234ZM34.6846 52.4421V47.8015H37.2627V52.4421H34.6846ZM39.8408 52.4421V39.2937C39.8408 38.5817 39.2633 38.0046 38.5518 38.0046H34.668V34.3953H41.5927C42.0202 34.3953 42.4436 34.4139 42.8626 34.4486V42.9182C42.8626 45.456 44.9271 47.5205 47.4649 47.5205H56.6913C56.7885 48.2144 56.8398 48.9224 56.8398 49.643C56.8398 51.1863 55.584 52.4421 54.0402 52.4421H39.8408Z" fill="#FF9927"/>
<path d="M17.6355 42.3719C17.8752 42.6131 18.208 42.7495 18.5484 42.7495C18.8873 42.7495 19.2186 42.6131 19.4598 42.3719C19.6995 42.1322 19.8374 41.7998 19.8374 41.4604C19.8374 41.1216 19.6995 40.7892 19.4598 40.5495C19.2186 40.3099 18.8873 40.1714 18.5484 40.1714C18.208 40.1714 17.8752 40.3094 17.6355 40.5495C17.3958 40.7892 17.2578 41.1216 17.2578 41.4604C17.2578 41.7998 17.3958 42.1322 17.6355 42.3719Z" fill="#FF9927"/>
</g>
<defs>
<clipPath id="clip0">
<rect width="66" height="66" fill="white" transform="translate(0.378906 0.106201)"/>
</clipPath>
</defs>
</svg>
