<svg width="42" height="54" viewBox="0 0 42 54" fill="none" xmlns="http://www.w3.org/2000/svg">
<path d="M36.375 0.606201H5.625C2.80625 0.606201 0.5 2.89947 0.5 5.70235V42.3947C0.5 43.9745 1.37125 45.2995 2.60125 46.2168C2.60125 46.2677 2.55 46.3697 2.55 46.4716V50.0389C2.55 52.0264 4.13875 53.6062 6.1375 53.6062H7.1625C9.16125 53.6062 10.75 52.0264 10.75 50.0389V47.4908H31.25V50.0389C31.25 52.0264 32.8387 53.6062 34.8375 53.6062H35.8625C37.8613 53.6062 39.45 52.0264 39.45 50.0389V46.4716C40.68 45.5543 41.5 44.0764 41.5 42.3947V5.70235C41.5 2.89947 39.1937 0.606201 36.375 0.606201ZM8.7 50.0389C8.7 50.9052 8.03375 51.5677 7.1625 51.5677H6.1375C5.26625 51.5677 4.6 50.9052 4.6 50.0389V47.236C5.1125 47.3889 5.625 47.4908 6.1375 47.4908H8.7V50.0389ZM37.4 50.0389C37.4 50.9052 36.7337 51.5677 35.8625 51.5677H34.8375C33.9663 51.5677 33.3 50.9052 33.3 50.0389V47.4908H36.375C36.7337 47.4908 37.0925 47.4399 37.4 47.3889V50.0389ZM39.45 42.3947C39.45 44.0764 38.0662 45.4524 36.375 45.4524H6.1375C4.4975 45.4524 2.55 44.0764 2.55 42.3947V33.2216H39.45V42.3947ZM39.45 31.1831H2.55V10.7985H39.45V31.1831ZM39.45 8.76005H2.55V5.70235C2.55 4.02062 3.93375 2.64466 5.625 2.64466H36.375C38.0662 2.64466 39.45 4.02062 39.45 5.70235V8.76005Z" fill="#FF9927"/>
<path d="M18.95 4.68312H12.2875C11.7237 4.68312 11.2625 5.14178 11.2625 5.70235C11.2625 6.26293 11.7237 6.72159 12.2875 6.72159H18.95C19.5138 6.72159 19.975 6.26293 19.975 5.70235C19.975 5.14178 19.5138 4.68312 18.95 4.68312Z" fill="#FF9927"/>
<path d="M25.1 4.68312H23.5625C22.9988 4.68312 22.5375 5.14178 22.5375 5.70235C22.5375 6.26293 22.9988 6.72159 23.5625 6.72159H25.1C25.6637 6.72159 26.125 6.26293 26.125 5.70235C26.125 5.14178 25.6637 4.68312 25.1 4.68312Z" fill="#FF9927"/>
<path d="M8.1875 41.8851C9.87875 41.8851 11.2625 40.5091 11.2625 38.8274C11.2625 37.1456 9.87875 35.7697 8.1875 35.7697C6.49625 35.7697 5.1125 37.1456 5.1125 38.8274C5.1125 40.5091 6.49625 41.8851 8.1875 41.8851ZM8.1875 37.8081C8.75125 37.8081 9.2125 38.2668 9.2125 38.8274C9.2125 39.3879 8.75125 39.8466 8.1875 39.8466C7.62375 39.8466 7.1625 39.3879 7.1625 38.8274C7.1625 38.2668 7.62375 37.8081 8.1875 37.8081Z" fill="#FF9927"/>
<path d="M33.8125 41.8851C35.5037 41.8851 36.8875 40.5091 36.8875 38.8274C36.8875 37.1456 35.5037 35.7697 33.8125 35.7697C32.1213 35.7697 30.7375 37.1456 30.7375 38.8274C30.7375 40.5091 32.1213 41.8851 33.8125 41.8851ZM33.8125 37.8081C34.3763 37.8081 34.8375 38.2668 34.8375 38.8274C34.8375 39.3879 34.3763 39.8466 33.8125 39.8466C33.2487 39.8466 32.7875 39.3879 32.7875 38.8274C32.7875 38.2668 33.2487 37.8081 33.8125 37.8081Z" fill="#FF9927"/>
</svg>
