<svg width="87" height="34" viewBox="0 0 87 34" fill="none" xmlns="http://www.w3.org/2000/svg">
<rect x="1.97266" y="1.3468" width="83.0581" height="30.6706" rx="15.3353" stroke="#FF9927" stroke-width="2"/>
<path d="M27.175 19.2541C27.175 19.7128 27.079 20.1235 26.887 20.4861C26.7057 20.8488 26.455 21.1581 26.135 21.4141C25.8257 21.6595 25.4577 21.8515 25.031 21.9901C24.6043 22.1181 24.151 22.1821 23.671 22.1821H18.247V10.8221H24.103C24.4977 10.8221 24.855 10.9075 25.175 11.0781C25.495 11.2488 25.767 11.4728 25.991 11.7501C26.215 12.0168 26.3857 12.3261 26.503 12.6781C26.631 13.0195 26.695 13.3661 26.695 13.7181C26.695 14.2728 26.551 14.7955 26.263 15.2861C25.9857 15.7661 25.5857 16.1235 25.063 16.3581C25.7137 16.5501 26.2257 16.9021 26.599 17.4141C26.983 17.9155 27.175 18.5288 27.175 19.2541ZM25.335 18.9181C25.335 18.6835 25.2923 18.4595 25.207 18.2461C25.1323 18.0328 25.0257 17.8461 24.887 17.6861C24.759 17.5261 24.599 17.3981 24.407 17.3021C24.215 17.2061 24.007 17.1581 23.783 17.1581H20.039V20.6301H23.671C23.9057 20.6301 24.1243 20.5875 24.327 20.5021C24.5297 20.4061 24.7057 20.2835 24.855 20.1341C25.0043 19.9741 25.1217 19.7928 25.207 19.5901C25.2923 19.3768 25.335 19.1528 25.335 18.9181ZM20.039 12.3741V15.7181H23.335C23.559 15.7181 23.7617 15.6755 23.943 15.5901C24.135 15.5048 24.3003 15.3928 24.439 15.2541C24.5883 15.1048 24.7003 14.9288 24.775 14.7261C24.8603 14.5235 24.903 14.2995 24.903 14.0541C24.903 13.5635 24.7643 13.1635 24.487 12.8541C24.2097 12.5341 23.8577 12.3741 23.431 12.3741H20.039ZM37.6028 20.5981V22.1821H29.8108V10.8221H37.4588V12.4061H31.6028V15.6381H36.6748V17.1261H31.6028V20.5981H37.6028ZM39.1649 12.2141C39.5702 11.7235 40.0449 11.3555 40.5889 11.1101C41.1329 10.8648 41.7942 10.7421 42.5729 10.7421C43.6502 10.7421 44.4875 10.9768 45.0849 11.4461C45.6929 11.9048 45.9969 12.5875 45.9969 13.4941C45.9969 14.1021 45.8475 14.6408 45.5489 15.1101C45.2502 15.5688 44.8022 15.8835 44.2049 16.0541C44.9089 16.1715 45.4635 16.4701 45.8689 16.9501C46.2849 17.4301 46.4929 18.0381 46.4929 18.7741C46.4929 19.2968 46.3915 19.7715 46.1889 20.1981C45.9862 20.6248 45.7035 20.9928 45.3409 21.3021C44.9889 21.6008 44.5675 21.8355 44.0769 22.0061C43.5862 22.1768 43.0529 22.2621 42.4769 22.2621C41.6875 22.2621 40.9889 22.1181 40.3809 21.8301C39.7729 21.5315 39.2715 21.1101 38.8769 20.5661L40.0929 19.3821C40.3702 19.7661 40.7009 20.0701 41.0849 20.2941C41.4689 20.5181 41.9329 20.6301 42.4769 20.6301C42.7969 20.6301 43.0902 20.5875 43.3569 20.5021C43.6235 20.4061 43.8529 20.2781 44.0449 20.1181C44.2369 19.9475 44.3862 19.7448 44.4929 19.5101C44.6102 19.2755 44.6689 19.0141 44.6689 18.7261C44.6689 18.1395 44.4342 17.6701 43.9649 17.3181C43.5062 16.9555 42.8449 16.7741 41.9809 16.7741H40.9569V15.3181H41.9169C42.6635 15.3181 43.2395 15.1741 43.6449 14.8861C44.0609 14.5981 44.2689 14.1981 44.2689 13.6861C44.2689 13.2168 44.1089 12.8648 43.7889 12.6301C43.4689 12.3955 43.0529 12.2781 42.5409 12.2781C42.0502 12.2781 41.6075 12.3688 41.2129 12.5501C40.8289 12.7315 40.5089 12.9928 40.2529 13.3341L39.1649 12.2141ZM47.6842 20.5981H47.9402C48.2602 20.5768 48.5482 20.4808 48.8042 20.3101C49.0709 20.1395 49.3056 19.8195 49.5082 19.3501C49.7216 18.8701 49.9029 18.2035 50.0522 17.3501C50.2122 16.4968 50.3509 15.3715 50.4682 13.9741L50.7242 10.8221H57.1562V20.5981H58.8843V25.0941H57.2203V22.1821H49.3322V25.0941H47.6842V20.5981ZM55.3643 20.5981V12.4061H52.3882L52.2283 14.2301C52.1536 15.0835 52.0683 15.8515 51.9722 16.5341C51.8762 17.2061 51.7589 17.8035 51.6202 18.3261C51.4816 18.8381 51.3269 19.2808 51.1562 19.6541C50.9856 20.0275 50.7936 20.3421 50.5803 20.5981H55.3643ZM68.7615 20.5981V22.1821H60.9695V10.8221H68.6175V12.4061H62.7615V15.6381H67.8335V17.1261H62.7615V20.5981H68.7615Z" fill="#FF9927"/>
</svg>
