<svg width="42" height="54" viewBox="0 0 42 54" fill="none" xmlns="http://www.w3.org/2000/svg">
<path d="M36.4062 0.875488H5.65625C2.8375 0.875488 0.53125 3.16876 0.53125 5.97164V42.664C0.53125 44.2438 1.4025 45.5688 2.6325 46.4861C2.6325 46.537 2.58125 46.639 2.58125 46.7409V50.3082C2.58125 52.2957 4.17 53.8755 6.16875 53.8755H7.19375C9.1925 53.8755 10.7812 52.2957 10.7812 50.3082V47.7601H31.2812V50.3082C31.2812 52.2957 32.87 53.8755 34.8688 53.8755H35.8937C37.8925 53.8755 39.4813 52.2957 39.4813 50.3082V46.7409C40.7113 45.8236 41.5312 44.3457 41.5312 42.664V5.97164C41.5312 3.16876 39.225 0.875488 36.4062 0.875488ZM8.73125 50.3082C8.73125 51.1745 8.065 51.837 7.19375 51.837H6.16875C5.2975 51.837 4.63125 51.1745 4.63125 50.3082V47.5053C5.14375 47.6582 5.65625 47.7601 6.16875 47.7601H8.73125V50.3082ZM37.4313 50.3082C37.4313 51.1745 36.765 51.837 35.8937 51.837H34.8688C33.9975 51.837 33.3312 51.1745 33.3312 50.3082V47.7601H36.4062C36.765 47.7601 37.1237 47.7091 37.4313 47.6582V50.3082ZM39.4813 42.664C39.4813 44.3457 38.0975 45.7216 36.4062 45.7216H6.16875C4.52875 45.7216 2.58125 44.3457 2.58125 42.664V33.4909H39.4813V42.664ZM39.4813 31.4524H2.58125V11.0678H39.4813V31.4524ZM39.4813 9.02934H2.58125V5.97164C2.58125 4.28991 3.965 2.91395 5.65625 2.91395H36.4062C38.0975 2.91395 39.4813 4.28991 39.4813 5.97164V9.02934Z" fill="white"/>
<path d="M18.9813 4.95241H12.3187C11.755 4.95241 11.2937 5.41107 11.2937 5.97164C11.2937 6.53222 11.755 6.99087 12.3187 6.99087H18.9813C19.545 6.99087 20.0062 6.53222 20.0062 5.97164C20.0062 5.41107 19.545 4.95241 18.9813 4.95241Z" fill="white"/>
<path d="M25.1313 4.95241H23.5938C23.03 4.95241 22.5688 5.41107 22.5688 5.97164C22.5688 6.53222 23.03 6.99087 23.5938 6.99087H25.1313C25.695 6.99087 26.1562 6.53222 26.1562 5.97164C26.1562 5.41107 25.695 4.95241 25.1313 4.95241Z" fill="white"/>
<path d="M8.21875 42.1543C9.91 42.1543 11.2938 40.7784 11.2938 39.0966C11.2938 37.4149 9.91 36.039 8.21875 36.039C6.5275 36.039 5.14375 37.4149 5.14375 39.0966C5.14375 40.7784 6.5275 42.1543 8.21875 42.1543ZM8.21875 38.0774C8.7825 38.0774 9.24375 38.5361 9.24375 39.0966C9.24375 39.6572 8.7825 40.1159 8.21875 40.1159C7.655 40.1159 7.19375 39.6572 7.19375 39.0966C7.19375 38.5361 7.655 38.0774 8.21875 38.0774Z" fill="white"/>
<path d="M33.8438 42.1543C35.535 42.1543 36.9188 40.7784 36.9188 39.0966C36.9188 37.4149 35.535 36.039 33.8438 36.039C32.1525 36.039 30.7688 37.4149 30.7688 39.0966C30.7688 40.7784 32.1525 42.1543 33.8438 42.1543ZM33.8438 38.0774C34.4075 38.0774 34.8688 38.5361 34.8688 39.0966C34.8688 39.6572 34.4075 40.1159 33.8438 40.1159C33.28 40.1159 32.8188 39.6572 32.8188 39.0966C32.8188 38.5361 33.28 38.0774 33.8438 38.0774Z" fill="white"/>
</svg>
