<svg width="52" height="53" viewBox="0 0 52 53" fill="none" xmlns="http://www.w3.org/2000/svg">
<path d="M48.5333 26.3755H45.7416L40.7333 14.9277V4.70883C40.7333 4.23022 40.3453 3.84216 39.8667 3.84216H12.1333C11.6547 3.84216 11.2667 4.23022 11.2667 4.70883V14.9277L6.25837 26.3755H3.46667C1.55221 26.3755 0 27.9277 0 29.8422C0 31.7566 1.55221 33.3088 3.46667 33.3088H5.2V41.1088C5.20466 42.2066 5.89824 43.1832 6.93333 43.5493V48.0422C6.93333 48.5208 7.32139 48.9088 7.8 48.9088H14.7333C15.2119 48.9088 15.6 48.5208 15.6 48.0422V43.7088H36.4V48.0422C36.4 48.5208 36.7881 48.9088 37.2667 48.9088H44.2C44.6786 48.9088 45.0667 48.5208 45.0667 48.0422V43.5493C46.1018 43.1832 46.7953 42.2066 46.8 41.1088V33.3088H48.5333C50.4478 33.3088 52 31.7566 52 29.8422C52 27.9277 50.4478 26.3755 48.5333 26.3755ZM5.27279 28.6289C5.27279 28.6289 5.26771 28.6497 5.26432 28.6573C5.23258 28.7609 5.211 28.8676 5.2 28.9755V31.5755H3.46667C2.50944 31.5755 1.73333 30.7994 1.73333 29.8422C1.73333 28.8849 2.50944 28.1088 3.46667 28.1088H5.50003L5.27279 28.6289ZM13 5.5755H39V14.2422H13V5.5755ZM12.7 15.9755H39.3L44.6084 28.1088H7.39163L12.7 15.9755ZM6.93333 33.3088H13.8667V36.7755H6.93333V33.3088ZM13.8667 47.1755H8.66667V43.7088H13.8667V47.1755ZM43.3333 47.1755H38.1333V43.7088H43.3333V47.1755ZM45.0667 41.1088C45.0667 41.5874 44.6786 41.9755 44.2 41.9755H7.8C7.32139 41.9755 6.93333 41.5874 6.93333 41.1088V38.5088H45.0667V41.1088ZM15.6 36.7755V35.0422H36.4V36.7755H15.6ZM45.0667 36.7755H38.1333V33.3088H45.0667V36.7755ZM45.0667 31.5755H37.2667C36.7881 31.5755 36.4 31.9636 36.4 32.4422V33.3088H15.6V32.4422C15.6 31.9636 15.2119 31.5755 14.7333 31.5755H6.93333V29.8422H45.0667V31.5755ZM48.5333 31.5755H46.8V28.9755C46.789 28.8672 46.7674 28.7605 46.7357 28.6564C46.7357 28.6488 46.7281 28.6298 46.7272 28.6281L46.5 28.108H48.5333C49.4906 28.108 50.2667 28.8841 50.2667 29.8413C50.2667 30.7985 49.4906 31.5746 48.5333 31.5746V31.5755Z" fill="white"/>
<path d="M19.0677 6.44214H15.601C15.1224 6.44214 14.7344 6.83019 14.7344 7.30881C14.7344 7.78742 15.1224 8.17547 15.601 8.17547H16.4677V12.5088C16.4677 12.9874 16.8558 13.3755 17.3344 13.3755C17.813 13.3755 18.201 12.9874 18.201 12.5088V8.17547H19.0677C19.5463 8.17547 19.9344 7.78742 19.9344 7.30881C19.9344 6.83019 19.5463 6.44214 19.0677 6.44214Z" fill="white"/>
<path d="M26.0013 6.44214H22.5346C22.056 6.44214 21.668 6.83019 21.668 7.30881V13.3755H23.4013V11.6421H25.1346V13.3755H26.868V7.30881C26.868 6.83019 26.4799 6.44214 26.0013 6.44214ZM25.1346 9.90881H23.4013V8.17547H25.1346V9.90881Z" fill="white"/>
<path d="M33.4164 6.58765C33.0181 6.3219 32.4799 6.42938 32.2141 6.82759L31.2019 8.34891L30.1896 6.82759C29.9239 6.42938 29.3856 6.3219 28.9874 6.58765C28.5892 6.85341 28.4817 7.39169 28.7474 7.7899L30.1617 9.90875L28.7491 12.0276C28.4834 12.4258 28.5909 12.9641 28.9891 13.2298C29.3877 13.4956 29.9256 13.3881 30.1913 12.9899L31.2019 11.4686L32.2141 12.9869C32.4799 13.3856 33.0181 13.4931 33.4164 13.2273C33.8146 12.9615 33.9221 12.4233 33.6563 12.0251L32.242 9.90875L33.6546 7.7899C33.9208 7.39211 33.8137 6.85383 33.4164 6.58765Z" fill="white"/>
<path d="M36.4018 6.44214C35.9232 6.44214 35.5352 6.83019 35.5352 7.30881V12.5088C35.5352 12.9874 35.9232 13.3755 36.4018 13.3755C36.8804 13.3755 37.2685 12.9874 37.2685 12.5088V7.30881C37.2685 6.83019 36.8804 6.44214 36.4018 6.44214Z" fill="white"/>
<path d="M40.6466 23.3883L38.0466 18.1883C37.8993 17.893 37.5968 17.7072 37.2667 17.7089H26.8667C26.3881 17.7089 26 18.0969 26 18.5755C26 19.0542 26.3881 19.4422 26.8667 19.4422H36.7309L39.091 24.1627C39.3051 24.5914 39.8256 24.7654 40.2539 24.5512C40.6826 24.3371 40.8565 23.8166 40.6424 23.3883H40.6466Z" fill="white"/>
<path d="M23.4013 17.7089H22.5346C22.056 17.7089 21.668 18.0969 21.668 18.5755C21.668 19.0541 22.056 19.4422 22.5346 19.4422H23.4013C23.8799 19.4422 24.268 19.0541 24.268 18.5755C24.268 18.0969 23.8799 17.7089 23.4013 17.7089Z" fill="white"/>
</svg>
