<svg width="54" height="54" viewBox="0 0 54 54" fill="none" xmlns="http://www.w3.org/2000/svg">
<g clip-path="url(#clip0)">
<path d="M18.8623 36.4296C18.8623 34.4408 17.2443 32.8226 15.2553 32.8226C13.2665 32.8226 11.6484 34.4407 11.6484 36.4296C11.6484 38.4185 13.2665 40.0365 15.2553 40.0365C17.2443 40.0363 18.8623 38.4185 18.8623 36.4296ZM13.8568 36.4296C13.8568 35.6584 14.4842 35.031 15.2553 35.031C16.0264 35.031 16.6539 35.6584 16.6539 36.4296C16.6539 37.2008 16.0264 37.8281 15.2553 37.8281C14.4841 37.828 13.8568 37.2006 13.8568 36.4296Z" fill="white"/>
<path d="M37.7788 40.0363C39.7676 40.0363 41.3857 38.4182 41.3857 36.4294C41.3857 34.4405 39.7676 32.8224 37.7788 32.8224C35.7899 32.8224 34.1719 34.4404 34.1719 36.4294C34.1719 38.4184 35.7899 40.0363 37.7788 40.0363ZM37.7788 35.0309C38.55 35.0309 39.1773 35.6583 39.1773 36.4295C39.1773 37.2007 38.5499 37.828 37.7788 37.828C37.0076 37.828 36.3803 37.2006 36.3803 36.4295C36.3802 35.6583 37.0075 35.0309 37.7788 35.0309Z" fill="white"/>
<path d="M48.3993 52.1358L42.9685 44.4183C44.9941 43.4224 46.392 41.3379 46.392 38.9325V11.4019V11.4017V11.4015C46.3917 8.03286 43.651 5.29218 40.2822 5.29218H34.2464V4.18788C34.2464 2.36145 32.7606 0.875488 30.934 0.875488H22.1001C20.2736 0.875488 18.7876 2.36145 18.7876 4.18788V5.29218H12.7517C9.38286 5.29218 6.64229 8.03275 6.64198 11.4015V11.4016C6.64198 11.4017 6.64198 11.4017 6.64198 11.4017V11.4019V38.9325C6.64198 41.338 8.03985 43.4225 10.0655 44.4184L4.63492 52.1358C4.2839 52.6345 4.40366 53.3233 4.9025 53.6743C5.09577 53.8103 5.31739 53.8756 5.53695 53.8756C5.88414 53.8756 6.22595 53.7122 6.44095 53.4068L9.2191 49.4588H43.8151L46.5931 53.4068C46.8081 53.7122 47.1499 53.8756 47.4972 53.8756C47.7168 53.8756 47.9384 53.8103 48.1317 53.6743C48.6303 53.3233 48.7502 52.6344 48.3993 52.1358ZM44.1837 24.0628H27.621V20.656L35.7713 12.5058H39.7275L36.4502 15.7832C36.0189 16.2143 36.019 16.9134 36.4502 17.3447C36.6658 17.5603 36.9484 17.6681 37.2308 17.6681C37.5135 17.6681 37.796 17.5602 38.0116 17.3447L42.8501 12.5058H44.1836V24.0628H44.1837ZM27.621 17.5329V12.5058H32.6482L27.621 17.5329ZM20.996 4.18788C20.996 3.579 21.4914 3.08378 22.1002 3.08378H30.9341C31.543 3.08378 32.0382 3.579 32.0382 4.18788V5.29218H20.996V4.18788ZM12.7517 7.50048H19.8918H33.1422H40.2822C42.0499 7.50048 43.546 8.68252 44.0235 10.2975H35.3145C35.3141 10.2975 35.3138 10.2975 35.3133 10.2975H9.01041C9.48813 8.68262 10.9839 7.50048 12.7517 7.50048ZM8.85038 12.5058H25.4127V15.9129L17.2627 24.0628H13.3071L16.584 20.7859C17.0152 20.3547 17.0152 19.6556 16.584 19.2242C16.1529 18.7931 15.4537 18.7931 15.0224 19.2242L10.184 24.0626H8.85038V12.5058ZM25.4127 19.036V24.0628H20.3859L25.4127 19.036ZM8.85038 38.9325V26.2711H10.6367C10.6383 26.2711 10.6397 26.2713 10.6413 26.2713C10.6428 26.2713 10.6443 26.2711 10.6459 26.2711H17.7154C17.717 26.2711 17.7184 26.2713 17.72 26.2713C17.7215 26.2713 17.723 26.2711 17.7245 26.2711H44.1838V38.9325C44.1838 41.0837 42.4336 42.8338 40.2823 42.8338H12.7517C10.6004 42.8337 8.85038 41.0837 8.85038 38.9325ZM10.7731 47.2502L12.3379 45.0265C12.4748 45.0357 12.6124 45.042 12.7517 45.042H40.2822C40.4215 45.042 40.5593 45.0356 40.6963 45.0264L42.2611 47.2502H10.7731Z" fill="white"/>
<path d="M22.7644 31.2768H30.2725C30.8822 31.2768 31.3767 30.7825 31.3767 30.1726C31.3767 29.5626 30.8823 29.0684 30.2725 29.0684H22.7644C22.1545 29.0684 21.6602 29.5626 21.6602 30.1726C21.6602 30.7825 22.1544 31.2768 22.7644 31.2768Z" fill="white"/>
<path d="M34.1889 18.044L34.1316 18.1013C33.7007 18.5327 33.701 19.2319 34.1323 19.6628C34.3478 19.8783 34.6303 19.9859 34.9126 19.9859C35.1953 19.9859 35.4782 19.8779 35.6937 19.6622L35.7511 19.6049C36.1821 19.1735 36.1817 18.4743 35.7505 18.0433C35.319 17.6122 34.6199 17.6126 34.1889 18.044Z" fill="white"/>
<path d="M18.065 18.8487C18.3477 18.8487 18.6302 18.741 18.8458 18.5253L18.9032 18.468C19.3344 18.0368 19.3344 17.3375 18.9033 16.9064C18.4721 16.4752 17.773 16.4752 17.3416 16.9064L17.2843 16.9637C16.8532 17.3949 16.8532 18.094 17.2843 18.5253C17.4998 18.741 17.7825 18.8487 18.065 18.8487Z" fill="white"/>
</g>
<defs>
<clipPath id="clip0">
<rect width="53" height="53" fill="white" transform="translate(0.015625 0.875488)"/>
</clipPath>
</defs>
</svg>
