<svg width="53" height="54" viewBox="0 0 53 54" fill="none" xmlns="http://www.w3.org/2000/svg">
<g clip-path="url(#clip0)">
<path d="M32.8805 20.1949C32.4758 19.7912 31.8205 19.7912 31.4168 20.1949C31.0121 20.5996 31.0121 21.2549 31.4168 21.6585C31.8205 22.0632 32.4758 22.0632 32.8805 21.6585C33.2843 21.2548 33.2843 20.5996 32.8805 20.1949Z" fill="#FF9927"/>
<path d="M51.7861 20.3208L50.3224 18.8572C50.3763 18.7784 51.964 17.4855 51.964 15.0723C51.964 13.6895 51.4254 12.3898 50.4474 11.4125L49.7155 10.6806L50.4469 9.9485C52.4697 7.9286 52.4718 4.6512 50.4477 2.62986C48.4257 0.606545 45.1518 0.605303 43.1293 2.62924L42.3965 3.3615L41.6648 2.62975C39.6426 0.606131 36.3678 0.605406 34.3449 2.62955L34.2197 2.7547L32.7562 1.2912C31.1382 -0.32675 28.5195 -0.327889 26.9007 1.29089C25.2822 2.90811 25.2814 5.52829 26.9004 7.14603L32.7559 13.0016L12.9243 32.8331L7.06941 26.9781C5.45405 25.3602 2.83097 25.3578 1.21426 26.9772C-0.404616 28.5948 -0.404823 31.2146 1.21405 32.8336L2.67756 34.2971L2.55272 34.4219C0.529093 36.4441 0.528369 39.7189 2.55251 41.7418L3.28447 42.4738L2.55303 43.2058C0.530232 45.2257 0.528162 48.5031 2.5523 50.5246C4.57427 52.5477 7.84795 52.5492 9.87084 50.5251L10.6036 49.7928L11.3354 50.5246C13.3576 52.5482 16.6324 52.549 18.6553 50.5248L18.7803 50.3997L20.2438 51.8633C21.862 53.4814 24.4808 53.4823 26.0995 51.8637C27.7179 50.2464 27.7188 47.6262 26.0998 46.0085L20.2442 40.153L40.0757 20.3215L45.9307 26.1764C47.546 27.7943 50.1691 27.7967 51.7858 26.1773C53.4047 24.5595 53.4049 21.9397 51.7861 20.3208ZM44.5932 4.09325C45.8034 2.88212 47.7668 2.8756 48.9841 4.09398C50.1973 5.30542 50.1987 7.27076 48.9834 8.48448L48.2518 9.21675L43.8604 4.82542L44.5932 4.09325ZM35.8091 4.09325C37.0223 2.87923 38.9867 2.8785 40.2007 4.09346L48.9838 12.8766C50.1979 14.0898 50.1986 16.0543 48.9836 17.2682L48.8586 17.3933L35.6838 4.21861L35.8091 4.09325ZM8.40672 49.0611C7.19652 50.2722 5.23315 50.2787 4.0158 49.0603C2.8026 47.8489 2.80126 45.8836 4.01653 44.6698L4.74818 43.9376L9.13951 48.3289L8.40672 49.0611ZM17.1908 49.0611C15.9776 50.2751 14.0132 50.2758 12.7993 49.0609L4.01611 40.2777C2.80209 39.0645 2.80136 37.1001 4.01632 35.8862L4.14137 35.761L17.3161 48.9357L17.1908 49.0611ZM24.6359 47.4725C25.4449 48.2807 25.4456 49.5901 24.6357 50.3993C23.8245 51.2105 22.5156 51.2073 21.7075 50.3993C20.8421 49.5339 3.62503 32.3168 2.67787 31.3697C1.87531 30.5671 1.86154 29.2572 2.67849 28.4409C3.48373 27.6343 4.79465 27.6299 5.60487 28.4415L24.6359 47.4725ZM18.7801 38.6887L14.3885 34.2971L34.22 14.4656L38.6116 18.8573L18.7801 38.6887ZM50.3215 24.7134C49.5162 25.52 48.2053 25.5245 47.3951 24.7128L28.3641 5.68191C27.5551 4.87376 27.5545 3.56429 28.3644 2.75511C29.1755 1.94396 30.4844 1.94717 31.2925 2.75511C32.2398 3.70238 49.4706 20.9331 50.3221 21.7848C51.1246 22.5872 51.1384 23.8972 50.3215 24.7134Z" fill="#FF9927"/>
<path d="M29.9546 23.1231C29.5503 22.7187 28.8948 22.7187 28.4906 23.1231L20.1196 31.494C19.7153 31.8983 19.7153 32.5537 20.1196 32.9581C20.5238 33.3623 21.1793 33.3623 21.5835 32.9581L29.9545 24.5871C30.3588 24.1828 30.3588 23.5274 29.9546 23.1231Z" fill="#FF9927"/>
</g>
<defs>
<clipPath id="clip0">
<rect width="53" height="53" fill="white" transform="translate(0 0.0762939)"/>
</clipPath>
</defs>
</svg>
