<svg width="143" height="73" viewBox="0 0 143 73" fill="none" xmlns="http://www.w3.org/2000/svg">
<g clip-path="url(#clip0)">
<path d="M142.431 38.9742C141.744 37.2439 139.784 36.3984 138.054 37.0856C137.965 37.121 137.877 37.1601 137.792 37.2029L135.292 38.4546L130.189 31.6514C130.126 31.5673 130.049 31.4944 129.961 31.4361L124.394 27.7246C124.282 27.65 124.156 27.6006 124.023 27.5798L111.961 25.7241C111.669 25.6792 111.373 25.7757 111.164 25.9839L104.247 32.8752C103.085 34.0327 103.082 35.9127 104.239 37.0744C104.242 37.077 104.244 37.0797 104.247 37.0823C105.355 38.1828 107.125 38.2412 108.303 37.2159L113.908 32.3111L118.882 33.7326L114.719 42.8787L108.333 52.0007L100.743 58.8308C99.3611 60.0182 99.203 62.1014 100.39 63.4837C101.578 64.866 103.661 65.0241 105.043 63.8368L113.405 56.989L118.404 51.9905L124.743 56.7459L123.333 66.5889C123.201 67.5093 123.475 68.4418 124.084 69.1442C124.71 69.8602 125.619 70.265 126.57 70.2512C128.145 70.2534 129.499 69.134 129.794 67.5863L132.219 54.648C132.279 54.3256 132.165 53.9955 131.918 53.7795L124.969 47.7037L127.927 39.5699L133.388 45.8118C133.655 46.1168 134.09 46.2131 134.461 46.0493L140.726 43.2786C142.373 42.549 143.132 40.6341 142.431 38.9742ZM139.975 41.5797L134.335 44.0738L128.288 37.1639C127.951 36.7784 127.365 36.7396 126.979 37.0773C126.862 37.1803 126.772 37.3112 126.719 37.458L123.007 47.6647C122.876 48.0245 122.98 48.4277 123.268 48.6798L130.293 54.827L127.962 67.2449C127.823 67.9317 127.208 68.4179 126.508 68.3954C125.761 68.3952 125.155 67.7894 125.155 67.0422C125.155 66.9784 125.16 66.9147 125.169 66.8514L126.654 56.4647C126.702 56.1292 126.563 55.794 126.292 55.5907L118.869 50.0234C118.499 49.7464 117.982 49.7832 117.656 50.1097L112.157 55.6148L103.864 62.4004C103.251 62.9085 102.342 62.8233 101.834 62.2101C101.338 61.6119 101.405 60.7286 101.986 60.2125L109.654 53.3109C109.706 53.2639 109.753 53.211 109.793 53.1531L116.288 43.8743C116.321 43.8279 116.349 43.7785 116.373 43.7268L121.012 33.5201C121.224 33.0535 121.018 32.5035 120.551 32.2915C120.51 32.2726 120.467 32.2568 120.423 32.2443L113.928 30.3885C113.625 30.3007 113.298 30.3738 113.061 30.5824L107.076 35.8194C106.626 36.2399 105.921 36.216 105.5 35.7661C105.08 35.3161 105.104 34.6105 105.554 34.19L112.142 27.629L123.537 29.3827L128.797 32.8919L134.271 40.1879C134.54 40.5467 135.027 40.6619 135.429 40.4616L138.621 38.861C138.997 38.6719 139.435 38.6494 139.828 38.7988C140.248 38.9631 140.577 39.3015 140.729 39.7267C141.017 40.4465 140.684 41.2657 139.975 41.5797Z" fill="black"/>
<path d="M105.32 24.7852H93.2578V26.6409H105.32V24.7852Z" fill="black"/>
<path d="M91.4026 24.7852H89.5469V26.6409H91.4026V24.7852Z" fill="black"/>
<path d="M98.8245 32.2081H96.9688V34.0639H98.8245V32.2081Z" fill="black"/>
<path d="M95.1145 32.2081H87.6914V34.0639H95.1145V32.2081Z" fill="black"/>
<path d="M101.611 39.6312H92.332V41.487H101.611V39.6312Z" fill="black"/>
<path d="M105.321 47.0542H89.5469V48.91H105.321V47.0542Z" fill="black"/>
<path d="M98.8254 54.4773H91.4023V56.3331H98.8254V54.4773Z" fill="black"/>
<path d="M89.5472 54.4773H87.6914V56.3331H89.5472V54.4773Z" fill="black"/>
<path d="M96.042 61.9004H89.5469V63.7561H96.042V61.9004Z" fill="black"/>
<path d="M134.083 19.2178H129.908C127.089 19.2178 124.805 21.5026 124.805 24.3211C124.805 27.1397 127.089 29.4245 129.908 29.4245C132.727 29.4245 135.011 27.1397 135.011 24.3211V20.1457C135.011 19.6332 134.596 19.2178 134.083 19.2178ZM133.156 24.3211C133.163 26.1075 131.72 27.5614 129.934 27.5683C128.932 27.5723 126.673 26.7158 126.673 24.4501L133.156 22.0125V24.3211ZM133.156 22.0125L126.673 24.4501C126.673 24.4065 126.66 24.3657 126.66 24.3211C126.66 22.5275 128.114 21.0735 129.908 21.0735H133.156V22.0125Z" fill="black"/>
</g>
<g clip-path="url(#clip1)">
<path d="M71.965 14.2855C71.9626 14.1547 71.9482 14.0239 71.9122 13.8967L71.737 13.9471C71.7346 13.9435 71.7334 13.9399 71.7298 13.9375L71.9086 13.8847C69.9442 6.66794 63.8206 1.36994 56.4742 0.402741V0.234741H37.2742H37.057H35.0902H34.8742V0.235941H18.0718C9.75702 0.250341 2.42502 5.86154 0.244619 13.8691C0.206219 14.0023 0.193019 14.1379 0.190619 14.2747C0.117419 14.4439 0.0742188 14.6299 0.0742188 14.8267V17.0347V72.2347H46.8742H67.2742H72.0742V17.0347V14.8267C72.0742 14.6347 72.0346 14.4523 71.965 14.2855ZM55.1902 2.68274C61.6354 3.13994 67.159 7.41074 69.259 13.4347H54.0742H53.8294C52.7038 8.79314 49.7602 4.95194 45.8362 2.63474H54.0454L55.1902 2.68274ZM51.6742 17.0347C51.6742 21.0055 48.445 24.2347 44.4742 24.2347C40.5034 24.2347 37.2742 21.0055 37.2742 17.0347V15.8347H51.6742V17.0347ZM20.4742 15.8347H34.8742V17.0347C34.8742 21.0055 31.645 24.2347 27.6742 24.2347C23.7034 24.2347 20.4742 21.0055 20.4742 17.0347V15.8347ZM37.2742 2.63594C43.8874 2.73074 49.585 7.16594 51.3646 13.4347H37.2742V2.63594ZM34.8742 13.4347H20.7838C22.5634 7.16594 28.261 2.73074 34.8742 2.63594V13.4347ZM18.1018 2.63474H26.311C22.387 4.95194 19.4434 8.79314 18.3178 13.4347H18.0742H2.89182C5.12862 7.03394 11.2198 2.64794 18.1018 2.63474ZM2.47422 15.8347H17.8366H18.0742V17.0347C18.0742 21.0055 14.845 24.2347 10.8742 24.2347H9.67422C5.70342 24.2347 2.47422 21.0055 2.47422 17.0347V15.8347ZM64.8742 53.0347H49.2742V40.4347C49.2742 36.1339 52.7734 32.6347 57.0742 32.6347C61.375 32.6347 64.8742 36.1339 64.8742 40.4347V53.0347ZM49.2742 69.8347V55.4347H64.8742V69.8347H49.2742ZM69.6742 23.3779V69.8347H67.2742V40.4347C67.2742 34.8103 62.6986 30.2347 57.0742 30.2347C51.4498 30.2347 46.8742 34.8103 46.8742 40.4347V65.0347C46.2106 65.0347 45.6742 65.5711 45.6742 66.2347C45.6742 66.8983 46.2106 67.4347 46.8742 67.4347V68.6347H45.6742C45.0106 68.6347 44.4742 69.1711 44.4742 69.8347H43.2742C43.2742 69.1711 42.7378 68.6347 42.0742 68.6347H40.8742C40.2106 68.6347 39.6742 69.1711 39.6742 69.8347H38.4742C38.4742 69.1711 37.9378 68.6347 37.2742 68.6347H36.0742C35.4106 68.6347 34.8742 69.1711 34.8742 69.8347H33.6742C33.6742 69.1711 33.1378 68.6347 32.4742 68.6347H31.2742C30.6106 68.6347 30.0742 69.1711 30.0742 69.8347H28.8742C28.8742 69.1711 28.3378 68.6347 27.6742 68.6347H26.4742C25.8106 68.6347 25.2742 69.1711 25.2742 69.8347H24.0742C24.0742 69.1711 23.5378 68.6347 22.8742 68.6347H21.6742C21.0106 68.6347 20.4742 69.1711 20.4742 69.8347H19.2742C19.2742 69.1711 18.7378 68.6347 18.0742 68.6347H16.8742C16.2106 68.6347 15.6742 69.1711 15.6742 69.8347H14.4742C14.4742 69.1711 13.9378 68.6347 13.2742 68.6347H12.0742C11.4106 68.6347 10.8742 69.1711 10.8742 69.8347H9.67422C9.67422 69.1711 9.13782 68.6347 8.47422 68.6347H7.27422C6.61062 68.6347 6.07422 69.1711 6.07422 69.8347H4.87422C4.87422 69.1711 4.33782 68.6347 3.67422 68.6347H2.47422V66.2347V23.3779C2.53422 23.4463 2.60382 23.5075 2.66622 23.5735C2.78862 23.7043 2.91342 23.8339 3.04302 23.9587C3.14622 24.0583 3.25302 24.1531 3.36102 24.2479C3.49542 24.3655 3.63222 24.4795 3.77262 24.5899C3.88542 24.6787 4.00062 24.7639 4.11702 24.8479C4.26222 24.9523 4.41222 25.0507 4.56342 25.1467C4.68462 25.2235 4.80582 25.2991 4.93062 25.3699C5.08902 25.4599 5.25102 25.5439 5.41422 25.6255C5.54022 25.6891 5.66622 25.7527 5.79582 25.8103C5.96742 25.8859 6.14262 25.9531 6.31782 26.0191C6.44742 26.0683 6.57582 26.1187 6.70782 26.1619C6.89622 26.2231 7.08822 26.2723 7.28022 26.3215C7.40742 26.3539 7.53222 26.3923 7.66182 26.4199C7.87902 26.4667 8.09982 26.4979 8.32182 26.5291C8.43222 26.5447 8.54022 26.5675 8.65182 26.5795C8.98902 26.6143 9.32862 26.6347 9.67422 26.6347H10.8742C11.2798 26.6347 11.677 26.6011 12.0694 26.5519C12.1822 26.5375 12.2938 26.5183 12.4054 26.5003C12.7018 26.4523 12.9922 26.3911 13.279 26.3167C13.3786 26.2915 13.4782 26.2687 13.5766 26.2399C13.945 26.1319 14.305 26.0059 14.6542 25.8559C14.7082 25.8331 14.7574 25.8043 14.8102 25.7803C15.1066 25.6459 15.3946 25.4971 15.6754 25.3339C15.7726 25.2775 15.8662 25.2199 15.961 25.1599C16.2154 25.0003 16.4602 24.8299 16.6978 24.6475C16.7638 24.5971 16.8334 24.5503 16.8982 24.4975C17.1898 24.2623 17.467 24.0103 17.7286 23.7427C17.7874 23.6827 17.8414 23.6179 17.899 23.5555C18.1018 23.3371 18.2938 23.1103 18.4762 22.8751C18.5446 22.7863 18.6118 22.6975 18.6766 22.6063C18.865 22.3435 19.0402 22.0723 19.201 21.7915C19.2238 21.7519 19.2526 21.7159 19.2754 21.6763C19.2982 21.7159 19.327 21.7519 19.3498 21.7915C19.5106 22.0723 19.687 22.3435 19.8742 22.6063C19.939 22.6975 20.0062 22.7863 20.0746 22.8751C20.257 23.1115 20.449 23.3383 20.6518 23.5555C20.7094 23.6179 20.7622 23.6827 20.8222 23.7427C21.0838 24.0103 21.361 24.2623 21.6526 24.4975C21.7174 24.5503 21.787 24.5971 21.853 24.6475C22.0906 24.8299 22.3354 25.0003 22.5898 25.1599C22.6846 25.2187 22.7782 25.2775 22.8754 25.3339C23.155 25.4959 23.443 25.6459 23.7406 25.7803C23.7934 25.8043 23.8438 25.8331 23.8966 25.8559C24.2446 26.0059 24.6058 26.1319 24.9742 26.2399C25.0726 26.2687 25.1722 26.2903 25.2718 26.3167C25.5586 26.3911 25.849 26.4523 26.1454 26.5003C26.257 26.5183 26.3686 26.5375 26.4814 26.5519C26.8714 26.6011 27.2686 26.6347 27.6742 26.6347C28.0798 26.6347 28.477 26.6011 28.8694 26.5519C28.9822 26.5375 29.0938 26.5183 29.2054 26.5003C29.5018 26.4523 29.7922 26.3911 30.079 26.3167C30.1786 26.2915 30.2782 26.2687 30.3766 26.2399C30.745 26.1319 31.105 26.0059 31.4542 25.8559C31.5082 25.8331 31.5574 25.8043 31.6102 25.7803C31.9066 25.6459 32.1946 25.4971 32.4754 25.3339C32.5726 25.2775 32.6662 25.2199 32.761 25.1599C33.0154 25.0003 33.2602 24.8299 33.4978 24.6475C33.5638 24.5971 33.6334 24.5503 33.6982 24.4975C33.9898 24.2623 34.267 24.0103 34.5286 23.7427C34.5874 23.6827 34.6414 23.6179 34.699 23.5555C34.9018 23.3371 35.0938 23.1103 35.2762 22.8751C35.3446 22.7863 35.4118 22.6975 35.4766 22.6063C35.665 22.3435 35.8402 22.0723 36.001 21.7915C36.0238 21.7519 36.0526 21.7159 36.0754 21.6763C36.0982 21.7159 36.127 21.7519 36.1498 21.7915C36.3106 22.0723 36.487 22.3435 36.6742 22.6063C36.739 22.6975 36.8062 22.7863 36.8746 22.8751C37.057 23.1115 37.249 23.3383 37.4518 23.5555C37.5094 23.6179 37.5622 23.6827 37.6222 23.7427C37.8838 24.0103 38.161 24.2623 38.4526 24.4975C38.5174 24.5503 38.587 24.5971 38.653 24.6475C38.8906 24.8299 39.1354 25.0003 39.3898 25.1599C39.4846 25.2187 39.5782 25.2775 39.6754 25.3339C39.955 25.4959 40.243 25.6459 40.5406 25.7803C40.5934 25.8043 40.6438 25.8331 40.6966 25.8559C41.0446 26.0059 41.4058 26.1319 41.7742 26.2399C41.8726 26.2687 41.9722 26.2903 42.0718 26.3167C42.3586 26.3911 42.649 26.4523 42.9454 26.5003C43.057 26.5183 43.1686 26.5375 43.2814 26.5519C43.6714 26.6011 44.0686 26.6347 44.4742 26.6347C44.8798 26.6347 45.277 26.6011 45.6694 26.5519C45.7822 26.5375 45.8938 26.5183 46.0054 26.5003C46.3018 26.4523 46.5922 26.3911 46.879 26.3167C46.9786 26.2915 47.0782 26.2687 47.1766 26.2399C47.545 26.1319 47.905 26.0059 48.2542 25.8559C48.3082 25.8331 48.3574 25.8043 48.4102 25.7803C48.7066 25.6459 48.9946 25.4971 49.2754 25.3339C49.3726 25.2775 49.4662 25.2199 49.561 25.1599C49.8154 25.0003 50.0602 24.8299 50.2978 24.6475C50.3638 24.5971 50.4334 24.5503 50.4982 24.4975C50.7898 24.2623 51.067 24.0103 51.3286 23.7427C51.3874 23.6827 51.4414 23.6179 51.499 23.5555C51.7018 23.3371 51.8938 23.1103 52.0762 22.8751C52.1446 22.7863 52.2118 22.6975 52.2766 22.6063C52.465 22.3435 52.6402 22.0723 52.801 21.7915C52.8238 21.7519 52.8526 21.7159 52.8754 21.6763C52.8982 21.7159 52.927 21.7519 52.9498 21.7915C53.1106 22.0723 53.287 22.3435 53.4742 22.6063C53.539 22.6975 53.6062 22.7863 53.6746 22.8751C53.857 23.1115 54.049 23.3383 54.2518 23.5555C54.3094 23.6179 54.3622 23.6827 54.4222 23.7427C54.6838 24.0103 54.961 24.2623 55.2526 24.4975C55.3174 24.5503 55.387 24.5971 55.453 24.6475C55.6906 24.8299 55.9354 25.0003 56.1898 25.1599C56.2846 25.2187 56.3782 25.2775 56.4754 25.3339C56.755 25.4959 57.043 25.6459 57.3406 25.7803C57.3934 25.8043 57.4438 25.8331 57.4966 25.8559C57.8446 26.0059 58.2058 26.1319 58.5742 26.2399C58.6726 26.2687 58.7722 26.2903 58.8718 26.3167C59.1586 26.3911 59.449 26.4523 59.7454 26.5003C59.857 26.5183 59.9686 26.5375 60.0814 26.5519C60.4714 26.6011 60.8686 26.6347 61.2742 26.6347H62.4742C62.8198 26.6347 63.1594 26.6143 63.4954 26.5783C63.607 26.5663 63.715 26.5435 63.8266 26.5279C64.0486 26.4967 64.2694 26.4643 64.4866 26.4187C64.6162 26.3911 64.741 26.3527 64.8682 26.3203C65.0602 26.2711 65.2534 26.2219 65.4406 26.1607C65.5726 26.1175 65.701 26.0659 65.8306 26.0179C66.007 25.9519 66.1822 25.8847 66.3526 25.8091C66.4822 25.7515 66.6082 25.6879 66.7342 25.6243C66.8974 25.5427 67.0594 25.4599 67.2178 25.3687C67.3426 25.2979 67.4638 25.2223 67.585 25.1455C67.7362 25.0495 67.885 24.9511 68.0302 24.8467C68.1478 24.7627 68.263 24.6763 68.3758 24.5875C68.5162 24.4771 68.6518 24.3643 68.7862 24.2467C68.8942 24.1519 69.001 24.0571 69.1042 23.9575C69.2338 23.8327 69.3574 23.7043 69.481 23.5723C69.5446 23.5075 69.6142 23.4463 69.6742 23.3779ZM62.4742 24.2347H61.2742C57.3034 24.2347 54.0742 21.0055 54.0742 17.0347V15.8347H54.3118H69.6742V17.0347C69.6742 21.0055 66.445 24.2347 62.4742 24.2347Z" fill="black"/>
<path d="M4.875 63.8347H44.475V30.2347H4.875V63.8347ZM7.275 32.6347H42.075V61.4347H7.275V32.6347Z" fill="black"/>
<path d="M18.0753 45.8347C18.3825 45.8347 18.6897 45.7171 18.9237 45.4831L23.7237 40.6831C24.1929 40.2139 24.1929 39.4555 23.7237 38.9863C23.2545 38.5171 22.4961 38.5171 22.0269 38.9863L17.2269 43.7863C16.7577 44.2555 16.7577 45.0139 17.2269 45.4831C17.4609 45.7171 17.7681 45.8347 18.0753 45.8347Z" fill="black"/>
<path d="M18.0753 51.8347C18.3825 51.8347 18.6897 51.7171 18.9237 51.4831L21.3237 49.0831C21.7929 48.6139 21.7929 47.8555 21.3237 47.3863C20.8545 46.9171 20.0961 46.9171 19.6269 47.3863L17.2269 49.7863C16.7577 50.2555 16.7577 51.0139 17.2269 51.4831C17.4609 51.7171 17.7681 51.8347 18.0753 51.8347Z" fill="black"/>
<path d="M22.0238 44.9828C21.8066 45.2096 21.6758 45.5228 21.6758 45.8348C21.6758 46.1468 21.8066 46.4588 22.0238 46.6868C22.2506 46.9028 22.5638 47.0348 22.8758 47.0348C23.1878 47.0348 23.4998 46.9028 23.7278 46.6868C23.9438 46.4588 24.0758 46.1468 24.0758 45.8348C24.0758 45.5228 23.9438 45.2096 23.7278 44.9828C23.2838 44.5388 22.4678 44.5388 22.0238 44.9828Z" fill="black"/>
<path d="M24.4261 44.2831C24.6601 44.5171 24.9673 44.6347 25.2745 44.6347C25.5817 44.6347 25.8889 44.5171 26.1229 44.2831L29.7229 40.6831C30.1921 40.2139 30.1921 39.4555 29.7229 38.9863C29.2537 38.5171 28.4953 38.5171 28.0261 38.9863L24.4261 42.5863C23.9569 43.0555 23.9569 43.8139 24.4261 44.2831Z" fill="black"/>
<path d="M28.0269 44.9863L17.2269 55.7863C16.7577 56.2555 16.7577 57.0139 17.2269 57.4831C17.4609 57.7171 17.7681 57.8347 18.0753 57.8347C18.3825 57.8347 18.6897 57.7171 18.9237 57.4831L29.7237 46.6831C30.1929 46.2139 30.1929 45.4555 29.7237 44.9863C29.2545 44.5171 28.4961 44.5171 28.0269 44.9863Z" fill="black"/>
<path d="M30.4222 42.5828C30.205 42.8096 30.0742 43.1096 30.0742 43.4348C30.0742 43.7588 30.205 44.0588 30.4222 44.2868C30.649 44.5028 30.949 44.6348 31.2742 44.6348C31.5982 44.6348 31.8982 44.5028 32.1142 44.2868C32.3422 44.0588 32.4742 43.7468 32.4742 43.4348C32.4742 43.1096 32.3422 42.8096 32.1262 42.5828C31.6822 42.1388 30.8662 42.1388 30.4222 42.5828Z" fill="black"/>
<path d="M9.67344 65.0348H8.47344C7.80984 65.0348 7.27344 65.5712 7.27344 66.2348C7.27344 66.8984 7.80984 67.4348 8.47344 67.4348H9.67344C10.337 67.4348 10.8734 66.8984 10.8734 66.2348C10.8734 65.5712 10.337 65.0348 9.67344 65.0348Z" fill="black"/>
<path d="M3.67266 67.4348H4.87266C5.53626 67.4348 6.07266 66.8984 6.07266 66.2348C6.07266 65.5712 5.53626 65.0348 4.87266 65.0348H3.67266C3.00906 65.0348 2.47266 65.5712 2.47266 66.2348C2.47266 66.8984 3.00906 67.4348 3.67266 67.4348Z" fill="black"/>
<path d="M19.275 65.0348H18.075C17.4114 65.0348 16.875 65.5712 16.875 66.2348C16.875 66.8984 17.4114 67.4348 18.075 67.4348H19.275C19.9386 67.4348 20.475 66.8984 20.475 66.2348C20.475 65.5712 19.9386 65.0348 19.275 65.0348Z" fill="black"/>
<path d="M14.4742 65.0348H13.2742C12.6106 65.0348 12.0742 65.5712 12.0742 66.2348C12.0742 66.8984 12.6106 67.4348 13.2742 67.4348H14.4742C15.1378 67.4348 15.6742 66.8984 15.6742 66.2348C15.6742 65.5712 15.1378 65.0348 14.4742 65.0348Z" fill="black"/>
<path d="M28.8727 65.0348H27.6727C27.0091 65.0348 26.4727 65.5712 26.4727 66.2348C26.4727 66.8984 27.0091 67.4348 27.6727 67.4348H28.8727C29.5363 67.4348 30.0727 66.8984 30.0727 66.2348C30.0727 65.5712 29.5363 65.0348 28.8727 65.0348Z" fill="black"/>
<path d="M24.0758 65.0348H22.8758C22.2122 65.0348 21.6758 65.5712 21.6758 66.2348C21.6758 66.8984 22.2122 67.4348 22.8758 67.4348H24.0758C24.7394 67.4348 25.2758 66.8984 25.2758 66.2348C25.2758 65.5712 24.7394 65.0348 24.0758 65.0348Z" fill="black"/>
<path d="M38.4742 65.0348H37.2742C36.6106 65.0348 36.0742 65.5712 36.0742 66.2348C36.0742 66.8984 36.6106 67.4348 37.2742 67.4348H38.4742C39.1378 67.4348 39.6742 66.8984 39.6742 66.2348C39.6742 65.5712 39.1378 65.0348 38.4742 65.0348Z" fill="black"/>
<path d="M33.6734 65.0348H32.4734C31.8098 65.0348 31.2734 65.5712 31.2734 66.2348C31.2734 66.8984 31.8098 67.4348 32.4734 67.4348H33.6734C34.337 67.4348 34.8734 66.8984 34.8734 66.2348C34.8734 65.5712 34.337 65.0348 33.6734 65.0348Z" fill="black"/>
<path d="M43.275 65.0348H42.075C41.4114 65.0348 40.875 65.5712 40.875 66.2348C40.875 66.8984 41.4114 67.4348 42.075 67.4348H43.275C43.9386 67.4348 44.475 66.8984 44.475 66.2348C44.475 65.5712 43.9386 65.0348 43.275 65.0348Z" fill="black"/>
</g>
<defs>
<clipPath id="clip0">
<rect width="55" height="55" fill="white" transform="translate(87.6914 17.2347)"/>
</clipPath>
<clipPath id="clip1">
<rect width="72" height="72" fill="white" transform="translate(0.0742188 0.234741)"/>
</clipPath>
</defs>
</svg>
