<svg width="142" height="73" viewBox="0 0 142 73" fill="none" xmlns="http://www.w3.org/2000/svg">
<g clip-path="url(#clip0)">
<path d="M72.4963 14.2855C72.4939 14.1547 72.4795 14.0239 72.4435 13.8967L72.2683 13.9471C72.2659 13.9435 72.2647 13.9399 72.2611 13.9375L72.4399 13.8847C70.4755 6.66794 64.3519 1.36994 57.0055 0.402741V0.234741H37.8055H37.5883H35.6215H35.4055V0.235941H18.6031C10.2883 0.250341 2.95627 5.86154 0.775869 13.8691C0.737469 14.0023 0.724269 14.1379 0.721869 14.2747C0.648669 14.4439 0.605469 14.6299 0.605469 14.8267V17.0347V72.2347H47.4055H67.8055H72.6055V17.0347V14.8267C72.6055 14.6347 72.5659 14.4523 72.4963 14.2855ZM55.7215 2.68274C62.1667 3.13994 67.6903 7.41074 69.7903 13.4347H54.6055H54.3607C53.2351 8.79314 50.2915 4.95194 46.3675 2.63474H54.5767L55.7215 2.68274ZM52.2055 17.0347C52.2055 21.0055 48.9763 24.2347 45.0055 24.2347C41.0347 24.2347 37.8055 21.0055 37.8055 17.0347V15.8347H52.2055V17.0347ZM21.0055 15.8347H35.4055V17.0347C35.4055 21.0055 32.1763 24.2347 28.2055 24.2347C24.2347 24.2347 21.0055 21.0055 21.0055 17.0347V15.8347ZM37.8055 2.63594C44.4187 2.73074 50.1163 7.16594 51.8959 13.4347H37.8055V2.63594ZM35.4055 13.4347H21.3151C23.0947 7.16594 28.7923 2.73074 35.4055 2.63594V13.4347ZM18.6331 2.63474H26.8423C22.9183 4.95194 19.9747 8.79314 18.8491 13.4347H18.6055H3.42307C5.65987 7.03394 11.7511 2.64794 18.6331 2.63474ZM3.00547 15.8347H18.3679H18.6055V17.0347C18.6055 21.0055 15.3763 24.2347 11.4055 24.2347H10.2055C6.23467 24.2347 3.00547 21.0055 3.00547 17.0347V15.8347ZM65.4055 53.0347H49.8055V40.4347C49.8055 36.1339 53.3047 32.6347 57.6055 32.6347C61.9063 32.6347 65.4055 36.1339 65.4055 40.4347V53.0347ZM49.8055 69.8347V55.4347H65.4055V69.8347H49.8055ZM70.2055 23.3779V69.8347H67.8055V40.4347C67.8055 34.8103 63.2299 30.2347 57.6055 30.2347C51.9811 30.2347 47.4055 34.8103 47.4055 40.4347V65.0347C46.7419 65.0347 46.2055 65.5711 46.2055 66.2347C46.2055 66.8983 46.7419 67.4347 47.4055 67.4347V68.6347H46.2055C45.5419 68.6347 45.0055 69.1711 45.0055 69.8347H43.8055C43.8055 69.1711 43.2691 68.6347 42.6055 68.6347H41.4055C40.7419 68.6347 40.2055 69.1711 40.2055 69.8347H39.0055C39.0055 69.1711 38.4691 68.6347 37.8055 68.6347H36.6055C35.9419 68.6347 35.4055 69.1711 35.4055 69.8347H34.2055C34.2055 69.1711 33.6691 68.6347 33.0055 68.6347H31.8055C31.1419 68.6347 30.6055 69.1711 30.6055 69.8347H29.4055C29.4055 69.1711 28.8691 68.6347 28.2055 68.6347H27.0055C26.3419 68.6347 25.8055 69.1711 25.8055 69.8347H24.6055C24.6055 69.1711 24.0691 68.6347 23.4055 68.6347H22.2055C21.5419 68.6347 21.0055 69.1711 21.0055 69.8347H19.8055C19.8055 69.1711 19.2691 68.6347 18.6055 68.6347H17.4055C16.7419 68.6347 16.2055 69.1711 16.2055 69.8347H15.0055C15.0055 69.1711 14.4691 68.6347 13.8055 68.6347H12.6055C11.9419 68.6347 11.4055 69.1711 11.4055 69.8347H10.2055C10.2055 69.1711 9.66907 68.6347 9.00547 68.6347H7.80547C7.14187 68.6347 6.60547 69.1711 6.60547 69.8347H5.40547C5.40547 69.1711 4.86907 68.6347 4.20547 68.6347H3.00547V66.2347V23.3779C3.06547 23.4463 3.13507 23.5075 3.19747 23.5735C3.31987 23.7043 3.44467 23.8339 3.57427 23.9587C3.67747 24.0583 3.78427 24.1531 3.89227 24.2479C4.02667 24.3655 4.16347 24.4795 4.30387 24.5899C4.41667 24.6787 4.53187 24.7639 4.64827 24.8479C4.79347 24.9523 4.94347 25.0507 5.09467 25.1467C5.21587 25.2235 5.33707 25.2991 5.46187 25.3699C5.62027 25.4599 5.78227 25.5439 5.94547 25.6255C6.07147 25.6891 6.19747 25.7527 6.32707 25.8103C6.49867 25.8859 6.67387 25.9531 6.84907 26.0191C6.97867 26.0683 7.10707 26.1187 7.23907 26.1619C7.42747 26.2231 7.61947 26.2723 7.81147 26.3215C7.93867 26.3539 8.06347 26.3923 8.19307 26.4199C8.41027 26.4667 8.63107 26.4979 8.85307 26.5291C8.96347 26.5447 9.07147 26.5675 9.18307 26.5795C9.52027 26.6143 9.85987 26.6347 10.2055 26.6347H11.4055C11.8111 26.6347 12.2083 26.6011 12.6007 26.5519C12.7135 26.5375 12.8251 26.5183 12.9367 26.5003C13.2331 26.4523 13.5235 26.3911 13.8103 26.3167C13.9099 26.2915 14.0095 26.2687 14.1079 26.2399C14.4763 26.1319 14.8363 26.0059 15.1855 25.8559C15.2395 25.8331 15.2887 25.8043 15.3415 25.7803C15.6379 25.6459 15.9259 25.4971 16.2067 25.3339C16.3039 25.2775 16.3975 25.2199 16.4923 25.1599C16.7467 25.0003 16.9915 24.8299 17.2291 24.6475C17.2951 24.5971 17.3647 24.5503 17.4295 24.4975C17.7211 24.2623 17.9983 24.0103 18.2599 23.7427C18.3187 23.6827 18.3727 23.6179 18.4303 23.5555C18.6331 23.3371 18.8251 23.1103 19.0075 22.8751C19.0759 22.7863 19.1431 22.6975 19.2079 22.6063C19.3963 22.3435 19.5715 22.0723 19.7323 21.7915C19.7551 21.7519 19.7839 21.7159 19.8067 21.6763C19.8295 21.7159 19.8583 21.7519 19.8811 21.7915C20.0419 22.0723 20.2183 22.3435 20.4055 22.6063C20.4703 22.6975 20.5375 22.7863 20.6059 22.8751C20.7883 23.1115 20.9803 23.3383 21.1831 23.5555C21.2407 23.6179 21.2935 23.6827 21.3535 23.7427C21.6151 24.0103 21.8923 24.2623 22.1839 24.4975C22.2487 24.5503 22.3183 24.5971 22.3843 24.6475C22.6219 24.8299 22.8667 25.0003 23.1211 25.1599C23.2159 25.2187 23.3095 25.2775 23.4067 25.3339C23.6863 25.4959 23.9743 25.6459 24.2719 25.7803C24.3247 25.8043 24.3751 25.8331 24.4279 25.8559C24.7759 26.0059 25.1371 26.1319 25.5055 26.2399C25.6039 26.2687 25.7035 26.2903 25.8031 26.3167C26.0899 26.3911 26.3803 26.4523 26.6767 26.5003C26.7883 26.5183 26.8999 26.5375 27.0127 26.5519C27.4027 26.6011 27.7999 26.6347 28.2055 26.6347C28.6111 26.6347 29.0083 26.6011 29.4007 26.5519C29.5135 26.5375 29.6251 26.5183 29.7367 26.5003C30.0331 26.4523 30.3235 26.3911 30.6103 26.3167C30.7099 26.2915 30.8095 26.2687 30.9079 26.2399C31.2763 26.1319 31.6363 26.0059 31.9855 25.8559C32.0395 25.8331 32.0887 25.8043 32.1415 25.7803C32.4379 25.6459 32.7259 25.4971 33.0067 25.3339C33.1039 25.2775 33.1975 25.2199 33.2923 25.1599C33.5467 25.0003 33.7915 24.8299 34.0291 24.6475C34.0951 24.5971 34.1647 24.5503 34.2295 24.4975C34.5211 24.2623 34.7983 24.0103 35.0599 23.7427C35.1187 23.6827 35.1727 23.6179 35.2303 23.5555C35.4331 23.3371 35.6251 23.1103 35.8075 22.8751C35.8759 22.7863 35.9431 22.6975 36.0079 22.6063C36.1963 22.3435 36.3715 22.0723 36.5323 21.7915C36.5551 21.7519 36.5839 21.7159 36.6067 21.6763C36.6295 21.7159 36.6583 21.7519 36.6811 21.7915C36.8419 22.0723 37.0183 22.3435 37.2055 22.6063C37.2703 22.6975 37.3375 22.7863 37.4059 22.8751C37.5883 23.1115 37.7803 23.3383 37.9831 23.5555C38.0407 23.6179 38.0935 23.6827 38.1535 23.7427C38.4151 24.0103 38.6923 24.2623 38.9839 24.4975C39.0487 24.5503 39.1183 24.5971 39.1843 24.6475C39.4219 24.8299 39.6667 25.0003 39.9211 25.1599C40.0159 25.2187 40.1095 25.2775 40.2067 25.3339C40.4863 25.4959 40.7743 25.6459 41.0719 25.7803C41.1247 25.8043 41.1751 25.8331 41.2279 25.8559C41.5759 26.0059 41.9371 26.1319 42.3055 26.2399C42.4039 26.2687 42.5035 26.2903 42.6031 26.3167C42.8899 26.3911 43.1803 26.4523 43.4767 26.5003C43.5883 26.5183 43.6999 26.5375 43.8127 26.5519C44.2027 26.6011 44.5999 26.6347 45.0055 26.6347C45.4111 26.6347 45.8083 26.6011 46.2007 26.5519C46.3135 26.5375 46.4251 26.5183 46.5367 26.5003C46.8331 26.4523 47.1235 26.3911 47.4103 26.3167C47.5099 26.2915 47.6095 26.2687 47.7079 26.2399C48.0763 26.1319 48.4363 26.0059 48.7855 25.8559C48.8395 25.8331 48.8887 25.8043 48.9415 25.7803C49.2379 25.6459 49.5259 25.4971 49.8067 25.3339C49.9039 25.2775 49.9975 25.2199 50.0923 25.1599C50.3467 25.0003 50.5915 24.8299 50.8291 24.6475C50.8951 24.5971 50.9647 24.5503 51.0295 24.4975C51.3211 24.2623 51.5983 24.0103 51.8599 23.7427C51.9187 23.6827 51.9727 23.6179 52.0303 23.5555C52.2331 23.3371 52.4251 23.1103 52.6075 22.8751C52.6759 22.7863 52.7431 22.6975 52.8079 22.6063C52.9963 22.3435 53.1715 22.0723 53.3323 21.7915C53.3551 21.7519 53.3839 21.7159 53.4067 21.6763C53.4295 21.7159 53.4583 21.7519 53.4811 21.7915C53.6419 22.0723 53.8183 22.3435 54.0055 22.6063C54.0703 22.6975 54.1375 22.7863 54.2059 22.8751C54.3883 23.1115 54.5803 23.3383 54.7831 23.5555C54.8407 23.6179 54.8935 23.6827 54.9535 23.7427C55.2151 24.0103 55.4923 24.2623 55.7839 24.4975C55.8487 24.5503 55.9183 24.5971 55.9843 24.6475C56.2219 24.8299 56.4667 25.0003 56.7211 25.1599C56.8159 25.2187 56.9095 25.2775 57.0067 25.3339C57.2863 25.4959 57.5743 25.6459 57.8719 25.7803C57.9247 25.8043 57.9751 25.8331 58.0279 25.8559C58.3759 26.0059 58.7371 26.1319 59.1055 26.2399C59.2039 26.2687 59.3035 26.2903 59.4031 26.3167C59.6899 26.3911 59.9803 26.4523 60.2767 26.5003C60.3883 26.5183 60.4999 26.5375 60.6127 26.5519C61.0027 26.6011 61.3999 26.6347 61.8055 26.6347H63.0055C63.3511 26.6347 63.6907 26.6143 64.0267 26.5783C64.1383 26.5663 64.2463 26.5435 64.3579 26.5279C64.5799 26.4967 64.8007 26.4643 65.0179 26.4187C65.1475 26.3911 65.2723 26.3527 65.3995 26.3203C65.5915 26.2711 65.7847 26.2219 65.9719 26.1607C66.1039 26.1175 66.2323 26.0659 66.3619 26.0179C66.5383 25.9519 66.7135 25.8847 66.8839 25.8091C67.0135 25.7515 67.1395 25.6879 67.2655 25.6243C67.4287 25.5427 67.5907 25.4599 67.7491 25.3687C67.8739 25.2979 67.9951 25.2223 68.1163 25.1455C68.2675 25.0495 68.4163 24.9511 68.5615 24.8467C68.6791 24.7627 68.7943 24.6763 68.9071 24.5875C69.0475 24.4771 69.1831 24.3643 69.3175 24.2467C69.4255 24.1519 69.5323 24.0571 69.6355 23.9575C69.7651 23.8327 69.8887 23.7043 70.0123 23.5723C70.0759 23.5075 70.1455 23.4463 70.2055 23.3779ZM63.0055 24.2347H61.8055C57.8347 24.2347 54.6055 21.0055 54.6055 17.0347V15.8347H54.8431H70.2055V17.0347C70.2055 21.0055 66.9763 24.2347 63.0055 24.2347Z" fill="black"/>
<path d="M5.40625 63.8347H45.0063V30.2347H5.40625V63.8347ZM7.80625 32.6347H42.6063V61.4347H7.80625V32.6347Z" fill="black"/>
<path d="M18.6065 45.8347C18.9137 45.8347 19.2209 45.7171 19.4549 45.4831L24.255 40.6831C24.7242 40.2139 24.7242 39.4555 24.255 38.9863C23.7858 38.5171 23.0273 38.5171 22.5581 38.9863L17.7582 43.7863C17.2889 44.2555 17.2889 45.0139 17.7582 45.4831C17.9922 45.7171 18.2993 45.8347 18.6065 45.8347Z" fill="black"/>
<path d="M18.6065 51.8347C18.9137 51.8347 19.2209 51.7171 19.4549 51.4831L21.8549 49.0831C22.3242 48.6139 22.3242 47.8555 21.8549 47.3863C21.3858 46.9171 20.6273 46.9171 20.1581 47.3863L17.7581 49.7863C17.289 50.2555 17.289 51.0139 17.7581 51.4831C17.9921 51.7171 18.2993 51.8347 18.6065 51.8347Z" fill="black"/>
<path d="M22.555 44.9828C22.3378 45.2096 22.207 45.5228 22.207 45.8348C22.207 46.1468 22.3378 46.4588 22.555 46.6868C22.7818 46.9028 23.095 47.0348 23.407 47.0348C23.719 47.0348 24.031 46.9028 24.259 46.6868C24.475 46.4588 24.607 46.1468 24.607 45.8348C24.607 45.5228 24.475 45.2096 24.259 44.9828C23.815 44.5388 22.999 44.5388 22.555 44.9828Z" fill="black"/>
<path d="M24.9574 44.2831C25.1914 44.5171 25.4986 44.6347 25.8058 44.6347C26.113 44.6347 26.4202 44.5171 26.6542 44.2831L30.2542 40.6831C30.7234 40.2139 30.7234 39.4555 30.2542 38.9863C29.785 38.5171 29.0266 38.5171 28.5574 38.9863L24.9574 42.5863C24.4882 43.0555 24.4882 43.8139 24.9574 44.2831Z" fill="black"/>
<path d="M28.5581 44.9863L17.7582 55.7863C17.2889 56.2555 17.2889 57.0139 17.7582 57.4831C17.9922 57.7171 18.2993 57.8347 18.6065 57.8347C18.9137 57.8347 19.2209 57.7171 19.4549 57.4831L30.255 46.6831C30.7242 46.2139 30.7242 45.4555 30.255 44.9863C29.7858 44.5171 29.0273 44.5171 28.5581 44.9863Z" fill="black"/>
<path d="M30.9535 42.5828C30.7363 42.8096 30.6055 43.1096 30.6055 43.4348C30.6055 43.7588 30.7363 44.0588 30.9535 44.2868C31.1803 44.5028 31.4803 44.6348 31.8055 44.6348C32.1295 44.6348 32.4295 44.5028 32.6455 44.2868C32.8735 44.0588 33.0055 43.7468 33.0055 43.4348C33.0055 43.1096 32.8735 42.8096 32.6575 42.5828C32.2135 42.1388 31.3975 42.1388 30.9535 42.5828Z" fill="black"/>
<path d="M10.2047 65.0348H9.00469C8.34109 65.0348 7.80469 65.5712 7.80469 66.2348C7.80469 66.8984 8.34109 67.4348 9.00469 67.4348H10.2047C10.8683 67.4348 11.4047 66.8984 11.4047 66.2348C11.4047 65.5712 10.8683 65.0348 10.2047 65.0348Z" fill="black"/>
<path d="M4.20391 67.4348H5.40391C6.06751 67.4348 6.60391 66.8984 6.60391 66.2348C6.60391 65.5712 6.06751 65.0348 5.40391 65.0348H4.20391C3.54031 65.0348 3.00391 65.5712 3.00391 66.2348C3.00391 66.8984 3.54031 67.4348 4.20391 67.4348Z" fill="black"/>
<path d="M19.8063 65.0348H18.6063C17.9427 65.0348 17.4062 65.5712 17.4062 66.2348C17.4062 66.8984 17.9427 67.4348 18.6063 67.4348H19.8063C20.4699 67.4348 21.0063 66.8984 21.0063 66.2348C21.0063 65.5712 20.4699 65.0348 19.8063 65.0348Z" fill="black"/>
<path d="M15.0055 65.0348H13.8055C13.1419 65.0348 12.6055 65.5712 12.6055 66.2348C12.6055 66.8984 13.1419 67.4348 13.8055 67.4348H15.0055C15.6691 67.4348 16.2055 66.8984 16.2055 66.2348C16.2055 65.5712 15.6691 65.0348 15.0055 65.0348Z" fill="black"/>
<path d="M29.4039 65.0348H28.2039C27.5403 65.0348 27.0039 65.5712 27.0039 66.2348C27.0039 66.8984 27.5403 67.4348 28.2039 67.4348H29.4039C30.0675 67.4348 30.6039 66.8984 30.6039 66.2348C30.6039 65.5712 30.0675 65.0348 29.4039 65.0348Z" fill="black"/>
<path d="M24.607 65.0348H23.407C22.7434 65.0348 22.207 65.5712 22.207 66.2348C22.207 66.8984 22.7434 67.4348 23.407 67.4348H24.607C25.2706 67.4348 25.807 66.8984 25.807 66.2348C25.807 65.5712 25.2706 65.0348 24.607 65.0348Z" fill="black"/>
<path d="M39.0055 65.0348H37.8055C37.1419 65.0348 36.6055 65.5712 36.6055 66.2348C36.6055 66.8984 37.1419 67.4348 37.8055 67.4348H39.0055C39.6691 67.4348 40.2055 66.8984 40.2055 66.2348C40.2055 65.5712 39.6691 65.0348 39.0055 65.0348Z" fill="black"/>
<path d="M34.2047 65.0348H33.0047C32.3411 65.0348 31.8047 65.5712 31.8047 66.2348C31.8047 66.8984 32.3411 67.4348 33.0047 67.4348H34.2047C34.8683 67.4348 35.4047 66.8984 35.4047 66.2348C35.4047 65.5712 34.8683 65.0348 34.2047 65.0348Z" fill="black"/>
<path d="M43.8063 65.0348H42.6063C41.9427 65.0348 41.4062 65.5712 41.4062 66.2348C41.4062 66.8984 41.9427 67.4348 42.6063 67.4348H43.8063C44.4699 67.4348 45.0063 66.8984 45.0063 66.2348C45.0063 65.5712 44.4699 65.0348 43.8063 65.0348Z" fill="black"/>
</g>
<path d="M97.6396 32.0348C94.4511 32.0348 91.856 29.441 91.856 26.2513C91.856 23.0629 94.4499 20.4678 97.6396 20.4678C100.828 20.4678 103.422 23.0623 103.422 26.2513C103.422 29.441 100.829 32.0348 97.6396 32.0348ZM97.6396 21.626C95.0885 21.626 93.0124 23.702 93.0124 26.2532C93.0124 28.8043 95.0885 30.8804 97.6396 30.8804C100.191 30.8804 102.266 28.8043 102.266 26.2532C102.266 23.702 100.191 21.626 97.6396 21.626Z" fill="black"/>
<path d="M85.517 65.3066C85.6198 64.5144 86.0236 63.8065 86.6578 63.3178L92.6061 58.7259L93.3661 56.4393H90.9456C89.6704 56.4393 88.6342 55.4006 88.6342 54.1254C88.6342 54.1037 88.6354 54.0808 88.6379 54.0579L88.7129 53.4261C88.7153 53.3982 88.7215 53.3704 88.7271 53.3437L92.9901 37.456L93.1642 36.8949C93.1704 36.8794 93.1765 36.8633 93.1821 36.8466C93.8114 35.3298 95.2799 34.35 96.9224 34.35H98.8492C100.492 34.35 101.96 35.3298 102.59 36.8466C102.597 36.8633 102.603 36.8794 102.607 36.8949L102.789 37.479L103.313 39.4256L105.656 40.2648L110.186 38.8422C111.583 38.4068 113.076 39.1859 113.515 40.5819C113.953 41.9792 113.172 43.4718 111.775 43.9122L106.394 45.5999C106.137 45.6811 105.869 45.722 105.6 45.722C105.441 45.722 105.28 45.7052 105.108 45.6736H105.107C105.06 45.665 105.02 45.6544 104.979 45.6445L107.043 53.3444C107.051 53.371 107.056 53.3989 107.058 53.4267L107.133 54.0591C107.136 54.082 107.137 54.1049 107.137 54.126C107.137 55.4031 106.1 56.4399 104.824 56.4399H103.087L106.231 66.5211C106.236 66.5366 106.241 66.554 106.243 66.5695C106.415 67.3511 106.272 68.1519 105.842 68.8258C105.41 69.4996 104.742 69.9641 103.96 70.1357C103.742 70.1815 103.528 70.2057 103.317 70.2057C101.932 70.2057 100.709 69.2283 100.401 67.8757L98.2559 60.8466L98.1531 61.1829C97.992 61.8394 97.6099 62.4284 97.0742 62.8422L90.3182 68.0609C89.7893 68.4684 89.1582 68.6839 88.4893 68.6839C87.5516 68.6839 86.6882 68.2603 86.1184 67.5202C85.6285 66.8853 85.4154 66.1012 85.517 65.3066ZM105.981 54.1545L105.917 53.6008L103.66 45.1899L103.162 45.0122L98.3327 43.2823C98.0317 43.1745 97.8756 42.8444 97.9834 42.544C98.0924 42.243 98.4237 42.087 98.7223 42.1953L103.551 43.9252C103.551 43.9252 103.551 43.9264 103.553 43.9264L105.095 44.4771C105.17 44.5037 105.246 44.5216 105.323 44.5365C105.603 44.5885 105.822 44.5669 106.049 44.4969L111.429 42.8079C112.217 42.5601 112.658 41.7166 112.411 40.9294C112.163 40.1416 111.319 39.7024 110.531 39.9471L105.819 41.428C105.698 41.4664 105.569 41.4639 105.45 41.4193L102.814 40.4766H102.812L100.297 39.5755L98.5303 38.9431C98.2305 38.8347 98.0744 38.504 98.1822 38.2042C98.2899 37.9045 98.6213 37.7484 98.9211 37.8549L100.686 38.4873C100.687 38.4873 100.687 38.4885 100.687 38.4885L101.987 38.953L101.68 37.8041L101.512 37.2684C101.058 36.1975 100.015 35.5082 98.8492 35.5082H96.9224C95.7562 35.5082 94.715 36.1975 94.2598 37.2684L94.0988 37.7812L92.1961 44.8747H94.2245C94.5441 44.8747 94.803 45.1336 94.803 45.4532C94.803 45.7734 94.5441 46.0323 94.2245 46.0323H91.9131C91.9044 46.0323 91.8951 46.0298 91.8864 46.0298L91.2658 48.3443H96.1507C96.4715 48.3443 96.7304 48.6044 96.7304 48.9246C96.7304 49.2448 96.4715 49.5037 96.1507 49.5037H90.9562L90.3356 51.8158H98.233C98.5526 51.8158 98.8114 52.0747 98.8114 52.3949C98.8114 52.7145 98.5526 52.9734 98.233 52.9734H90.138C90.1002 52.9734 90.0631 52.9696 90.0278 52.961L89.8549 53.607L89.7899 54.16C89.8054 54.7844 90.3188 55.2873 90.945 55.2873H104.826C105.453 55.2823 105.964 54.7788 105.981 54.1545ZM101.514 67.5592C101.517 67.5734 101.522 67.5901 101.525 67.6038C101.737 68.5656 102.679 69.2259 103.714 69.0048C104.193 68.8995 104.605 68.6139 104.868 68.2002C105.128 67.7945 105.216 67.3102 105.121 66.8401L101.877 56.4393H98.1196L98.8065 58.6906C98.8077 58.6919 98.8077 58.6931 98.809 58.6956L101.514 67.5592ZM87.0338 66.8135C87.3831 67.2662 87.9133 67.5264 88.4893 67.5264C88.8993 67.5264 89.2876 67.3944 89.6115 67.143L96.3675 61.9268C96.6951 61.6728 96.9311 61.3111 97.0376 60.8788L97.6502 58.8616L96.9113 56.4393H94.5837L93.6473 59.2592C93.6107 59.3682 93.5432 59.4636 93.4528 59.5342L87.3645 64.2345C86.9762 64.5336 86.7272 64.9678 86.6653 65.454C86.6021 65.9408 86.7328 66.4233 87.0338 66.8135Z" fill="black"/>
<path d="M117.274 65.2266C116.053 64.4456 115.294 63.0892 115.294 61.617C115.294 60.8558 115.494 60.1181 115.875 59.4641C115.266 58.2167 115.12 56.638 115.517 55.3398C115.693 54.7588 116.22 54.3687 116.827 54.3687C116.962 54.3687 117.095 54.3891 117.225 54.4287C117.949 54.648 118.356 55.416 118.137 56.1369C118.005 56.5711 117.998 57.1013 118.106 57.5961C118.934 57.2933 119.843 57.248 120.726 57.4933C121.037 57.5825 121.332 57.6989 121.606 57.8451C122.519 58.1393 123.708 58.3424 124.518 58.3424C125.522 58.3424 126.596 58.1393 127.335 57.8123C127.34 57.8086 127.343 57.8061 127.348 57.803C127.947 57.4964 128.622 57.3335 129.299 57.3335C131.66 57.3335 133.582 59.256 133.582 61.617C133.582 62.9634 132.965 64.2022 131.909 65.0104C132.076 65.6756 132.171 66.3092 132.262 66.9298L132.27 66.9818C132.329 67.3825 132.385 67.7622 132.462 68.1301C132.657 69.0821 132.041 70.0173 131.089 70.2142C130.973 70.2371 130.853 70.2495 130.732 70.2495C129.899 70.2495 129.173 69.6581 129.005 68.8399C128.972 68.6782 128.946 68.5209 128.918 68.3624C128.515 68.8981 128.089 69.3818 127.668 69.7739C127.358 70.0606 126.954 70.2204 126.531 70.2204C126.069 70.2204 125.623 70.0272 125.31 69.689C124.683 69.0176 124.721 67.9604 125.394 67.3305C125.727 67.0208 126.08 66.6034 126.415 66.1314C125.526 66.1556 124.762 66.1556 124.417 66.1556C124.245 66.1556 124.05 66.1581 123.836 66.1606C123.762 66.1606 123.682 66.1618 123.604 66.163C123.647 66.4219 123.688 66.6808 123.727 66.9434C123.785 67.3435 123.844 67.756 123.926 68.1493C124.111 69.0492 123.528 69.9324 122.628 70.1189C122.519 70.1418 122.406 70.1548 122.291 70.1548C121.503 70.1548 120.816 69.5936 120.657 68.8219C120.562 68.3537 120.494 67.9022 120.43 67.4655L120.421 67.4123C120.398 67.2525 120.374 67.0976 120.351 66.9428C119.725 68.0223 118.942 69.0468 118.156 69.7788C117.829 70.0823 117.402 70.2514 116.955 70.2514C116.467 70.2514 115.996 70.047 115.663 69.6903C115.341 69.3453 115.175 68.8956 115.19 68.4249C115.207 67.9542 115.408 67.5176 115.751 67.1974C116.264 66.7229 116.819 65.9983 117.274 65.2266ZM126.053 68.0378C125.768 68.3029 125.752 68.7482 126.017 69.0325C126.272 69.3069 126.736 69.3242 127.011 69.0697C127.589 68.5302 128.182 67.7975 128.701 66.988C128.646 66.6344 128.591 66.3179 128.523 66.0206C128.238 66.0435 127.928 66.0639 127.606 66.0825C127.126 66.8536 126.571 67.5541 126.053 68.0378ZM121.386 67.3231C121.451 67.7473 121.515 68.1865 121.606 68.6287C121.672 68.9538 121.962 69.1886 122.293 69.1886C122.343 69.1886 122.39 69.1849 122.435 69.1756C122.816 69.0969 123.062 68.7241 122.984 68.3438C122.898 67.9214 122.835 67.4953 122.774 67.084C122.728 66.7756 122.679 66.4709 122.626 66.1661C122.119 66.1612 121.641 66.1513 121.19 66.1271C121.262 66.5012 121.321 66.8796 121.38 67.2717L120.903 67.3417L121.386 67.3231ZM116.514 68.9006C116.734 69.1384 117.134 69.1508 117.373 68.9315C118.34 68.0316 119.317 66.6238 119.919 65.2637C120.012 65.0538 120.22 64.9206 120.448 64.9206C120.465 64.9206 120.482 64.9206 120.499 64.9231L120.595 64.9324C121.301 64.9856 122.058 65.0135 122.914 65.0135H123.007C123.303 65.0123 123.577 65.0086 123.825 65.0061C124.044 65.003 124.243 65.0005 124.419 65.0005C124.922 65.0005 126.104 65.0005 127.353 64.9367C127.934 64.9076 128.454 64.8698 128.905 64.8203C129.208 64.785 129.492 65.003 129.539 65.3077C129.543 65.3331 129.546 65.3585 129.554 65.3876C129.695 65.8887 129.78 66.4002 129.853 66.8753L129.918 67.3095C129.981 67.7306 130.046 68.1685 130.136 68.6076C130.193 68.8882 130.443 69.0926 130.73 69.0926C130.772 69.0926 130.814 69.0876 130.852 69.0796C131.181 69.0127 131.393 68.6888 131.326 68.363C131.243 67.9616 131.185 67.5683 131.123 67.1497L131.115 67.0871C131.017 66.4294 130.916 65.7505 130.724 65.0612C130.716 65.0383 130.709 65.0166 130.701 64.9949C130.589 64.7323 130.688 64.4288 130.931 64.279C131.866 63.703 132.424 62.7077 132.424 61.6151C132.424 59.8914 131.02 58.488 129.296 58.488C128.807 58.488 128.34 58.5982 127.908 58.8119C127.89 58.8231 127.87 58.833 127.849 58.8423C126.957 59.2523 125.711 59.4969 124.514 59.4969C123.567 59.4969 122.23 59.2671 121.191 58.9271C121.156 58.9147 121.124 58.9005 121.092 58.8825C120.883 58.7673 120.654 58.6744 120.412 58.6069C119.59 58.3784 118.748 58.4917 118.039 58.8937C117.896 58.9736 117.727 58.989 117.572 58.9383C117.417 58.8875 117.291 58.7723 117.224 58.6224C116.838 57.7479 116.761 56.6652 117.025 55.7975C117.059 55.6842 116.996 55.5665 116.885 55.5318C116.788 55.5039 116.659 55.5423 116.618 55.6736C116.277 56.7916 116.443 58.1752 117.04 59.1971C117.154 59.391 117.143 59.6363 117.014 59.8215C116.641 60.3504 116.445 60.9697 116.445 61.6145C116.445 62.8433 117.171 63.9625 118.292 64.4666C118.437 64.531 118.548 64.653 118.6 64.8029C118.652 64.9528 118.641 65.1188 118.568 65.2594C118.022 66.3166 117.244 67.3819 116.539 68.0378C116.421 68.1493 116.352 68.2992 116.347 68.4621C116.345 68.6262 116.404 68.781 116.514 68.9006Z" fill="black"/>
<path d="M130.761 54.9163C130.761 54.4171 130.861 53.9321 131.046 53.4664C130.734 52.4116 130.505 50.1937 131.58 49.526C132.423 49.0027 133.396 50.0172 134.271 50.9877C134.276 50.9877 134.279 50.9877 134.284 50.9877C134.631 49.9571 135.02 49.4523 135.517 49.3724C136.454 49.2176 137.075 50.8762 137.332 51.7458C137.921 52.1794 138.33 52.7739 138.53 53.4794L139.465 53.7494C140.555 53.7872 141.395 54.5069 141.395 55.4198C141.395 55.5214 141.368 55.6205 141.318 55.7078L140.741 56.7155C140.25 57.5814 139.707 57.8477 138.746 58.0886C138.733 58.0923 138.718 58.0948 138.704 58.0973L137.052 58.3816C137.029 58.3871 136.983 58.3909 136.96 58.3921C136.922 58.3933 136.868 58.4039 136.814 58.4107C136.708 58.4262 136.601 58.4416 136.493 58.4454C135.942 58.7222 135.335 58.874 134.72 58.874C132.537 58.8715 130.761 57.0976 130.761 54.9163ZM135.64 50.3684C135.575 50.4408 135.455 50.6155 135.306 50.9933C135.578 51.0224 135.836 51.0707 136.085 51.1401C135.923 50.7747 135.76 50.4891 135.64 50.3684ZM138.487 56.9595C139.219 56.7756 139.444 56.6567 139.737 56.1426L140.214 55.3071C140.124 55.099 139.797 54.9051 139.378 54.9051C139.323 54.9051 139.269 54.8958 139.217 54.8822L137.884 54.4964C137.874 54.4939 137.867 54.4883 137.857 54.4846C137.847 54.4821 137.839 54.4772 137.83 54.4734C137.774 54.4518 137.721 54.4227 137.675 54.3836C137.675 54.3836 137.672 54.3812 137.671 54.3799C137.624 54.3403 137.585 54.292 137.554 54.2412C137.55 54.235 137.546 54.2313 137.544 54.2263C137.512 54.1731 137.492 54.113 137.48 54.0523C137.478 54.0461 137.475 54.0436 137.473 54.0393C137.372 53.4527 137.084 52.9857 136.616 52.6507C136.222 52.3676 135.716 52.1992 135.141 52.1422C135.151 52.1608 135.164 52.1824 135.174 52.2029C135.307 52.494 135.18 52.8359 134.889 52.9696C134.811 53.0068 134.73 53.0229 134.649 53.0229C134.429 53.0229 134.219 52.8972 134.121 52.6866C134.103 52.6463 134.064 52.5708 133.984 52.4556V52.4543C133.887 52.3131 133.76 52.1552 133.614 51.9911L133.54 51.9068C133.213 51.5439 132.483 50.7282 132.13 50.5696C131.891 50.9084 131.837 52.2983 132.201 53.2868C132.328 53.6348 132.452 53.7971 132.501 53.8367C132.751 54.0331 132.795 54.396 132.596 54.6487C132.481 54.7936 132.312 54.8686 132.143 54.8686C132.068 54.8686 131.993 54.8482 131.921 54.819C131.92 54.8519 131.917 54.8835 131.917 54.9169C131.917 56.461 133.172 57.717 134.717 57.717C135.194 57.717 135.667 57.5925 136.085 57.3578C136.09 57.3553 136.096 57.3522 136.1 57.351C136.123 57.3386 136.147 57.3287 136.172 57.3181C136.184 57.3144 136.196 57.3107 136.208 57.307C136.231 57.3008 136.253 57.2958 136.276 57.2915C136.29 57.2903 136.305 57.2878 136.32 57.2853C136.341 57.2841 136.36 57.2841 136.382 57.2853C136.399 57.2853 136.416 57.2853 136.433 57.289C136.44 57.289 136.447 57.289 136.455 57.2903C136.507 57.2878 136.571 57.2748 136.634 57.2661C136.725 57.2525 136.815 57.2407 136.886 57.2345L138.487 56.9595Z" fill="black"/>
<path d="M100.585 52.9659C100.267 52.9659 100.009 52.7083 100.009 52.3906C100.009 52.0728 100.267 51.8152 100.585 51.8152C100.903 51.8152 101.16 52.0728 101.16 52.3906C101.16 52.7083 100.903 52.9659 100.585 52.9659Z" fill="black"/>
<defs>
<clipPath id="clip0">
<rect width="72" height="72" fill="white" transform="translate(0.605469 0.234741)"/>
</clipPath>
</defs>
</svg>
