<svg width="72" height="73" viewBox="0 0 72 73" fill="none" xmlns="http://www.w3.org/2000/svg">
<path d="M71.8908 14.2855C71.8884 14.1547 71.874 14.0239 71.838 13.8967L71.6628 13.9471C71.6604 13.9435 71.6592 13.9399 71.6556 13.9375L71.8344 13.8847C69.87 6.66794 63.7464 1.36994 56.4 0.402741V0.234741H37.2H36.9828H35.016H34.8V0.235941H17.9976C9.6828 0.250341 2.3508 5.86154 0.1704 13.8691C0.132 14.0023 0.1188 14.1379 0.1164 14.2747C0.0432 14.4439 0 14.6299 0 14.8267V17.0347V72.2347H46.8H67.2H72V17.0347V14.8267C72 14.6347 71.9604 14.4523 71.8908 14.2855ZM55.116 2.68274C61.5612 3.13994 67.0848 7.41074 69.1848 13.4347H54H53.7552C52.6296 8.79314 49.686 4.95194 45.762 2.63474H53.9712L55.116 2.68274ZM51.6 17.0347C51.6 21.0055 48.3708 24.2347 44.4 24.2347C40.4292 24.2347 37.2 21.0055 37.2 17.0347V15.8347H51.6V17.0347ZM20.4 15.8347H34.8V17.0347C34.8 21.0055 31.5708 24.2347 27.6 24.2347C23.6292 24.2347 20.4 21.0055 20.4 17.0347V15.8347ZM37.2 2.63594C43.8132 2.73074 49.5108 7.16594 51.2904 13.4347H37.2V2.63594ZM34.8 13.4347H20.7096C22.4892 7.16594 28.1868 2.73074 34.8 2.63594V13.4347ZM18.0276 2.63474H26.2368C22.3128 4.95194 19.3692 8.79314 18.2436 13.4347H18H2.8176C5.0544 7.03394 11.1456 2.64794 18.0276 2.63474ZM2.4 15.8347H17.7624H18V17.0347C18 21.0055 14.7708 24.2347 10.8 24.2347H9.6C5.6292 24.2347 2.4 21.0055 2.4 17.0347V15.8347ZM64.8 53.0347H49.2V40.4347C49.2 36.1339 52.6992 32.6347 57 32.6347C61.3008 32.6347 64.8 36.1339 64.8 40.4347V53.0347ZM49.2 69.8347V55.4347H64.8V69.8347H49.2ZM69.6 23.3779V69.8347H67.2V40.4347C67.2 34.8103 62.6244 30.2347 57 30.2347C51.3756 30.2347 46.8 34.8103 46.8 40.4347V65.0347C46.1364 65.0347 45.6 65.5711 45.6 66.2347C45.6 66.8983 46.1364 67.4347 46.8 67.4347V68.6347H45.6C44.9364 68.6347 44.4 69.1711 44.4 69.8347H43.2C43.2 69.1711 42.6636 68.6347 42 68.6347H40.8C40.1364 68.6347 39.6 69.1711 39.6 69.8347H38.4C38.4 69.1711 37.8636 68.6347 37.2 68.6347H36C35.3364 68.6347 34.8 69.1711 34.8 69.8347H33.6C33.6 69.1711 33.0636 68.6347 32.4 68.6347H31.2C30.5364 68.6347 30 69.1711 30 69.8347H28.8C28.8 69.1711 28.2636 68.6347 27.6 68.6347H26.4C25.7364 68.6347 25.2 69.1711 25.2 69.8347H24C24 69.1711 23.4636 68.6347 22.8 68.6347H21.6C20.9364 68.6347 20.4 69.1711 20.4 69.8347H19.2C19.2 69.1711 18.6636 68.6347 18 68.6347H16.8C16.1364 68.6347 15.6 69.1711 15.6 69.8347H14.4C14.4 69.1711 13.8636 68.6347 13.2 68.6347H12C11.3364 68.6347 10.8 69.1711 10.8 69.8347H9.6C9.6 69.1711 9.0636 68.6347 8.4 68.6347H7.2C6.5364 68.6347 6 69.1711 6 69.8347H4.8C4.8 69.1711 4.2636 68.6347 3.6 68.6347H2.4V66.2347V23.3779C2.46 23.4463 2.5296 23.5075 2.592 23.5735C2.7144 23.7043 2.8392 23.8339 2.9688 23.9587C3.072 24.0583 3.1788 24.1531 3.2868 24.2479C3.4212 24.3655 3.558 24.4795 3.6984 24.5899C3.8112 24.6787 3.9264 24.7639 4.0428 24.8479C4.188 24.9523 4.338 25.0507 4.4892 25.1467C4.6104 25.2235 4.7316 25.2991 4.8564 25.3699C5.0148 25.4599 5.1768 25.5439 5.34 25.6255C5.466 25.6891 5.592 25.7527 5.7216 25.8103C5.8932 25.8859 6.0684 25.9531 6.2436 26.0191C6.3732 26.0683 6.5016 26.1187 6.6336 26.1619C6.822 26.2231 7.014 26.2723 7.206 26.3215C7.3332 26.3539 7.458 26.3923 7.5876 26.4199C7.8048 26.4667 8.0256 26.4979 8.2476 26.5291C8.358 26.5447 8.466 26.5675 8.5776 26.5795C8.9148 26.6143 9.2544 26.6347 9.6 26.6347H10.8C11.2056 26.6347 11.6028 26.6011 11.9952 26.5519C12.108 26.5375 12.2196 26.5183 12.3312 26.5003C12.6276 26.4523 12.918 26.3911 13.2048 26.3167C13.3044 26.2915 13.404 26.2687 13.5024 26.2399C13.8708 26.1319 14.2308 26.0059 14.58 25.8559C14.634 25.8331 14.6832 25.8043 14.736 25.7803C15.0324 25.6459 15.3204 25.4971 15.6012 25.3339C15.6984 25.2775 15.792 25.2199 15.8868 25.1599C16.1412 25.0003 16.386 24.8299 16.6236 24.6475C16.6896 24.5971 16.7592 24.5503 16.824 24.4975C17.1156 24.2623 17.3928 24.0103 17.6544 23.7427C17.7132 23.6827 17.7672 23.6179 17.8248 23.5555C18.0276 23.3371 18.2196 23.1103 18.402 22.8751C18.4704 22.7863 18.5376 22.6975 18.6024 22.6063C18.7908 22.3435 18.966 22.0723 19.1268 21.7915C19.1496 21.7519 19.1784 21.7159 19.2012 21.6763C19.224 21.7159 19.2528 21.7519 19.2756 21.7915C19.4364 22.0723 19.6128 22.3435 19.8 22.6063C19.8648 22.6975 19.932 22.7863 20.0004 22.8751C20.1828 23.1115 20.3748 23.3383 20.5776 23.5555C20.6352 23.6179 20.688 23.6827 20.748 23.7427C21.0096 24.0103 21.2868 24.2623 21.5784 24.4975C21.6432 24.5503 21.7128 24.5971 21.7788 24.6475C22.0164 24.8299 22.2612 25.0003 22.5156 25.1599C22.6104 25.2187 22.704 25.2775 22.8012 25.3339C23.0808 25.4959 23.3688 25.6459 23.6664 25.7803C23.7192 25.8043 23.7696 25.8331 23.8224 25.8559C24.1704 26.0059 24.5316 26.1319 24.9 26.2399C24.9984 26.2687 25.098 26.2903 25.1976 26.3167C25.4844 26.3911 25.7748 26.4523 26.0712 26.5003C26.1828 26.5183 26.2944 26.5375 26.4072 26.5519C26.7972 26.6011 27.1944 26.6347 27.6 26.6347C28.0056 26.6347 28.4028 26.6011 28.7952 26.5519C28.908 26.5375 29.0196 26.5183 29.1312 26.5003C29.4276 26.4523 29.718 26.3911 30.0048 26.3167C30.1044 26.2915 30.204 26.2687 30.3024 26.2399C30.6708 26.1319 31.0308 26.0059 31.38 25.8559C31.434 25.8331 31.4832 25.8043 31.536 25.7803C31.8324 25.6459 32.1204 25.4971 32.4012 25.3339C32.4984 25.2775 32.592 25.2199 32.6868 25.1599C32.9412 25.0003 33.186 24.8299 33.4236 24.6475C33.4896 24.5971 33.5592 24.5503 33.624 24.4975C33.9156 24.2623 34.1928 24.0103 34.4544 23.7427C34.5132 23.6827 34.5672 23.6179 34.6248 23.5555C34.8276 23.3371 35.0196 23.1103 35.202 22.8751C35.2704 22.7863 35.3376 22.6975 35.4024 22.6063C35.5908 22.3435 35.766 22.0723 35.9268 21.7915C35.9496 21.7519 35.9784 21.7159 36.0012 21.6763C36.024 21.7159 36.0528 21.7519 36.0756 21.7915C36.2364 22.0723 36.4128 22.3435 36.6 22.6063C36.6648 22.6975 36.732 22.7863 36.8004 22.8751C36.9828 23.1115 37.1748 23.3383 37.3776 23.5555C37.4352 23.6179 37.488 23.6827 37.548 23.7427C37.8096 24.0103 38.0868 24.2623 38.3784 24.4975C38.4432 24.5503 38.5128 24.5971 38.5788 24.6475C38.8164 24.8299 39.0612 25.0003 39.3156 25.1599C39.4104 25.2187 39.504 25.2775 39.6012 25.3339C39.8808 25.4959 40.1688 25.6459 40.4664 25.7803C40.5192 25.8043 40.5696 25.8331 40.6224 25.8559C40.9704 26.0059 41.3316 26.1319 41.7 26.2399C41.7984 26.2687 41.898 26.2903 41.9976 26.3167C42.2844 26.3911 42.5748 26.4523 42.8712 26.5003C42.9828 26.5183 43.0944 26.5375 43.2072 26.5519C43.5972 26.6011 43.9944 26.6347 44.4 26.6347C44.8056 26.6347 45.2028 26.6011 45.5952 26.5519C45.708 26.5375 45.8196 26.5183 45.9312 26.5003C46.2276 26.4523 46.518 26.3911 46.8048 26.3167C46.9044 26.2915 47.004 26.2687 47.1024 26.2399C47.4708 26.1319 47.8308 26.0059 48.18 25.8559C48.234 25.8331 48.2832 25.8043 48.336 25.7803C48.6324 25.6459 48.9204 25.4971 49.2012 25.3339C49.2984 25.2775 49.392 25.2199 49.4868 25.1599C49.7412 25.0003 49.986 24.8299 50.2236 24.6475C50.2896 24.5971 50.3592 24.5503 50.424 24.4975C50.7156 24.2623 50.9928 24.0103 51.2544 23.7427C51.3132 23.6827 51.3672 23.6179 51.4248 23.5555C51.6276 23.3371 51.8196 23.1103 52.002 22.8751C52.0704 22.7863 52.1376 22.6975 52.2024 22.6063C52.3908 22.3435 52.566 22.0723 52.7268 21.7915C52.7496 21.7519 52.7784 21.7159 52.8012 21.6763C52.824 21.7159 52.8528 21.7519 52.8756 21.7915C53.0364 22.0723 53.2128 22.3435 53.4 22.6063C53.4648 22.6975 53.532 22.7863 53.6004 22.8751C53.7828 23.1115 53.9748 23.3383 54.1776 23.5555C54.2352 23.6179 54.288 23.6827 54.348 23.7427C54.6096 24.0103 54.8868 24.2623 55.1784 24.4975C55.2432 24.5503 55.3128 24.5971 55.3788 24.6475C55.6164 24.8299 55.8612 25.0003 56.1156 25.1599C56.2104 25.2187 56.304 25.2775 56.4012 25.3339C56.6808 25.4959 56.9688 25.6459 57.2664 25.7803C57.3192 25.8043 57.3696 25.8331 57.4224 25.8559C57.7704 26.0059 58.1316 26.1319 58.5 26.2399C58.5984 26.2687 58.698 26.2903 58.7976 26.3167C59.0844 26.3911 59.3748 26.4523 59.6712 26.5003C59.7828 26.5183 59.8944 26.5375 60.0072 26.5519C60.3972 26.6011 60.7944 26.6347 61.2 26.6347H62.4C62.7456 26.6347 63.0852 26.6143 63.4212 26.5783C63.5328 26.5663 63.6408 26.5435 63.7524 26.5279C63.9744 26.4967 64.1952 26.4643 64.4124 26.4187C64.542 26.3911 64.6668 26.3527 64.794 26.3203C64.986 26.2711 65.1792 26.2219 65.3664 26.1607C65.4984 26.1175 65.6268 26.0659 65.7564 26.0179C65.9328 25.9519 66.108 25.8847 66.2784 25.8091C66.408 25.7515 66.534 25.6879 66.66 25.6243C66.8232 25.5427 66.9852 25.4599 67.1436 25.3687C67.2684 25.2979 67.3896 25.2223 67.5108 25.1455C67.662 25.0495 67.8108 24.9511 67.956 24.8467C68.0736 24.7627 68.1888 24.6763 68.3016 24.5875C68.442 24.4771 68.5776 24.3643 68.712 24.2467C68.82 24.1519 68.9268 24.0571 69.03 23.9575C69.1596 23.8327 69.2832 23.7043 69.4068 23.5723C69.4704 23.5075 69.54 23.4463 69.6 23.3779ZM62.4 24.2347H61.2C57.2292 24.2347 54 21.0055 54 17.0347V15.8347H54.2376H69.6V17.0347C69.6 21.0055 66.3708 24.2347 62.4 24.2347Z" fill="black"/>
<path d="M4.80078 63.8347H44.4008V30.2347H4.80078V63.8347ZM7.20078 32.6347H42.0008V61.4347H7.20078V32.6347Z" fill="black"/>
<path d="M18.0011 45.8347C18.3083 45.8347 18.6155 45.7171 18.8495 45.4831L23.6495 40.6831C24.1187 40.2139 24.1187 39.4555 23.6495 38.9863C23.1803 38.5171 22.4219 38.5171 21.9527 38.9863L17.1527 43.7863C16.6835 44.2555 16.6835 45.0139 17.1527 45.4831C17.3867 45.7171 17.6939 45.8347 18.0011 45.8347Z" fill="black"/>
<path d="M18.0011 51.8347C18.3083 51.8347 18.6155 51.7171 18.8495 51.4831L21.2495 49.0831C21.7187 48.6139 21.7187 47.8555 21.2495 47.3863C20.7803 46.9171 20.0219 46.9171 19.5527 47.3863L17.1527 49.7863C16.6835 50.2555 16.6835 51.0139 17.1527 51.4831C17.3867 51.7171 17.6939 51.8347 18.0011 51.8347Z" fill="black"/>
<path d="M21.9496 44.9828C21.7324 45.2096 21.6016 45.5228 21.6016 45.8348C21.6016 46.1468 21.7324 46.4588 21.9496 46.6868C22.1764 46.9028 22.4896 47.0348 22.8016 47.0348C23.1136 47.0348 23.4256 46.9028 23.6536 46.6868C23.8696 46.4588 24.0016 46.1468 24.0016 45.8348C24.0016 45.5228 23.8696 45.2096 23.6536 44.9828C23.2096 44.5388 22.3936 44.5388 21.9496 44.9828Z" fill="black"/>
<path d="M24.3519 44.2831C24.5859 44.5171 24.8931 44.6347 25.2003 44.6347C25.5075 44.6347 25.8147 44.5171 26.0487 44.2831L29.6487 40.6831C30.1179 40.2139 30.1179 39.4555 29.6487 38.9863C29.1795 38.5171 28.4211 38.5171 27.9519 38.9863L24.3519 42.5863C23.8827 43.0555 23.8827 43.8139 24.3519 44.2831Z" fill="black"/>
<path d="M27.9527 44.9863L17.1527 55.7863C16.6835 56.2555 16.6835 57.0139 17.1527 57.4831C17.3867 57.7171 17.6939 57.8347 18.0011 57.8347C18.3083 57.8347 18.6155 57.7171 18.8495 57.4831L29.6495 46.6831C30.1187 46.2139 30.1187 45.4555 29.6495 44.9863C29.1803 44.5171 28.4219 44.5171 27.9527 44.9863Z" fill="black"/>
<path d="M30.348 42.5828C30.1308 42.8096 30 43.1096 30 43.4348C30 43.7588 30.1308 44.0588 30.348 44.2868C30.5748 44.5028 30.8748 44.6348 31.2 44.6348C31.524 44.6348 31.824 44.5028 32.04 44.2868C32.268 44.0588 32.4 43.7468 32.4 43.4348C32.4 43.1096 32.268 42.8096 32.052 42.5828C31.608 42.1388 30.792 42.1388 30.348 42.5828Z" fill="black"/>
<path d="M9.59922 65.0348H8.39922C7.73562 65.0348 7.19922 65.5712 7.19922 66.2348C7.19922 66.8984 7.73562 67.4348 8.39922 67.4348H9.59922C10.2628 67.4348 10.7992 66.8984 10.7992 66.2348C10.7992 65.5712 10.2628 65.0348 9.59922 65.0348Z" fill="black"/>
<path d="M3.59844 67.4348H4.79844C5.46204 67.4348 5.99844 66.8984 5.99844 66.2348C5.99844 65.5712 5.46204 65.0348 4.79844 65.0348H3.59844C2.93484 65.0348 2.39844 65.5712 2.39844 66.2348C2.39844 66.8984 2.93484 67.4348 3.59844 67.4348Z" fill="black"/>
<path d="M19.2008 65.0348H18.0008C17.3372 65.0348 16.8008 65.5712 16.8008 66.2348C16.8008 66.8984 17.3372 67.4348 18.0008 67.4348H19.2008C19.8644 67.4348 20.4008 66.8984 20.4008 66.2348C20.4008 65.5712 19.8644 65.0348 19.2008 65.0348Z" fill="black"/>
<path d="M14.4 65.0348H13.2C12.5364 65.0348 12 65.5712 12 66.2348C12 66.8984 12.5364 67.4348 13.2 67.4348H14.4C15.0636 67.4348 15.6 66.8984 15.6 66.2348C15.6 65.5712 15.0636 65.0348 14.4 65.0348Z" fill="black"/>
<path d="M28.7984 65.0348H27.5984C26.9348 65.0348 26.3984 65.5712 26.3984 66.2348C26.3984 66.8984 26.9348 67.4348 27.5984 67.4348H28.7984C29.462 67.4348 29.9984 66.8984 29.9984 66.2348C29.9984 65.5712 29.462 65.0348 28.7984 65.0348Z" fill="black"/>
<path d="M24.0016 65.0348H22.8016C22.138 65.0348 21.6016 65.5712 21.6016 66.2348C21.6016 66.8984 22.138 67.4348 22.8016 67.4348H24.0016C24.6652 67.4348 25.2016 66.8984 25.2016 66.2348C25.2016 65.5712 24.6652 65.0348 24.0016 65.0348Z" fill="black"/>
<path d="M38.4 65.0348H37.2C36.5364 65.0348 36 65.5712 36 66.2348C36 66.8984 36.5364 67.4348 37.2 67.4348H38.4C39.0636 67.4348 39.6 66.8984 39.6 66.2348C39.6 65.5712 39.0636 65.0348 38.4 65.0348Z" fill="black"/>
<path d="M33.5992 65.0348H32.3992C31.7356 65.0348 31.1992 65.5712 31.1992 66.2348C31.1992 66.8984 31.7356 67.4348 32.3992 67.4348H33.5992C34.2628 67.4348 34.7992 66.8984 34.7992 66.2348C34.7992 65.5712 34.2628 65.0348 33.5992 65.0348Z" fill="black"/>
<path d="M43.2008 65.0348H42.0008C41.3372 65.0348 40.8008 65.5712 40.8008 66.2348C40.8008 66.8984 41.3372 67.4348 42.0008 67.4348H43.2008C43.8644 67.4348 44.4008 66.8984 44.4008 66.2348C44.4008 65.5712 43.8644 65.0348 43.2008 65.0348Z" fill="black"/>
</svg>
