<svg width="57" height="45" viewBox="0 0 57 45" fill="none" xmlns="http://www.w3.org/2000/svg">
<path d="M40.5735 16.6002H38.5609C38.0398 16.6002 37.6172 17.0227 37.6172 17.5439C37.6172 18.065 38.0396 18.4876 38.5609 18.4876H40.5735C41.0946 18.4876 41.5172 18.0651 41.5172 17.5439C41.5171 17.0227 41.0946 16.6002 40.5735 16.6002Z" fill="#FF9927"/>
<path d="M40.8245 24.396C40.4524 23.9194 39.892 23.646 39.2874 23.646H17.7089C17.1042 23.646 16.544 23.9194 16.1717 24.396C15.7996 24.8727 15.6702 25.4825 15.8169 26.0691L16.3202 28.0824C16.5377 28.952 17.3158 29.5594 18.2122 29.5594H38.7842C39.6806 29.5594 40.4585 28.952 40.6761 28.0823L41.1794 26.0691C41.3261 25.4824 41.1967 24.8726 40.8245 24.396ZM39.3484 25.6115L38.8451 27.6245C38.8381 27.6528 38.8131 27.6722 38.7842 27.6722H18.2122C18.1833 27.6722 18.158 27.6525 18.1511 27.6246L17.6478 25.6115C17.6455 25.6026 17.6404 25.5818 17.6592 25.5576C17.6781 25.5334 17.6997 25.5334 17.7088 25.5334H39.2874C39.2966 25.5334 39.318 25.5334 39.3369 25.5576C39.3558 25.5818 39.3507 25.6025 39.3484 25.6115Z" fill="#FF9927"/>
<path d="M53.6622 18.4872C55.2925 18.4872 56.6189 17.1609 56.6189 15.5306C56.6189 13.9003 55.2925 12.5739 53.6622 12.5739H52.6557C51.1857 12.5739 49.9631 13.6526 49.7369 15.0598L47.2196 8.1371C46.6522 6.57655 45.1554 5.52821 43.495 5.52821H36.3181L35.7869 2.87251C35.5117 1.49518 34.2922 0.495605 32.8877 0.495605H24.1099C22.7054 0.495605 21.4861 1.49518 21.2107 2.87251L20.6796 5.52821H13.5027C11.8423 5.52821 10.3455 6.57666 9.77812 8.13699L7.26094 15.0597C7.03478 13.6526 5.81222 12.5739 4.34218 12.5739H3.33568C1.70527 12.5739 0.378906 13.9003 0.378906 15.5306C0.378906 17.1609 1.70527 18.4872 3.33557 18.4872H4.34207C4.80682 18.4872 5.24663 18.3792 5.63833 18.1873L3.481 20.884C2.77866 21.7619 2.3919 22.8644 2.3919 23.9885V42.7069C2.3919 43.7823 3.2667 44.6571 4.34207 44.6571H7.36167C8.43704 44.6571 9.31184 43.7823 9.31184 42.7069V38.6179H47.6859V42.7069C47.6859 43.7823 48.5606 44.6571 49.636 44.6571H52.6556C53.731 44.6571 54.6058 43.7823 54.6058 42.7069V23.9885C54.6058 22.8644 54.219 21.7618 53.5167 20.884L51.3594 18.1873C51.7511 18.3792 52.1909 18.4872 52.6556 18.4872H53.6622ZM4.34218 16.6H3.33568C2.74593 16.6 2.26624 16.1203 2.26624 15.5306C2.26624 14.9408 2.74593 14.4611 3.33568 14.4611H4.34218C4.93193 14.4611 5.41162 14.9408 5.41162 15.5306C5.41162 16.1202 4.93182 16.6 4.34218 16.6ZM23.0613 3.24247C23.1609 2.74433 23.602 2.38272 24.1099 2.38272H32.8877C33.3957 2.38272 33.8368 2.74433 33.9363 3.24247L34.3934 5.52821H22.6041L23.0613 3.24247ZM7.42461 42.7069C7.42461 42.7416 7.39638 42.7698 7.36167 42.7698H4.34207C4.30736 42.7698 4.27913 42.7416 4.27913 42.7069V38.0289C4.88327 38.4019 5.5944 38.6179 6.35506 38.6179H7.4245V42.7069H7.42461ZM39.6336 36.7306H17.3642V34.6547C17.3642 34.62 17.3924 34.5918 17.4271 34.5918H39.5708C39.6055 34.5918 39.6338 34.62 39.6338 34.6547V36.7306H39.6336ZM52.7186 42.7069C52.7186 42.7416 52.6903 42.7698 52.6556 42.7698H49.636C49.6013 42.7698 49.5731 42.7416 49.5731 42.7069V38.6179H50.6425C51.4032 38.6179 52.1143 38.4019 52.7185 38.0289V42.7069H52.7186ZM52.0432 22.063C52.4787 22.6075 52.7187 23.2914 52.7187 23.9887V34.6547C52.7187 35.7994 51.7874 36.7306 50.6427 36.7306H41.5209V34.6547C41.5209 33.5793 40.6461 32.7045 39.5707 32.7045H17.4271C16.3517 32.7045 15.4769 33.5793 15.4769 34.6547V36.7306H6.35517C5.21049 36.7306 4.27924 35.7994 4.27924 34.6547V23.9887C4.27924 23.2914 4.51914 22.6075 4.95478 22.063L7.81522 18.4872H34.5381C35.0592 18.4872 35.4818 18.0648 35.4818 17.5436C35.4818 17.0225 35.0593 16.5999 34.5381 16.5999H8.70901L11.552 8.78178C11.8491 7.96443 12.6332 7.41532 13.5029 7.41532H43.4951C44.3648 7.41532 45.1488 7.96454 45.446 8.78178L48.289 16.5999H44.6036C44.0825 16.5999 43.66 17.0224 43.66 17.5436C43.66 18.0647 44.0824 18.4872 44.6036 18.4872H49.1828L52.0432 22.063ZM51.5862 15.5306C51.5862 14.9408 52.0659 14.4611 52.6556 14.4611H53.6621C54.2519 14.4611 54.7316 14.9408 54.7316 15.5306C54.7316 16.1203 54.2519 16.6 53.6621 16.6H52.6556C52.066 16.6 51.5862 16.1202 51.5862 15.5306Z" fill="#FF9927"/>
<path d="M10.3799 30.6914C9.30448 30.6914 8.42969 31.5662 8.42969 32.6416C8.42969 33.7169 9.30448 34.5917 10.3799 34.5917C11.4552 34.5917 12.33 33.7169 12.33 32.6416C12.33 31.5662 11.4552 30.6914 10.3799 30.6914Z" fill="#FF9927"/>
<path d="M46.6181 30.6914C45.5428 30.6914 44.668 31.5662 44.668 32.6416C44.668 33.7169 45.5428 34.5917 46.6181 34.5917C47.6935 34.5917 48.5683 33.7169 48.5683 32.6416C48.5683 31.5662 47.6934 30.6914 46.6181 30.6914Z" fill="#FF9927"/>
<path d="M9.87403 22.6394C7.96615 22.6394 6.41406 24.1915 6.41406 26.0994C6.41406 28.0072 7.96615 29.5593 9.87403 29.5593C11.7819 29.5593 13.334 28.0072 13.334 26.0994C13.334 24.1915 11.7819 22.6394 9.87403 22.6394ZM9.87403 27.672C9.00681 27.672 8.30129 26.9666 8.30129 26.0993C8.30129 25.2319 9.0067 24.5265 9.87403 24.5265C10.7414 24.5265 11.4468 25.2319 11.4468 26.0993C11.4468 26.9666 10.7412 27.672 9.87403 27.672Z" fill="#FF9927"/>
<path d="M47.1201 22.6393C45.2122 22.6393 43.6602 24.1914 43.6602 26.0993C43.6602 28.0071 45.2122 29.5592 47.1201 29.5592C49.028 29.5592 50.5801 28.0071 50.5801 26.0993C50.5801 24.1914 49.028 22.6393 47.1201 22.6393ZM47.1201 27.6719C46.2529 27.6719 45.5474 26.9665 45.5474 26.0991C45.5474 25.2318 46.2528 24.5264 47.1201 24.5264C47.9873 24.5264 48.6929 25.2318 48.6929 26.0991C48.6929 26.9665 47.9874 27.6719 47.1201 27.6719Z" fill="#FF9927"/>
<path d="M53.6622 18.4872C55.2925 18.4872 56.6189 17.1609 56.6189 15.5306C56.6189 13.9003 55.2925 12.5739 53.6622 12.5739H52.6557C51.1857 12.5739 49.9631 13.6526 49.7369 15.0598L47.2196 8.1371C46.6522 6.57655 45.1554 5.52821 43.495 5.52821H36.3181L35.7869 2.87251C35.5117 1.49518 34.2922 0.495605 32.8877 0.495605H24.1099C22.7054 0.495605 21.4861 1.49518 21.2107 2.87251L20.6796 5.52821H13.5027C11.8423 5.52821 10.3455 6.57666 9.77812 8.13699L7.26094 15.0597C7.03478 13.6526 5.81222 12.5739 4.34218 12.5739H3.33568C1.70527 12.5739 0.378906 13.9003 0.378906 15.5306C0.378906 17.1609 1.70527 18.4872 3.33557 18.4872H4.34207C4.80682 18.4872 5.24663 18.3792 5.63833 18.1873L3.481 20.884C2.77866 21.7619 2.3919 22.8644 2.3919 23.9885V42.7069C2.3919 43.7823 3.2667 44.6571 4.34207 44.6571H7.36167C8.43704 44.6571 9.31184 43.7823 9.31184 42.7069V38.6179H47.6859V42.7069C47.6859 43.7823 48.5606 44.6571 49.636 44.6571H52.6556C53.731 44.6571 54.6058 43.7823 54.6058 42.7069V23.9885C54.6058 22.8644 54.219 21.7618 53.5167 20.884L51.3594 18.1873C51.7511 18.3792 52.1909 18.4872 52.6556 18.4872H53.6622ZM4.34218 16.6H3.33568C2.74593 16.6 2.26624 16.1203 2.26624 15.5306C2.26624 14.9408 2.74593 14.4611 3.33568 14.4611H4.34218C4.93193 14.4611 5.41162 14.9408 5.41162 15.5306C5.41162 16.1202 4.93182 16.6 4.34218 16.6ZM23.0613 3.24247C23.1609 2.74433 23.602 2.38272 24.1099 2.38272H32.8877C33.3957 2.38272 33.8368 2.74433 33.9363 3.24247L34.3934 5.52821H22.6041L23.0613 3.24247ZM7.42461 42.7069C7.42461 42.7416 7.39638 42.7698 7.36167 42.7698H4.34207C4.30736 42.7698 4.27913 42.7416 4.27913 42.7069V38.0289C4.88327 38.4019 5.5944 38.6179 6.35506 38.6179H7.4245V42.7069H7.42461ZM39.6336 36.7306H17.3642V34.6547C17.3642 34.62 17.3924 34.5918 17.4271 34.5918H39.5708C39.6055 34.5918 39.6338 34.62 39.6338 34.6547V36.7306H39.6336ZM52.7186 42.7069C52.7186 42.7416 52.6903 42.7698 52.6556 42.7698H49.636C49.6013 42.7698 49.5731 42.7416 49.5731 42.7069V38.6179H50.6425C51.4032 38.6179 52.1143 38.4019 52.7185 38.0289V42.7069H52.7186ZM52.0432 22.063C52.4787 22.6075 52.7187 23.2914 52.7187 23.9887V34.6547C52.7187 35.7994 51.7874 36.7306 50.6427 36.7306H41.5209V34.6547C41.5209 33.5793 40.6461 32.7045 39.5707 32.7045H17.4271C16.3517 32.7045 15.4769 33.5793 15.4769 34.6547V36.7306H6.35517C5.21049 36.7306 4.27924 35.7994 4.27924 34.6547V23.9887C4.27924 23.2914 4.51914 22.6075 4.95478 22.063L7.81522 18.4872H34.5381C35.0592 18.4872 35.4818 18.0648 35.4818 17.5436C35.4818 17.0225 35.0593 16.5999 34.5381 16.5999H8.70901L11.552 8.78178C11.8491 7.96443 12.6332 7.41532 13.5029 7.41532H43.4951C44.3648 7.41532 45.1488 7.96454 45.446 8.78178L48.289 16.5999H44.6036C44.0825 16.5999 43.66 17.0224 43.66 17.5436C43.66 18.0647 44.0824 18.4872 44.6036 18.4872H49.1828L52.0432 22.063ZM51.5862 15.5306C51.5862 14.9408 52.0659 14.4611 52.6556 14.4611H53.6621C54.2519 14.4611 54.7316 14.9408 54.7316 15.5306C54.7316 16.1203 54.2519 16.6 53.6621 16.6H52.6556C52.066 16.6 51.5862 16.1202 51.5862 15.5306Z" fill="#FF9927"/>
</svg>
