<svg width="43" height="51" viewBox="0 0 43 51" fill="none" xmlns="http://www.w3.org/2000/svg">
<path d="M28.5648 6.92056C28.0667 3.42954 25.028 0.796631 21.4969 0.796631C19.226 0.796631 17.0693 1.89247 15.7283 3.72903C15.4544 4.10358 15.5364 4.62898 15.9109 4.90288C16.2842 5.17579 16.8109 5.09482 17.0843 4.71978C18.1107 3.31535 19.76 2.47668 21.4967 2.47668C24.1972 2.47668 26.5206 4.4892 26.9015 7.15754C26.9616 7.57663 27.3211 7.87908 27.7323 7.87908C27.7714 7.87908 27.8118 7.87613 27.8519 7.87071C28.3111 7.80501 28.6303 7.37952 28.5648 6.92056Z" fill="#FF9927"/>
<path d="M40.7032 16.3235L38.1832 12.1235C38.0317 11.8702 37.7583 11.7157 37.4629 11.7157H35.0481C34.5844 11.7157 34.2082 12.092 34.2082 12.5556C34.2082 13.0192 34.5844 13.3955 35.0481 13.3955H36.9875L38.4995 15.9155H4.50692L6.0189 13.3955H6.90851C7.37214 13.3955 7.74841 13.0192 7.74841 12.5556C7.74841 12.092 7.37214 11.7157 6.90851 11.7157H5.54345C5.24814 11.7157 4.97474 11.8702 4.82315 12.1235L2.30319 16.3235C2.14742 16.5833 2.14373 16.9065 2.29261 17.1698C2.4415 17.4331 2.72056 17.596 3.0235 17.596H39.9829C40.2858 17.596 40.5647 17.4331 40.7138 17.1698C40.8629 16.9065 40.859 16.5828 40.7032 16.3235Z" fill="#FF9927"/>
<path d="M36.5167 8.57866C36.3991 8.38893 36.2113 8.25432 35.9943 8.20362L24.5435 5.52543C24.3267 5.47449 24.0983 5.51239 23.9088 5.62953C23.7198 5.74716 23.585 5.93493 23.5343 6.15198L22.6708 9.84332C22.5649 10.2949 22.8455 10.7467 23.2973 10.852C23.7489 10.9579 24.2012 10.6773 24.3065 10.2255L24.9788 7.3524L34.7936 9.64817L33.2514 16.2421C33.1455 16.6937 33.4261 17.1455 33.8779 17.2508C33.9426 17.2659 34.0069 17.273 34.0704 17.273C34.4518 17.273 34.7971 17.0117 34.8869 16.6246L36.6206 9.21284C36.6718 8.99603 36.6344 8.76766 36.5167 8.57866Z" fill="#FF9927"/>
<path d="M21.9457 10.564L21.1804 4.09058C21.1543 3.86935 21.0414 3.66731 20.8661 3.5295C20.6909 3.39169 20.4697 3.32869 20.2475 3.35477L6.19822 5.01538C5.73779 5.07001 5.40852 5.48738 5.46291 5.94831L6.73888 16.745C6.78957 17.1724 7.15206 17.4867 7.57214 17.4867C7.60487 17.4867 7.63858 17.4845 7.67205 17.4808C8.13224 17.4262 8.46151 17.0088 8.40737 16.5479L7.22983 6.58469L19.6108 5.12145L20.2772 10.7606C20.3319 11.2213 20.7473 11.5486 21.2102 11.4964C21.6706 11.4422 21.9999 11.0246 21.9457 10.564Z" fill="#FF9927"/>
<path d="M28.5864 16.4371L26.9191 9.50376C26.867 9.28745 26.7309 9.10018 26.5411 8.98378C26.3514 8.86836 26.1238 8.83218 25.906 8.88386L12.3743 12.1381C11.9232 12.2464 11.6456 12.7002 11.7539 13.1513L12.5871 16.6167C12.6954 17.0683 13.1492 17.3461 13.6 17.2371C14.0511 17.1288 14.3287 16.675 14.2204 16.224L13.5833 13.5751L25.4817 10.714L26.9526 16.8303C27.0449 17.2155 27.3894 17.4739 27.7686 17.4739C27.8338 17.4739 27.8998 17.4662 27.966 17.4502C28.4171 17.3417 28.6947 16.8882 28.5864 16.4371Z" fill="#FF9927"/>
<path d="M40.8189 16.7138C40.7958 16.2674 40.4271 15.917 39.9797 15.917H3.02032C2.57293 15.917 2.20429 16.2672 2.18116 16.7138L0.501106 49.4732C0.489294 49.7031 0.572473 49.928 0.730954 50.0948C0.889682 50.2614 1.10968 50.3562 1.34002 50.3562H41.6593C41.8894 50.3562 42.1096 50.2617 42.2691 50.0948C42.4273 49.928 42.5105 49.7033 42.4989 49.4732L40.8189 16.7138ZM2.22398 48.6761L3.8179 17.5968H39.1812L40.7751 48.6761H2.22398Z" fill="#FF9927"/>
<path d="M27.7973 19.2766C26.4076 19.2766 25.2773 20.4069 25.2773 21.7966C25.2773 23.1862 26.4076 24.3165 27.7973 24.3165C29.187 24.3165 30.3173 23.1862 30.3173 21.7966C30.3173 20.4069 29.187 19.2766 27.7973 19.2766ZM27.7973 22.6367C27.3339 22.6367 26.9574 22.2599 26.9574 21.7968C26.9574 21.3337 27.3342 20.9569 27.7973 20.9569C28.2604 20.9569 28.6372 21.3337 28.6372 21.7968C28.6372 22.2599 28.2604 22.6367 27.7973 22.6367Z" fill="#FF9927"/>
<path d="M15.2035 19.2766C13.8139 19.2766 12.6836 20.4069 12.6836 21.7966C12.6836 23.1862 13.8139 24.3165 15.2035 24.3165C16.5932 24.3165 17.7235 23.1862 17.7235 21.7966C17.7235 20.4069 16.5932 19.2766 15.2035 19.2766ZM15.2035 22.6367C14.7404 22.6367 14.3636 22.2599 14.3636 21.7968C14.3636 21.3337 14.7404 20.9569 15.2035 20.9569C15.6667 20.9569 16.0434 21.3337 16.0434 21.7968C16.0434 22.2599 15.6667 22.6367 15.2035 22.6367Z" fill="#FF9927"/>
<path d="M27.799 21.7963H27.7343C27.2707 21.7963 26.8944 22.1725 26.8944 22.6362C26.8944 22.7508 26.917 22.8604 26.9591 22.96V27.256C26.9591 30.2664 24.5098 32.716 21.4992 32.716C18.4885 32.716 16.0392 30.2667 16.0392 27.256V22.6364C16.0392 22.1728 15.6629 21.7965 15.1993 21.7965C14.7356 21.7965 14.3594 22.1728 14.3594 22.6364V27.2562C14.3594 31.1932 17.5622 34.396 21.4992 34.396C25.4361 34.396 28.6389 31.1932 28.6389 27.2562V22.6364C28.6389 22.1728 28.2627 21.7963 27.799 21.7963Z" fill="#FF9927"/>
</svg>
