<svg width="49" height="49" viewBox="0 0 49 49" fill="none" xmlns="http://www.w3.org/2000/svg">
<path d="M33.1324 30.6094C32.9843 30.1985 32.5311 29.9856 32.1202 30.1336C31.7092 30.2817 31.4961 30.7347 31.6442 31.1455C31.6479 31.1556 31.6517 31.1655 31.6558 31.1755C32.3771 33.0573 32.4293 34.4963 31.7982 35.1289C31.0325 35.8927 29.1256 35.6539 26.6958 34.4916C23.4429 32.8031 20.486 30.5973 17.9409 27.9606C11.7454 21.7665 9.1891 15.6886 10.7702 14.1081C11.2747 13.7098 11.9305 13.5568 12.5593 13.6906C12.9949 13.7226 13.3741 13.3955 13.4061 12.96C13.437 12.5391 13.1318 12.1681 12.7127 12.1172C11.613 11.9227 10.4848 12.2432 9.6518 12.9869C6.75379 15.8831 11.1839 23.438 16.8225 29.0755C19.494 31.8391 22.5982 34.1489 26.0132 35.914C26.6316 36.21 27.2689 36.4649 27.921 36.677L22.3013 38.8071C14.7973 35.9551 9.39524 29.3048 8.14348 21.3775C8.07575 20.9461 7.67099 20.6512 7.23943 20.7189C6.80787 20.7866 6.51285 21.1912 6.58057 21.6226C6.70475 22.4133 6.87085 23.204 7.07412 23.9772C8.89546 30.8758 13.6926 36.6067 20.1642 39.6152L10.9149 43.1139C10.8725 43.0431 10.8191 42.9797 10.7567 42.9257C8.40607 41.0391 6.93116 38.2722 6.67549 35.2696L6.30849 30.8268C6.27962 30.3964 5.90709 30.0709 5.47642 30.0997C5.46821 30.1003 5.46001 30.1009 5.4519 30.1018C5.01649 30.1364 4.69151 30.5174 4.72611 30.9527C4.72621 30.9544 4.72641 30.9563 4.72661 30.9581L5.09993 35.3993C5.37795 38.6087 6.8756 41.5896 9.2848 43.729L2.68677 46.226L3.87318 41.3586C3.97669 40.9341 3.71648 40.5061 3.29184 40.4027C2.8672 40.2992 2.4391 40.5593 2.33559 40.9838L0.792462 47.3092C0.688453 47.7333 0.94808 48.1614 1.37242 48.2653C1.52804 48.3035 1.69147 48.2934 1.84125 48.2366L31.1061 37.1672C31.1527 37.1445 31.1967 37.1169 31.2374 37.085C31.8707 36.9878 32.4579 36.695 32.9166 36.2477C33.7003 35.4641 34.375 33.8488 33.1324 30.6094Z" fill="#FF9927"/>
<path d="M40.5965 28.5703C36.3208 26.9701 31.6994 26.5215 27.1956 27.2696L24.3695 27.744C23.9406 27.8264 23.6597 28.2408 23.7421 28.6697C23.8218 29.084 24.2128 29.3628 24.6306 29.3032L27.4558 28.8328C31.6856 28.1298 36.026 28.5514 40.0413 30.0551C40.1303 30.0867 40.2244 30.1025 40.3189 30.1018C40.7557 30.1025 41.1104 29.7492 41.1111 29.3124C41.1117 28.9818 40.9065 28.6858 40.5965 28.5703Z" fill="#FF9927"/>
<path d="M43.4083 16.3204C43.2205 15.926 42.7485 15.7586 42.354 15.9464L25.7442 23.8531C25.3498 24.0408 25.1822 24.5125 25.37 24.9069L25.3701 24.9071C25.5578 25.3013 26.0297 25.4688 26.4242 25.2812L26.4244 25.2811L43.0342 17.3743C43.4287 17.1866 43.5962 16.7147 43.4083 16.3204Z" fill="#FF9927"/>
<path d="M19.979 6.21322C19.892 5.78526 19.4745 5.50883 19.0464 5.5958C18.6183 5.68277 18.3418 6.10015 18.4288 6.5281C18.4307 6.53759 18.4328 6.54698 18.4351 6.55637C19.4362 11.0275 19.0237 15.6992 17.2542 19.9258L16.1042 22.6845C15.938 23.0865 16.1277 23.5471 16.5289 23.7155C16.625 23.756 16.7284 23.7766 16.8327 23.7764C17.1519 23.7764 17.4398 23.5847 17.5627 23.2901L18.7135 20.5347C20.6093 16.0072 21.0515 11.0028 19.979 6.21322Z" fill="#FF9927"/>
<path d="M44.2736 29.3111C42.9631 29.3111 41.9008 30.3731 41.9008 31.6831C41.9008 32.9932 42.9631 34.0551 44.2736 34.0551C45.5841 34.0551 46.6464 32.9932 46.6464 31.6831C46.6464 30.3731 45.5841 29.3111 44.2736 29.3111ZM44.2736 32.4738C43.8368 32.4738 43.4827 32.1198 43.4827 31.6831C43.4827 31.2465 43.8368 30.8925 44.2736 30.8925C44.7104 30.8925 45.0645 31.2465 45.0645 31.6831C45.0645 32.1198 44.7104 32.4738 44.2736 32.4738Z" fill="#FF9927"/>
<path d="M25.291 7.1723C23.9805 7.1723 22.9182 8.23427 22.9182 9.54432C22.9182 10.8544 23.9805 11.9163 25.291 11.9163C26.6015 11.9163 27.6638 10.8544 27.6638 9.54432C27.6638 8.23427 26.6015 7.1723 25.291 7.1723ZM25.291 10.335C24.8542 10.335 24.5001 9.98097 24.5001 9.54432C24.5001 9.10767 24.8542 8.75364 25.291 8.75364C25.7278 8.75364 26.0819 9.10767 26.0819 9.54432C26.0819 9.98097 25.7278 10.335 25.291 10.335Z" fill="#FF9927"/>
<path d="M18.1725 4.00961C19.0462 4.00961 19.7544 3.30162 19.7544 2.42827C19.7544 1.55492 19.0462 0.846924 18.1725 0.846924C17.2989 0.846924 16.5906 1.55492 16.5906 2.42827C16.5906 3.30162 17.2989 4.00961 18.1725 4.00961Z" fill="#FF9927"/>
<path d="M40.3189 4.80028C39.8821 4.80028 39.5279 5.15431 39.5279 5.59096V6.38163C39.5279 6.81828 39.8821 7.1723 40.3189 7.1723C40.7557 7.1723 41.1098 6.81828 41.1098 6.38163V5.59096C41.1098 5.15431 40.7557 4.80028 40.3189 4.80028Z" fill="#FF9927"/>
<path d="M40.3189 0.846924C39.8821 0.846924 39.5279 1.20095 39.5279 1.6376V2.42827C39.5279 2.86492 39.8821 3.21894 40.3189 3.21894C40.7557 3.21894 41.1098 2.86492 41.1098 2.42827V1.6376C41.1098 1.20095 40.7557 0.846924 40.3189 0.846924Z" fill="#FF9927"/>
<path d="M42.6917 3.21894H41.9008C41.464 3.21894 41.1098 3.57296 41.1098 4.00961C41.1098 4.44626 41.464 4.80028 41.9008 4.80028H42.6917C43.1285 4.80028 43.4827 4.44626 43.4827 4.00961C43.4827 3.57296 43.1285 3.21894 42.6917 3.21894Z" fill="#FF9927"/>
<path d="M38.737 3.21894H37.9461C37.5093 3.21894 37.1551 3.57296 37.1551 4.00961C37.1551 4.44626 37.5093 4.80028 37.9461 4.80028H38.737C39.1738 4.80028 39.5279 4.44626 39.5279 4.00961C39.5279 3.57296 39.1738 3.21894 38.737 3.21894Z" fill="#FF9927"/>
<path d="M34.7823 9.52771H30.811C30.3742 9.52771 30.02 9.88174 30.02 10.3184V14.2883C30.02 14.725 30.3742 15.079 30.811 15.079H34.7823C35.2191 15.079 35.5732 14.725 35.5732 14.2883V10.3184C35.5732 9.88174 35.2191 9.52771 34.7823 9.52771ZM33.9914 13.4977H31.6019V11.1091H33.9914V13.4977Z" fill="#FF9927"/>
<path d="M29.0204 16.1302C28.73 15.8204 28.2467 15.7951 27.9256 16.0729L20.0162 23.1889C19.6917 23.4811 19.6655 23.9809 19.9577 24.3054C20.2499 24.6297 20.7499 24.6559 21.0745 24.3639L28.9839 17.2478C29.3027 16.9493 29.3191 16.449 29.0204 16.1302Z" fill="#FF9927"/>
<path d="M43.4827 19.0324C43.0459 19.0324 42.6917 19.3864 42.6917 19.8231V20.6137C42.6917 21.0504 43.0459 21.4044 43.4827 21.4044C43.9195 21.4044 44.2736 21.0504 44.2736 20.6137V19.8231C44.2736 19.3864 43.9195 19.0324 43.4827 19.0324Z" fill="#FF9927"/>
<path d="M46.8386 18.8964L46.2794 18.3374C45.9652 18.034 45.4646 18.0427 45.161 18.3568C44.865 18.6631 44.865 19.1489 45.161 19.4554L45.7202 20.0144C46.0344 20.3178 46.5351 20.3091 46.8386 19.995C47.1347 19.6885 47.1347 19.2028 46.8386 18.8964Z" fill="#FF9927"/>
<path d="M47.4374 15.8697H46.6464C46.2096 15.8697 45.8555 16.2237 45.8555 16.6604C45.8555 17.097 46.2096 17.451 46.6464 17.451H47.4374C47.8742 17.451 48.2283 17.097 48.2283 16.6604C48.2283 16.2237 47.8742 15.8697 47.4374 15.8697Z" fill="#FF9927"/>
<path d="M46.8192 13.3063C46.5128 13.0104 46.0268 13.0104 45.7202 13.3063L45.161 13.8653C44.8522 14.1742 44.8523 14.6748 45.1612 14.9835C45.3095 15.1317 45.5106 15.215 45.7202 15.215C45.93 15.215 46.1311 15.1316 46.2794 14.9833L46.8386 14.4243C47.1421 14.1103 47.1334 13.6097 46.8192 13.3063Z" fill="#FF9927"/>
<path d="M43.4827 11.9163C43.0459 11.9163 42.6917 12.2704 42.6917 12.707V13.4977C42.6917 13.9343 43.0459 14.2883 43.4827 14.2883C43.9195 14.2883 44.2736 13.9343 44.2736 13.4977V12.707C44.2736 12.2704 43.9195 11.9163 43.4827 11.9163Z" fill="#FF9927"/>
<path d="M41.8043 13.8653L41.2451 13.3063C40.9309 13.003 40.4302 13.0116 40.1267 13.3257C39.8307 13.6321 39.8307 14.1179 40.1267 14.4243L40.6859 14.9833C41.0001 15.2868 41.5008 15.2781 41.8043 14.964C42.1004 14.6575 42.1004 14.1717 41.8043 13.8653Z" fill="#FF9927"/>
<path d="M10.2243 4.26579C10.1312 3.97976 9.88375 3.77142 9.58605 3.72813L7.26464 3.39052L6.2293 1.28812C5.99854 0.89644 5.49382 0.76588 5.10201 0.996559C4.98159 1.06742 4.88124 1.16774 4.81035 1.28812L3.77026 3.39052L1.44884 3.72813C1.0165 3.7905 0.71663 4.19147 0.779016 4.62367C0.803832 4.79574 0.884706 4.95476 1.00908 5.07623L2.68825 6.71292L2.29278 9.02405C2.21685 9.45408 2.50396 9.86424 2.93413 9.94015C3.10735 9.97069 3.28571 9.94272 3.44123 9.86059L5.51745 8.76629L7.59367 9.85742C7.98034 10.0606 8.45857 9.91208 8.66184 9.52554C8.74281 9.37165 8.77069 9.19543 8.74133 9.02405L8.34586 6.71292L10.0258 5.07623C10.2409 4.86581 10.3178 4.55172 10.2243 4.26579ZM6.94114 5.87085C6.75488 6.05221 6.66975 6.31353 6.71335 6.56981L6.90951 7.71233L5.88524 7.1723C5.65497 7.05143 5.37992 7.05143 5.14966 7.1723L4.12144 7.71154L4.31759 6.56902C4.36198 6.31373 4.27834 6.05281 4.09375 5.87085L3.26247 5.062L4.41013 4.89516C4.66778 4.85781 4.89053 4.69601 5.00571 4.46267L5.51745 3.42451L6.02998 4.46267C6.14506 4.69582 6.36741 4.85751 6.62477 4.89516L7.77163 5.062L6.94114 5.87085Z" fill="#FF9927"/>
<path d="M45.5565 40.4794H45.5533L45.2275 39.9907C43.4003 37.2593 40.5271 35.402 37.2856 34.8569C36.8532 34.7952 36.4526 35.0957 36.3909 35.528C36.3313 35.9456 36.6102 36.3365 37.0246 36.4161C39.3626 36.8128 41.4933 38.0002 43.0603 39.7796C41.7429 40.0165 40.5907 40.8075 39.8965 41.9516C39.0447 43.4767 39.5909 45.4033 41.1166 46.2548C42.6422 47.1064 44.5694 46.5603 45.4213 45.0352C45.7466 44.4073 45.9223 43.7126 45.9346 43.0056C46.7761 44.2274 46.8435 45.8231 46.1078 47.1115C45.8849 47.4871 46.0088 47.9722 46.3845 48.1949C46.7602 48.4177 47.2455 48.2939 47.4683 47.9183C47.4754 47.9062 47.4823 47.8941 47.4888 47.8816C48.937 45.2957 48.084 42.0282 45.5565 40.4794ZM44.0418 44.2635C43.6197 45.0282 42.6574 45.3059 41.8926 44.8839C41.1277 44.4619 40.8498 43.4999 41.272 42.7353C41.2743 42.7311 41.2767 42.7267 41.2791 42.7225C41.7458 41.9585 42.5331 41.4464 43.421 41.3293C43.5585 41.3256 43.6946 41.3572 43.8164 41.4211C44.484 41.7935 44.5196 43.408 44.0418 44.2635Z" fill="#FF9927"/>
</svg>
