<svg width="59" height="57" viewBox="0 0 59 57" fill="none" xmlns="http://www.w3.org/2000/svg">
<path d="M6.69917 48.4782H52.6992C53.2518 48.4782 53.6992 48.0325 53.6992 47.4831C53.6992 35.6593 45.0175 25.8199 33.666 23.9322C34.3017 23.1598 34.6993 22.1865 34.6993 21.1124C34.6993 18.643 32.6806 16.6344 30.1993 16.6344C27.7181 16.6344 25.6993 18.643 25.6993 21.1124C25.6993 22.1262 26.0525 23.0516 26.6252 23.803C14.8393 25.3104 5.69941 35.3515 5.69941 47.4833C5.69941 48.0328 6.14652 48.4782 6.69917 48.4782ZM30.1993 18.6245C31.5782 18.6245 32.6992 19.7405 32.6992 21.1122C32.6992 22.4838 31.5782 23.5999 30.1993 23.5999C28.8204 23.5999 27.6994 22.4838 27.6994 21.1122C27.6994 19.7408 28.8204 18.6245 30.1993 18.6245ZM29.6994 25.5905C41.4954 25.5905 51.1516 34.8769 51.6769 46.4879H7.72192C8.24724 34.8769 17.9035 25.5905 29.6994 25.5905Z" fill="#FF9225"/>
<path d="M22.7859 28.8013C18.0224 30.5476 14.1346 33.9981 11.8387 38.5168C11.5897 39.0075 11.787 39.6057 12.2802 39.854C12.4247 39.9264 12.5789 39.9609 12.7302 39.9609C13.0953 39.9609 13.448 39.7611 13.6239 39.4147C15.6902 35.3464 19.1894 32.2405 23.4774 30.669C23.996 30.4792 24.2607 29.9071 24.0701 29.3911C23.8788 28.8745 23.3037 28.6122 22.7859 28.8013Z" fill="#FF9225"/>
<path d="M0.699219 50.4685V52.4585H3.69929V56.4391H5.69934V52.4585H53.6994V56.4391H55.6992V52.4585H58.6992V50.4685H0.699219Z" fill="#FF9225"/>
<path d="M27.0313 11.5922C26.8066 12.4489 26.0342 12.823 26.0118 12.8337C25.5078 13.0578 25.2805 13.6457 25.5059 14.1475C25.671 14.5183 26.0372 14.7384 26.4202 14.7384C26.5558 14.7384 26.6935 14.7101 26.8264 14.6519C26.9934 14.5776 28.4768 13.876 28.9553 12.1394C29.3585 10.6735 28.8987 8.99912 27.588 7.16235C26.8126 6.07537 26.543 5.14486 26.7872 4.39749C27.172 3.21382 28.7363 2.66629 28.7783 2.65175C29.3009 2.47938 29.5848 1.91812 29.4132 1.39725C29.2403 0.875841 28.676 0.594131 28.1515 0.762187C28.047 0.796122 25.6018 1.61728 24.8897 3.76755C24.4318 5.14998 24.7912 6.67945 25.9571 8.31397C26.8816 9.61048 27.2537 10.7443 27.0313 11.5922Z" fill="#FF9225"/>
<path d="M33.3973 10.1942C33.2712 10.6884 32.8173 10.9146 32.8122 10.9173C32.3083 11.1408 32.0809 11.7293 32.3064 12.231C32.4715 12.6019 32.8376 12.8219 33.2206 12.8219C33.3562 12.8214 33.4939 12.7936 33.6268 12.7355C33.7597 12.6762 34.9421 12.1174 35.321 10.7384C35.6363 9.5941 35.2899 8.30405 34.2907 6.90465C33.9421 6.41584 33.5651 5.71425 33.7478 5.14895C33.944 4.54405 34.7283 4.15757 35.0155 4.059C35.5381 3.8861 35.8212 3.32591 35.6493 2.80477C35.4764 2.28336 34.9121 2.00165 34.3876 2.16971C34.1854 2.23569 32.3992 2.8616 31.8506 4.51954C31.4901 5.60787 31.7626 6.79747 32.6601 8.05627C33.2782 8.92322 33.5332 9.66278 33.3973 10.1942Z" fill="#FF9225"/>
</svg>
