<svg width="51" height="49" viewBox="0 0 51 49" fill="none" xmlns="http://www.w3.org/2000/svg">
<path d="M25.9688 9.89206C25.712 9.89206 25.4599 9.78699 25.2783 9.6033C25.2333 9.55844 25.1925 9.5082 25.1574 9.45413C25.1219 9.40121 25.0918 9.34446 25.0673 9.2854C25.0429 9.22635 25.0235 9.16461 25.0116 9.10172C24.9991 9.03806 24.9922 8.97402 24.9922 8.9096C24.9922 8.84556 24.9991 8.78075 25.0116 8.71786C25.0235 8.65497 25.0429 8.59323 25.0673 8.53456C25.0918 8.47435 25.1219 8.4176 25.1574 8.36468C25.1925 8.31061 25.2333 8.26037 25.2783 8.21551C25.3233 8.17026 25.3729 8.12884 25.4267 8.09356C25.4793 8.05828 25.5362 8.02799 25.5957 8.00345C25.6544 7.9789 25.7158 7.96011 25.7784 7.94746C25.9043 7.92177 26.0332 7.92177 26.1591 7.94746C26.2217 7.96011 26.2831 7.9789 26.3418 8.00345C26.4013 8.02799 26.4578 8.05828 26.5108 8.09356C26.5642 8.12884 26.6142 8.17026 26.6592 8.21551C26.7042 8.26037 26.745 8.31061 26.7801 8.36468C26.8152 8.4176 26.8457 8.47435 26.8702 8.53456C26.8946 8.59323 26.914 8.65497 26.9259 8.71786C26.9384 8.78075 26.9453 8.84556 26.9453 8.9096C26.9453 8.97402 26.9384 9.03806 26.9259 9.10172C26.914 9.16461 26.8946 9.22635 26.8702 9.2854C26.8457 9.34446 26.8152 9.40121 26.7801 9.45413C26.745 9.5082 26.7042 9.55805 26.6592 9.6033C26.6142 9.64971 26.5642 9.68997 26.5108 9.72602C26.4578 9.76168 26.4013 9.79198 26.3418 9.81652C26.2831 9.84106 26.2217 9.85985 26.1591 9.87251C26.0965 9.88516 26.0321 9.89206 25.9688 9.89206Z" fill="#FF9927"/>
<path d="M43.8223 36.2966C47.3925 32.6264 49.814 27.7022 50.6411 22.4321C50.6414 22.4309 50.6414 22.4298 50.6414 22.4286C50.8585 21.0443 50.9688 19.6258 50.9688 18.2123C50.9688 17.6701 50.5316 17.2306 49.9922 17.2306H47.1769C46.5403 17.2306 45.9078 17.2605 45.2803 17.32C44.9144 13.8192 43.8059 10.3806 42.0504 7.32009L41.2466 5.91964C41.1169 5.69416 40.9037 5.52926 40.6534 5.46215C40.4036 5.39428 40.1369 5.42994 39.9126 5.55994L35.7336 7.98504C34.8753 8.48317 34.162 9.02579 33.452 9.59832C33.0736 8.96328 32.6731 8.32748 32.2504 7.6913C29.9303 4.19822 27.7773 2.00206 27.7571 1.98173L26.6638 0.868502C26.4803 0.681366 26.2301 0.576294 25.9688 0.576294C25.7074 0.576294 25.4572 0.681366 25.2737 0.868502L24.1819 1.9802C24.1602 2.00206 22.0079 4.19745 19.6871 7.6913C19.264 8.32787 18.8635 8.96405 18.4851 9.59947C17.7755 9.02809 17.0618 8.48586 16.2005 7.98504L12.0234 5.55994C11.7994 5.42994 11.5328 5.39428 11.2825 5.46177C11.0323 5.52926 10.8187 5.69377 10.6894 5.91926L9.88522 7.31971C8.12779 10.381 7.01924 13.82 6.65494 17.3196C6.02818 17.2605 5.39647 17.2306 4.76056 17.2306H1.94531C1.40591 17.2306 0.96875 17.6701 0.96875 18.2123C0.96875 19.6258 1.07899 21.0443 1.29605 22.4286C1.29605 22.4298 1.29605 22.4306 1.29643 22.4317C2.12346 27.7022 4.54503 32.6264 8.1152 36.2966C8.80833 37.0091 9.54037 37.6699 10.3052 38.2758C5.75543 39.32 3.4525 40.8025 3.4525 42.6934C3.4525 44.587 5.76497 46.0339 10.5223 47.1164C14.6593 48.0578 20.1449 48.5763 25.9688 48.5763C31.7926 48.5763 37.2782 48.0578 41.4152 47.1164C46.1721 46.0342 48.485 44.587 48.485 42.6934C48.485 40.8029 46.1821 39.32 41.6323 38.2758C42.3971 37.6699 43.1292 37.0095 43.8223 36.2966ZM48.9966 19.194C48.9683 19.9299 48.9077 20.6639 48.8161 21.3906C44.2358 22.0133 39.8707 24.2628 36.4508 27.7785C33.0549 31.2697 30.6986 35.8951 29.7648 40.8746C29.4378 40.8922 29.1098 40.9014 28.784 40.9014H26.964C27.4241 28.8446 36.3146 19.194 47.1769 19.194H48.9966ZM36.7102 9.68537L40.0431 7.7515L40.3586 8.30102C41.9905 11.1456 43.0163 14.3442 43.3455 17.598C41.3431 17.9865 39.4106 18.679 37.5918 19.655C36.9833 16.92 35.9247 14.1341 34.4286 11.3289C35.1854 10.7123 35.874 10.1708 36.7102 9.68537ZM25.5705 3.36109L25.9688 2.95538L26.3685 3.36263C26.4456 3.44047 33.9418 11.1318 35.8187 20.7206C34.2562 21.7648 32.7974 23.033 31.4741 24.5098C29.5549 26.6519 28.0317 29.1111 26.9453 31.7774V12.5518C26.9453 12.0096 26.5081 11.5702 25.9688 11.5702C25.4294 11.5702 24.9922 12.0096 24.9922 12.5518V31.7774C23.9058 29.1111 22.3826 26.6519 20.4634 24.5098C19.1401 23.033 17.6813 21.7652 16.1188 20.7206C17.9957 11.1307 25.4919 3.44047 25.5705 3.36109ZM11.577 8.30141L11.8929 7.7515L15.2231 9.6846C16.0635 10.1735 16.7524 10.7146 17.5081 11.3297C16.0124 14.1348 14.9538 16.92 14.3457 19.655C12.5261 18.6786 10.5928 17.9861 8.58975 17.5976C8.91782 14.345 9.94359 11.1468 11.577 8.30141ZM4.76056 19.194C15.6229 19.194 24.5134 28.8446 24.9735 40.9014H23.1535C22.8273 40.9014 22.4997 40.8922 22.1727 40.8746C21.2389 35.8951 18.8822 31.2697 15.4863 27.7785C12.0668 24.2628 7.70169 22.0133 3.12138 21.3906C3.02983 20.6639 2.96918 19.9299 2.94095 19.194H4.76056ZM3.46471 23.4276C11.6129 24.8039 18.2348 31.6374 20.1365 40.6479C11.9886 39.2713 5.36671 32.4381 3.46471 23.4276ZM46.5319 42.6934C46.5319 43.0163 45.5126 44.1709 40.9838 45.2017C36.9845 46.1117 31.6519 46.6129 25.9688 46.6129C20.2856 46.6129 14.953 46.1117 10.9537 45.2017C6.42491 44.1709 5.40562 43.0163 5.40562 42.6934C5.40562 42.2808 6.72093 40.8796 12.5277 39.825C15.2151 41.4632 18.1929 42.4813 21.2473 42.7739H21.2477C21.8779 42.8341 22.5191 42.8648 23.1535 42.8648H28.784C29.4184 42.8648 30.0596 42.8341 30.6898 42.7739C33.7442 42.4813 36.7224 41.4632 39.4098 39.8254C45.2166 40.8796 46.5319 42.2808 46.5319 42.6934ZM31.801 40.6479C33.7027 31.6374 40.3246 24.8039 48.4728 23.4276C46.5708 32.4381 39.9489 39.2713 31.801 40.6479Z" fill="#FF9927"/>
</svg>
